{"glyphs":{"0":{"ha":986,"x_min":0,"x_max":0,"o":"m 83 167 b 292 0 83 56 153 0 l 694 0 b 903 167 833 0 903 56 l 903 750 b 694 917 903 861 833 917 l 292 917 b 83 750 153 917 83 861 z m 278 163 l 278 754 b 333 799 278 783 296 799 l 653 799 b 708 754 690 799 708 783 l 708 163 b 653 118 708 133 690 118 l 333 118 b 278 163 296 118 278 133 z "},"1":{"ha":986,"x_min":0,"x_max":0,"o":"m 222 799 l 472 799 l 472 0 l 667 0 l 667 917 l 222 917 z "},"2":{"ha":986,"x_min":0,"x_max":0,"o":"m 83 0 l 903 0 l 903 118 l 278 118 l 278 386 b 333 431 278 415 296 431 l 694 431 b 903 597 833 431 903 486 l 903 750 b 694 917 903 861 833 917 l 153 917 l 153 799 l 653 799 b 708 754 690 799 708 783 l 708 593 b 653 549 708 564 690 549 l 292 549 b 83 382 153 549 83 493 z "},"3":{"ha":986,"x_min":0,"x_max":0,"o":"m 111 0 l 694 0 b 903 167 833 0 903 56 l 903 343 b 806 493 903 419 871 468 b 903 643 871 518 903 567 l 903 750 b 694 917 903 861 833 917 l 111 917 l 111 799 l 653 799 b 708 754 690 799 708 783 l 708 593 b 653 549 708 564 690 549 l 236 549 l 236 431 l 653 431 b 708 386 690 431 708 415 l 708 163 b 653 118 708 133 690 118 l 111 118 z "},"4":{"ha":986,"x_min":0,"x_max":0,"o":"m 83 188 l 708 188 l 708 0 l 903 0 l 903 917 l 660 917 l 83 306 z m 308 306 l 708 729 l 708 306 z "},"5":{"ha":986,"x_min":0,"x_max":0,"o":"m 83 0 l 694 0 b 903 167 833 0 903 56 l 903 382 b 694 549 903 493 833 549 l 278 549 l 278 799 l 847 799 l 847 917 l 83 917 l 83 431 l 653 431 b 708 386 690 431 708 415 l 708 163 b 653 118 708 133 690 118 l 83 118 z "},"6":{"ha":986,"x_min":0,"x_max":0,"o":"m 83 167 b 292 0 83 56 153 0 l 694 0 b 903 167 833 0 903 56 l 903 382 b 694 549 903 493 833 549 l 278 549 l 278 710 b 389 799 278 769 315 799 l 833 799 l 833 917 l 333 917 b 83 717 167 917 83 850 z m 278 163 l 278 431 l 653 431 b 708 386 690 431 708 415 l 708 163 b 653 118 708 133 690 118 l 333 118 b 278 163 296 118 278 133 z "},"7":{"ha":986,"x_min":0,"x_max":0,"o":"m 83 799 l 688 799 l 250 0 l 465 0 l 903 799 l 903 917 l 83 917 z "},"8":{"ha":986,"x_min":0,"x_max":0,"o":"m 83 167 b 292 0 83 56 153 0 l 694 0 b 903 167 833 0 903 56 l 903 343 b 806 493 903 419 871 468 b 903 643 871 518 903 567 l 903 750 b 694 917 903 861 833 917 l 292 917 b 83 750 153 917 83 861 l 83 643 b 181 493 83 567 115 518 b 83 343 115 468 83 419 z m 278 163 l 278 386 b 333 431 278 415 296 431 l 653 431 b 708 386 690 431 708 415 l 708 163 b 653 118 708 133 690 118 l 333 118 b 278 163 296 118 278 133 z m 278 593 l 278 754 b 333 799 278 783 296 799 l 653 799 b 708 754 690 799 708 783 l 708 593 b 653 549 708 564 690 549 l 333 549 b 278 593 296 549 278 564 z "},"9":{"ha":986,"x_min":0,"x_max":0,"o":"m 83 597 b 292 431 83 486 153 431 l 708 431 l 708 207 b 597 118 708 147 671 118 l 139 118 l 139 0 l 653 0 b 903 200 819 0 903 67 l 903 750 b 694 917 903 861 833 917 l 292 917 b 83 750 153 917 83 861 z m 278 593 l 278 754 b 333 799 278 783 296 799 l 653 799 b 708 754 690 799 708 783 l 708 549 l 333 549 b 278 593 296 549 278 564 z "}," ":{"ha":444,"x_min":0,"x_max":0,"o":""},"!":{"ha":417,"x_min":0,"x_max":0,"o":"m 111 0 l 306 0 l 306 167 l 111 167 z m 111 299 l 306 299 l 306 917 l 111 917 z "},"\"":{"ha":694,"x_min":0,"x_max":0,"o":"m 104 569 l 271 569 l 271 917 l 104 917 z m 424 569 l 590 569 l 590 917 l 424 917 z "},"#":{"ha":1083,"x_min":0,"x_max":0,"o":"m 63 229 l 243 229 l 243 0 l 410 0 l 410 229 l 674 229 l 674 0 l 840 0 l 840 229 l 1021 229 l 1021 333 l 840 333 l 840 583 l 1021 583 l 1021 688 l 840 688 l 840 917 l 674 917 l 674 688 l 410 688 l 410 917 l 243 917 l 243 688 l 63 688 l 63 583 l 243 583 l 243 333 l 63 333 z m 410 333 l 410 583 l 674 583 l 674 333 z "},"$":{"ha":986,"x_min":0,"x_max":0,"o":"m 69 0 l 424 0 l 424 -167 l 563 -167 l 563 0 l 708 0 b 917 167 847 0 917 56 l 917 382 b 708 549 917 493 847 549 l 319 549 b 264 590 285 549 264 563 l 264 757 b 319 799 264 785 285 799 l 847 799 l 847 917 l 563 917 l 563 1083 l 424 1083 l 424 917 l 278 917 b 69 750 139 917 69 861 l 69 597 b 278 431 69 486 139 431 l 667 431 b 722 389 701 431 722 417 l 722 160 b 667 118 722 132 701 118 l 69 118 z "},"%":{"ha":1472,"x_min":0,"x_max":0,"o":"m 56 494 b 188 389 56 424 100 389 l 424 389 b 556 494 511 389 556 424 l 556 811 b 424 917 556 882 511 917 l 188 917 b 56 811 100 917 56 882 z m 194 494 l 194 811 b 222 833 194 826 204 833 l 389 833 b 417 811 407 833 417 826 l 417 494 b 389 472 417 479 407 472 l 222 472 b 194 494 204 472 194 479 z m 389 0 l 556 0 l 1083 917 l 917 917 z m 917 106 b 1049 0 917 35 961 0 l 1285 0 b 1417 106 1372 0 1417 35 l 1417 422 b 1285 528 1417 493 1372 528 l 1049 528 b 917 422 961 528 917 493 z m 1056 106 l 1056 422 b 1083 444 1056 438 1065 444 l 1250 444 b 1278 422 1268 444 1278 438 l 1278 106 b 1250 83 1278 90 1268 83 l 1083 83 b 1056 106 1065 83 1056 90 z "},"&":{"ha":1167,"x_min":0,"x_max":0,"o":"m 90 156 b 285 0 90 51 156 0 l 910 0 l 910 438 l 1118 438 l 1118 542 l 361 542 b 313 581 329 542 313 554 l 313 774 b 361 813 313 800 329 813 l 819 813 l 819 917 l 326 917 b 132 761 197 917 132 865 l 132 632 b 201 500 132 576 149 529 b 90 354 111 476 90 413 z m 271 143 l 271 399 b 319 438 271 425 288 438 l 729 438 l 729 104 l 319 104 b 271 143 288 104 271 117 z "},"'":{"ha":375,"x_min":0,"x_max":0,"o":"m 104 569 l 271 569 l 271 917 l 104 917 z "},"(":{"ha":542,"x_min":0,"x_max":0,"o":"m 104 313 b 319 -292 104 90 181 -125 l 479 -292 b 285 313 354 -125 285 90 b 479 917 285 535 354 750 l 319 917 b 104 313 181 750 104 535 z "},")":{"ha":542,"x_min":0,"x_max":0,"o":"m 63 -292 l 222 -292 b 438 313 361 -125 438 90 b 222 917 438 535 361 750 l 63 917 b 257 313 188 750 257 535 b 63 -292 257 90 188 -125 z "},"*":{"ha":764,"x_min":0,"x_max":0,"o":"m 49 621 l 263 551 l 131 369 l 250 283 l 382 465 l 514 283 l 633 369 l 501 551 l 715 621 l 669 761 l 458 692 l 458 917 l 306 917 l 306 692 l 94 761 z "},"+":{"ha":986,"x_min":0,"x_max":0,"o":"m 118 333 l 410 333 l 410 56 l 576 56 l 576 333 l 868 333 l 868 458 l 576 458 l 576 736 l 410 736 l 410 458 l 118 458 z "},",":{"ha":417,"x_min":0,"x_max":0,"o":"m 42 -181 l 181 -181 l 319 167 l 132 167 z "},"-":{"ha":611,"x_min":0,"x_max":0,"o":"m 63 333 l 549 333 l 549 458 l 63 458 z "},".":{"ha":417,"x_min":0,"x_max":0,"o":"m 111 0 l 306 0 l 306 167 l 111 167 z "},"/":{"ha":694,"x_min":0,"x_max":0,"o":"m 35 0 l 217 0 l 660 917 l 478 917 z "},":":{"ha":417,"x_min":0,"x_max":0,"o":"m 111 0 l 306 0 l 306 167 l 111 167 z m 111 500 l 306 500 l 306 667 l 111 667 z "},";":{"ha":417,"x_min":0,"x_max":0,"o":"m 21 -181 l 160 -181 l 299 167 l 111 167 z m 111 500 l 306 500 l 306 667 l 111 667 z "},"<":{"ha":986,"x_min":0,"x_max":0,"o":"m 132 333 l 854 42 l 854 192 l 347 396 l 854 600 l 854 750 l 132 458 z "},"=":{"ha":986,"x_min":0,"x_max":0,"o":"m 118 167 l 868 167 l 868 292 l 118 292 z m 118 500 l 868 500 l 868 625 l 118 625 z "},">":{"ha":986,"x_min":0,"x_max":0,"o":"m 132 42 l 854 333 l 854 458 l 132 750 l 132 600 l 639 396 l 132 192 z "},"?":{"ha":958,"x_min":0,"x_max":0,"o":"m 63 799 l 632 799 b 688 754 669 799 688 783 l 688 593 b 632 549 688 564 669 549 l 313 549 l 313 299 l 507 299 l 507 431 l 674 431 b 882 597 813 431 882 486 l 882 750 b 674 917 882 861 813 917 l 63 917 z m 313 0 l 507 0 l 507 167 l 313 167 z "},"@":{"ha":1458,"x_min":0,"x_max":0,"o":"m 90 -1 b 271 -146 90 -97 150 -146 l 1285 -146 l 1285 -49 l 306 -49 b 257 -10 274 -49 257 -36 l 257 781 b 306 819 257 807 274 819 l 1153 819 b 1201 781 1185 819 1201 807 l 1201 208 l 1049 208 l 1049 667 l 590 667 b 396 511 461 667 396 615 l 396 260 b 590 104 396 156 461 104 l 1368 104 l 1368 772 b 1188 917 1368 868 1308 917 l 271 917 b 90 772 150 917 90 868 z m 576 247 l 576 524 b 625 563 576 550 593 563 l 868 563 l 868 208 l 625 208 b 576 247 593 208 576 221 z "},"A":{"ha":1111,"x_min":0,"x_max":0,"o":"m 14 0 l 211 0 l 318 229 l 793 229 l 900 0 l 1097 0 l 667 917 l 444 917 z m 374 347 l 556 736 l 738 347 z "},"B":{"ha":1083,"x_min":0,"x_max":0,"o":"m 104 0 l 785 0 b 993 167 924 0 993 56 l 993 340 b 889 493 993 419 958 469 b 979 640 949 518 979 567 l 979 750 b 771 917 979 861 910 917 l 104 917 z m 299 118 l 299 431 l 743 431 b 799 386 781 431 799 415 l 799 163 b 743 118 799 133 781 118 z m 299 549 l 299 799 l 729 799 b 785 754 767 799 785 783 l 785 593 b 729 549 785 564 767 549 z "},"C":{"ha":1028,"x_min":0,"x_max":0,"o":"m 104 167 b 313 0 104 56 174 0 l 951 0 l 951 118 l 354 118 b 299 163 317 118 299 133 l 299 754 b 354 799 299 783 317 799 l 951 799 l 951 917 l 313 917 b 104 750 174 917 104 861 z "},"D":{"ha":1111,"x_min":0,"x_max":0,"o":"m 104 0 l 576 0 b 1021 356 872 0 1021 118 l 1021 561 b 576 917 1021 799 872 917 l 104 917 z m 299 118 l 299 799 l 549 799 b 826 576 733 799 826 725 l 826 340 b 549 118 826 192 733 118 z "},"E":{"ha":1028,"x_min":0,"x_max":0,"o":"m 104 0 l 951 0 l 951 118 l 299 118 l 299 431 l 882 431 l 882 549 l 299 549 l 299 799 l 951 799 l 951 917 l 104 917 z "},"F":{"ha":986,"x_min":0,"x_max":0,"o":"m 104 0 l 299 0 l 299 417 l 868 417 l 868 535 l 299 535 l 299 799 l 938 799 l 938 917 l 104 917 z "},"G":{"ha":1111,"x_min":0,"x_max":0,"o":"m 104 167 b 313 0 104 56 174 0 l 1007 0 l 1007 549 l 576 549 l 576 431 l 813 431 l 813 118 l 354 118 b 299 163 317 118 299 133 l 299 754 b 354 799 299 783 317 799 l 951 799 l 951 917 l 313 917 b 104 750 174 917 104 861 z "},"H":{"ha":1125,"x_min":0,"x_max":0,"o":"m 104 0 l 299 0 l 299 431 l 826 431 l 826 0 l 1021 0 l 1021 917 l 826 917 l 826 549 l 299 549 l 299 917 l 104 917 z "},"I":{"ha":403,"x_min":0,"x_max":0,"o":"m 104 0 l 299 0 l 299 917 l 104 917 z "},"J":{"ha":1014,"x_min":0,"x_max":0,"o":"m 63 200 b 313 0 63 67 146 0 l 701 0 b 910 167 840 0 910 56 l 910 917 l 715 917 l 715 163 b 660 118 715 133 697 118 l 368 118 b 257 207 294 118 257 147 l 257 368 l 63 368 z "},"K":{"ha":1028,"x_min":0,"x_max":0,"o":"m 104 0 l 299 0 l 299 243 l 469 408 l 785 0 l 1007 0 l 596 532 l 993 917 l 754 917 l 299 475 l 299 917 l 104 917 z "},"L":{"ha":944,"x_min":0,"x_max":0,"o":"m 104 0 l 910 0 l 910 118 l 299 118 l 299 917 l 104 917 z "},"M":{"ha":1403,"x_min":0,"x_max":0,"o":"m 104 0 l 299 0 l 299 640 l 604 0 l 799 0 l 1104 640 l 1104 0 l 1299 0 l 1299 917 l 1049 917 l 701 189 l 354 917 l 104 917 z "},"N":{"ha":1139,"x_min":0,"x_max":0,"o":"m 104 0 l 299 0 l 299 678 l 813 0 l 1035 0 l 1035 917 l 840 917 l 840 239 l 326 917 l 104 917 z "},"O":{"ha":1125,"x_min":0,"x_max":0,"o":"m 104 167 b 313 0 104 56 174 0 l 813 0 b 1021 167 951 0 1021 56 l 1021 750 b 813 917 1021 861 951 917 l 313 917 b 104 750 174 917 104 861 z m 299 163 l 299 754 b 354 799 299 783 317 799 l 771 799 b 826 754 808 799 826 783 l 826 163 b 771 118 826 133 808 118 l 354 118 b 299 163 317 118 299 133 z "},"P":{"ha":1056,"x_min":0,"x_max":0,"o":"m 104 0 l 299 0 l 299 361 l 771 361 b 979 528 910 361 979 417 l 979 750 b 771 917 979 861 910 917 l 104 917 z m 299 479 l 299 799 l 729 799 b 785 754 767 799 785 783 l 785 524 b 729 479 785 494 767 479 z "},"Q":{"ha":1125,"x_min":0,"x_max":0,"o":"m 104 167 b 313 0 104 56 174 0 l 525 0 l 629 -222 l 832 -222 l 728 0 l 813 0 b 1021 167 951 0 1021 56 l 1021 750 b 813 917 1021 861 951 917 l 313 917 b 104 750 174 917 104 861 z m 299 163 l 299 754 b 354 799 299 783 317 799 l 771 799 b 826 754 808 799 826 783 l 826 163 b 771 118 826 133 808 118 l 354 118 b 299 163 317 118 299 133 z "},"R":{"ha":1069,"x_min":0,"x_max":0,"o":"m 104 0 l 299 0 l 299 382 l 556 382 l 807 0 l 1021 0 l 769 382 b 979 549 906 383 979 435 l 979 750 b 771 917 979 861 910 917 l 104 917 z m 299 500 l 299 799 l 729 799 b 785 754 767 799 785 783 l 785 544 b 729 500 785 515 767 500 z "},"S":{"ha":1056,"x_min":0,"x_max":0,"o":"m 90 0 l 757 0 b 965 167 896 0 965 56 l 965 382 b 757 549 965 493 896 549 l 340 549 b 285 593 303 549 285 564 l 285 754 b 340 799 285 783 303 799 l 896 799 l 896 917 l 299 917 b 90 750 160 917 90 861 l 90 597 b 299 431 90 486 160 431 l 715 431 b 771 386 753 431 771 415 l 771 163 b 715 118 771 133 753 118 l 90 118 z "},"T":{"ha":1042,"x_min":0,"x_max":0,"o":"m 35 799 l 424 799 l 424 0 l 618 0 l 618 799 l 1007 799 l 1007 917 l 35 917 z "},"U":{"ha":1125,"x_min":0,"x_max":0,"o":"m 104 167 b 313 0 104 56 174 0 l 813 0 b 1021 167 951 0 1021 56 l 1021 917 l 826 917 l 826 163 b 771 118 826 133 808 118 l 354 118 b 299 163 317 118 299 133 l 299 917 l 104 917 z "},"V":{"ha":1111,"x_min":0,"x_max":0,"o":"m 14 917 l 444 0 l 667 0 l 1097 917 l 894 917 l 556 194 l 217 917 z "},"W":{"ha":1611,"x_min":0,"x_max":0,"o":"m 28 917 l 313 0 l 569 0 l 806 699 l 1042 0 l 1299 0 l 1583 917 l 1389 917 l 1163 189 l 917 917 l 694 917 l 449 189 l 222 917 z "},"X":{"ha":1069,"x_min":0,"x_max":0,"o":"m 21 0 l 244 0 l 535 338 l 825 0 l 1049 0 l 647 467 l 1035 917 l 811 917 l 535 596 l 258 917 l 35 917 l 422 467 z "},"Y":{"ha":1083,"x_min":0,"x_max":0,"o":"m 14 917 l 444 347 l 444 0 l 639 0 l 639 347 l 1069 917 l 853 917 l 542 504 l 231 917 z "},"Z":{"ha":1014,"x_min":0,"x_max":0,"o":"m 63 0 l 951 0 l 951 118 l 299 118 l 938 799 l 938 917 l 76 917 l 76 799 l 701 799 l 63 118 z "},"[":{"ha":597,"x_min":0,"x_max":0,"o":"m 118 -292 l 521 -292 l 521 -187 l 299 -187 l 299 813 l 521 813 l 521 917 l 118 917 z "},"\\":{"ha":694,"x_min":0,"x_max":0,"o":"m 35 917 l 478 0 l 660 0 l 217 917 z "},"]":{"ha":597,"x_min":0,"x_max":0,"o":"m 76 -187 l 76 -292 l 479 -292 l 479 917 l 76 917 l 76 813 l 299 813 l 299 -187 z "},"^":{"ha":806,"x_min":0,"x_max":0,"o":"m 49 389 l 213 389 l 403 751 l 593 389 l 757 389 l 479 917 l 326 917 z "},"_":{"ha":861,"x_min":0,"x_max":0,"o":"m 0 -187 l 0 -292 l 861 -292 l 861 -187 z "},"`":{"ha":694,"x_min":0,"x_max":0,"o":"m 125 972 l 319 750 l 458 750 l 306 972 z "},"a":{"ha":875,"x_min":0,"x_max":0,"o":"m 76 156 b 271 0 76 51 142 0 l 785 0 l 785 511 b 590 667 785 615 719 667 l 132 667 l 132 563 l 556 563 b 604 524 588 563 604 550 l 604 403 l 271 403 b 76 247 142 403 76 351 z m 257 143 l 257 260 b 306 299 257 286 274 299 l 604 299 l 604 104 l 306 104 b 257 143 274 104 257 117 z "},"b":{"ha":917,"x_min":0,"x_max":0,"o":"m 90 0 l 632 0 b 826 156 761 0 826 51 l 826 511 b 632 667 826 615 761 667 l 271 667 l 271 917 l 90 917 z m 271 104 l 271 563 l 597 563 b 646 524 629 563 646 550 l 646 143 b 597 104 646 117 629 104 z "},"c":{"ha":819,"x_min":0,"x_max":0,"o":"m 90 156 b 285 0 90 51 156 0 l 757 0 l 757 104 l 319 104 b 271 143 288 104 271 117 l 271 524 b 319 563 271 550 288 563 l 757 563 l 757 667 l 285 667 b 90 511 156 667 90 615 z "},"d":{"ha":917,"x_min":0,"x_max":0,"o":"m 90 156 b 285 0 90 51 156 0 l 826 0 l 826 917 l 646 917 l 646 667 l 285 667 b 90 511 156 667 90 615 z m 271 143 l 271 524 b 319 563 271 550 288 563 l 646 563 l 646 104 l 319 104 b 271 143 288 104 271 117 z "},"e":{"ha":889,"x_min":0,"x_max":0,"o":"m 90 156 b 285 0 90 51 156 0 l 771 0 l 771 104 l 319 104 b 271 143 288 104 271 117 l 271 299 l 799 299 l 799 511 b 604 667 799 615 733 667 l 285 667 b 90 511 156 667 90 615 z m 271 403 l 271 524 b 319 563 271 550 288 563 l 569 563 b 618 524 601 563 618 550 l 618 403 z "},"f":{"ha":569,"x_min":0,"x_max":0,"o":"m 90 0 l 271 0 l 271 563 l 521 563 l 521 667 l 271 667 l 271 774 b 319 813 271 800 288 813 l 521 813 l 521 917 l 285 917 b 90 761 156 917 90 865 z "},"g":{"ha":917,"x_min":0,"x_max":0,"o":"m 90 156 b 285 0 90 51 156 0 l 646 0 l 646 -137 b 583 -187 646 -171 625 -187 l 118 -187 l 118 -292 l 632 -292 b 826 -136 761 -292 826 -240 l 826 667 l 285 667 b 90 511 156 667 90 615 z m 271 143 l 271 524 b 319 563 271 550 288 563 l 646 563 l 646 104 l 319 104 b 271 143 288 104 271 117 z "},"h":{"ha":917,"x_min":0,"x_max":0,"o":"m 90 0 l 271 0 l 271 563 l 597 563 b 646 524 629 563 646 550 l 646 0 l 826 0 l 826 511 b 632 667 826 615 761 667 l 271 667 l 271 917 l 90 917 z "},"i":{"ha":361,"x_min":0,"x_max":0,"o":"m 90 0 l 271 0 l 271 667 l 90 667 z m 90 778 l 271 778 l 271 917 l 90 917 z "},"j":{"ha":361,"x_min":0,"x_max":0,"o":"m -76 -187 l -76 -292 l 76 -292 b 271 -136 206 -292 271 -240 l 271 667 l 90 667 l 90 -137 b 28 -187 90 -171 69 -187 z m 90 778 l 271 778 l 271 917 l 90 917 z "},"k":{"ha":833,"x_min":0,"x_max":0,"o":"m 90 0 l 271 0 l 271 153 l 399 276 l 615 0 l 813 0 l 511 386 l 799 667 l 581 667 l 271 365 l 271 917 l 90 917 z "},"l":{"ha":361,"x_min":0,"x_max":0,"o":"m 90 0 l 271 0 l 271 917 l 90 917 z "},"m":{"ha":1306,"x_min":0,"x_max":0,"o":"m 90 0 l 271 0 l 271 563 l 514 563 b 563 524 546 563 563 550 l 563 0 l 743 0 l 743 563 l 986 563 b 1035 524 1018 563 1035 550 l 1035 0 l 1215 0 l 1215 511 b 1021 667 1215 615 1150 667 l 90 667 z "},"n":{"ha":917,"x_min":0,"x_max":0,"o":"m 90 0 l 271 0 l 271 563 l 597 563 b 646 524 629 563 646 550 l 646 0 l 826 0 l 826 511 b 632 667 826 615 761 667 l 90 667 z "},"o":{"ha":917,"x_min":0,"x_max":0,"o":"m 90 156 b 285 0 90 51 156 0 l 632 0 b 826 156 761 0 826 51 l 826 511 b 632 667 826 615 761 667 l 285 667 b 90 511 156 667 90 615 z m 271 143 l 271 524 b 319 563 271 550 288 563 l 597 563 b 646 524 629 563 646 550 l 646 143 b 597 104 646 117 629 104 l 319 104 b 271 143 288 104 271 117 z "},"p":{"ha":917,"x_min":0,"x_max":0,"o":"m 90 -292 l 271 -292 l 271 0 l 632 0 b 826 156 761 0 826 51 l 826 511 b 632 667 826 615 761 667 l 90 667 z m 271 104 l 271 563 l 597 563 b 646 524 629 563 646 550 l 646 143 b 597 104 646 117 629 104 z "},"q":{"ha":917,"x_min":0,"x_max":0,"o":"m 90 156 b 285 0 90 51 156 0 l 646 0 l 646 -292 l 826 -292 l 826 667 l 285 667 b 90 511 156 667 90 615 z m 271 143 l 271 524 b 319 563 271 550 288 563 l 646 563 l 646 104 l 319 104 b 271 143 288 104 271 117 z "},"r":{"ha":569,"x_min":0,"x_max":0,"o":"m 90 0 l 271 0 l 271 524 b 319 563 271 550 288 563 l 521 563 l 521 667 l 285 667 b 90 511 156 667 90 615 z "},"s":{"ha":819,"x_min":0,"x_max":0,"o":"m 76 0 l 549 0 b 743 156 678 0 743 51 l 743 247 b 549 403 743 351 678 403 l 306 403 b 257 442 274 403 257 415 l 257 524 b 306 563 257 550 274 563 l 688 563 l 688 667 l 271 667 b 76 511 142 667 76 615 l 76 454 b 271 299 76 350 142 299 l 514 299 b 563 260 546 299 563 286 l 563 143 b 514 104 563 117 546 104 l 76 104 z "},"t":{"ha":583,"x_min":0,"x_max":0,"o":"m 90 156 b 285 0 90 51 156 0 l 521 0 l 521 104 l 319 104 b 271 143 288 104 271 117 l 271 563 l 521 563 l 521 667 l 271 667 l 271 917 l 90 917 z "},"u":{"ha":917,"x_min":0,"x_max":0,"o":"m 90 156 b 285 0 90 51 156 0 l 826 0 l 826 667 l 646 667 l 646 104 l 319 104 b 271 143 288 104 271 117 l 271 667 l 90 667 z "},"v":{"ha":889,"x_min":0,"x_max":0,"o":"m 21 667 l 347 0 l 542 0 l 868 667 l 686 667 l 444 174 l 203 667 z "},"w":{"ha":1236,"x_min":0,"x_max":0,"o":"m 21 667 l 250 0 l 451 0 l 618 485 l 785 0 l 986 0 l 1215 667 l 1042 667 l 875 181 l 708 667 l 528 667 l 361 181 l 194 667 z "},"x":{"ha":847,"x_min":0,"x_max":0,"o":"m 21 0 l 225 0 l 424 222 l 622 0 l 826 0 l 525 338 l 819 667 l 615 667 l 424 451 l 232 667 l 28 667 l 322 338 z "},"y":{"ha":889,"x_min":0,"x_max":0,"o":"m 21 667 l 353 -11 l 217 -292 l 399 -292 l 868 667 l 686 667 l 444 174 l 203 667 z "},"z":{"ha":833,"x_min":0,"x_max":0,"o":"m 63 0 l 771 0 l 771 104 l 286 104 l 757 563 l 757 667 l 76 667 l 76 563 l 533 563 l 63 104 z "},"{":{"ha":778,"x_min":0,"x_max":0,"o":"m 76 236 l 299 106 l 299 -136 b 493 -292 299 -240 364 -292 l 701 -292 l 701 -187 l 528 -187 b 479 -149 496 -187 479 -175 l 479 167 l 232 313 l 479 458 l 479 774 b 528 813 479 800 496 813 l 701 813 l 701 917 l 493 917 b 299 761 364 917 299 865 l 299 519 l 76 389 z "},"|":{"ha":403,"x_min":0,"x_max":0,"o":"m 118 -292 l 285 -292 l 285 917 l 118 917 z "},"}":{"ha":778,"x_min":0,"x_max":0,"o":"m 76 -187 l 76 -292 l 285 -292 b 479 -136 414 -292 479 -240 l 479 106 l 701 236 l 701 389 l 479 519 l 479 761 b 285 917 479 865 414 917 l 76 917 l 76 813 l 250 813 b 299 774 282 813 299 800 l 299 458 l 546 313 l 299 167 l 299 -149 b 250 -187 299 -175 282 -187 z "},"~":{"ha":986,"x_min":0,"x_max":0,"o":"m 118 279 l 299 388 b 340 400 313 396 326 400 b 382 388 354 400 368 396 l 535 296 b 646 254 576 271 604 254 b 757 296 688 254 715 271 l 868 363 l 868 513 l 688 404 b 646 392 674 396 660 392 b 604 404 632 392 618 396 l 451 496 b 340 538 410 521 382 538 b 229 496 299 538 271 521 l 118 429 z "}," ":{"ha":444,"x_min":0,"x_max":0,"o":""},"¡":{"ha":417,"x_min":0,"x_max":0,"o":"m 111 -250 l 306 -250 l 306 368 l 111 368 z m 111 500 l 306 500 l 306 667 l 111 667 z "},"¢":{"ha":986,"x_min":0,"x_max":0,"o":"m 146 156 b 340 0 146 51 211 0 l 458 0 l 458 -167 l 597 -167 l 597 0 l 813 0 l 813 104 l 375 104 b 326 143 343 104 326 117 l 326 524 b 375 563 326 550 343 563 l 813 563 l 813 667 l 597 667 l 597 833 l 458 833 l 458 667 l 340 667 b 146 511 211 667 146 615 z "},"£":{"ha":986,"x_min":0,"x_max":0,"o":"m 42 0 l 917 0 l 917 118 l 389 118 l 389 438 l 722 438 l 722 542 l 389 542 l 389 754 b 444 799 389 783 407 799 l 861 799 l 861 917 l 403 917 b 194 750 264 917 194 861 l 194 542 l 42 542 l 42 438 l 194 438 l 194 118 l 42 118 z "},"¤":{"ha":986,"x_min":0,"x_max":0,"o":"m 125 188 l 236 76 l 444 285 l 333 396 z m 125 701 l 333 493 l 444 604 l 236 813 z m 542 285 l 750 76 l 861 188 l 653 396 z m 542 604 l 653 493 l 861 701 l 750 813 z "},"¥":{"ha":986,"x_min":0,"x_max":0,"o":"m 0 917 l 324 451 l 146 451 l 146 347 l 396 347 l 396 250 l 146 250 l 146 146 l 396 146 l 396 0 l 590 0 l 590 146 l 840 146 l 840 250 l 590 250 l 590 347 l 840 347 l 840 451 l 663 451 l 986 917 l 776 917 l 493 508 l 210 917 z "},"¦":{"ha":403,"x_min":0,"x_max":0,"o":"m 118 208 l 118 -292 l 285 -292 l 285 208 z m 118 417 l 285 417 l 285 917 l 118 917 z "},"§":{"ha":986,"x_min":0,"x_max":0,"o":"m 104 260 b 299 104 104 156 169 104 l 583 104 b 632 65 615 104 632 92 l 632 -79 b 583 -118 632 -106 615 -118 l 174 -118 l 174 -222 l 618 -222 b 813 -67 747 -222 813 -171 l 813 129 b 882 260 858 154 882 197 l 882 435 b 688 590 882 539 817 590 l 403 590 b 354 629 371 590 354 603 l 354 774 b 403 813 354 800 371 813 l 813 813 l 813 917 l 368 917 b 174 761 239 917 174 865 l 174 565 b 104 435 128 540 104 497 z m 285 247 l 285 447 b 333 486 285 474 301 486 l 653 486 b 701 447 685 486 701 474 l 701 247 b 653 208 701 221 685 208 l 333 208 b 285 247 301 208 285 221 z "},"¨":{"ha":694,"x_min":0,"x_max":0,"o":"m 118 792 l 278 792 l 278 931 l 118 931 z m 417 792 l 576 792 l 576 931 l 417 931 z "},"©":{"ha":1264,"x_min":0,"x_max":0,"o":"m 90 106 b 222 0 90 35 135 0 l 1042 0 b 1174 106 1129 0 1174 35 l 1174 811 b 1042 917 1174 882 1129 917 l 222 917 b 90 811 135 917 90 882 z m 229 106 l 229 811 b 257 833 229 826 239 833 l 1007 833 b 1035 811 1025 833 1035 826 l 1035 106 b 1007 83 1035 90 1025 83 l 257 83 b 229 106 239 83 229 90 z m 368 300 b 500 194 368 229 413 194 l 882 194 l 882 278 l 535 278 b 507 300 517 278 507 285 l 507 617 b 535 639 507 632 517 639 l 882 639 l 882 722 l 500 722 b 368 617 413 722 368 688 z "},"ª":{"ha":597,"x_min":0,"x_max":0,"o":"m 56 578 b 188 472 56 507 100 472 l 542 472 l 542 811 b 410 917 542 882 497 917 l 90 917 l 90 833 l 375 833 b 403 811 393 833 403 826 l 403 757 l 188 757 b 56 651 100 757 56 722 z m 194 578 l 194 651 b 222 674 194 667 204 674 l 403 674 l 403 556 l 222 556 b 194 578 204 556 194 563 z "},"«":{"ha":944,"x_min":0,"x_max":0,"o":"m 49 361 l 306 83 l 493 83 l 250 361 l 493 639 l 306 639 z m 438 361 l 694 83 l 882 83 l 639 361 l 882 639 l 694 639 z "},"¬":{"ha":986,"x_min":0,"x_max":0,"o":"m 111 479 l 722 479 l 722 188 l 861 188 l 861 604 l 111 604 z "},"­":{"ha":611,"x_min":0,"x_max":0,"o":"m 63 333 l 549 333 l 549 458 l 63 458 z "},"®":{"ha":1264,"x_min":0,"x_max":0,"o":"m 90 106 b 222 0 90 35 135 0 l 1042 0 b 1174 106 1129 0 1174 35 l 1174 811 b 1042 917 1174 882 1129 917 l 222 917 b 90 811 135 917 90 882 z m 229 106 l 229 811 b 257 833 229 826 239 833 l 1007 833 b 1035 811 1025 833 1035 826 l 1035 106 b 1007 83 1035 90 1025 83 l 257 83 b 229 106 239 83 229 90 z m 368 194 l 507 194 l 507 403 l 629 403 l 768 194 l 917 194 l 778 403 b 896 508 857 407 896 442 l 896 617 b 764 722 896 688 851 722 l 368 722 z m 507 486 l 507 639 l 729 639 b 757 617 747 639 757 632 l 757 508 b 729 486 757 493 747 486 z "},"¯":{"ha":694,"x_min":0,"x_max":0,"o":"m 118 813 l 576 813 l 576 917 l 118 917 z "},"°":{"ha":653,"x_min":0,"x_max":0,"o":"m 69 606 b 201 500 69 535 114 500 l 451 500 b 583 606 539 500 583 535 l 583 811 b 451 917 583 882 539 917 l 201 917 b 69 811 114 917 69 882 z m 208 606 l 208 811 b 236 833 208 826 218 833 l 417 833 b 444 811 435 833 444 826 l 444 606 b 417 583 444 590 435 583 l 236 583 b 208 606 218 583 208 590 z "},"±":{"ha":986,"x_min":0,"x_max":0,"o":"m 118 0 l 868 0 l 868 125 l 118 125 z m 118 458 l 410 458 l 410 208 l 576 208 l 576 458 l 868 458 l 868 583 l 576 583 l 576 833 l 410 833 l 410 583 l 118 583 z "},"²":{"ha":611,"x_min":0,"x_max":0,"o":"m 56 389 l 556 389 l 556 472 l 194 472 l 194 603 b 222 625 194 618 204 625 l 424 625 b 556 731 511 625 556 660 l 556 811 b 424 917 556 882 511 917 l 90 917 l 90 833 l 389 833 b 417 811 407 833 417 826 l 417 731 b 389 708 417 715 407 708 l 188 708 b 56 603 100 708 56 674 z "},"³":{"ha":611,"x_min":0,"x_max":0,"o":"m 69 389 l 424 389 b 556 494 511 389 556 424 l 556 569 b 486 667 556 615 536 651 b 556 764 536 682 556 718 l 556 811 b 424 917 556 882 511 917 l 69 917 l 69 833 l 389 833 b 417 811 407 833 417 826 l 417 731 b 389 708 417 715 407 708 l 139 708 l 139 625 l 389 625 b 417 603 407 625 417 618 l 417 494 b 389 472 417 479 407 472 l 69 472 z "},"´":{"ha":694,"x_min":0,"x_max":0,"o":"m 236 750 l 375 750 l 569 972 l 389 972 z "},"µ":{"ha":917,"x_min":0,"x_max":0,"o":"m 90 -292 l 271 -292 l 271 0 l 632 0 b 826 156 761 0 826 51 l 826 667 l 646 667 l 646 143 b 597 104 646 117 629 104 l 271 104 l 271 667 l 90 667 z "},"¶":{"ha":889,"x_min":0,"x_max":0,"o":"m 104 417 b 313 250 104 306 174 250 l 521 250 l 521 917 l 313 917 b 104 750 174 917 104 861 z m 604 -292 l 771 -292 l 771 917 l 604 917 z "},"·":{"ha":417,"x_min":0,"x_max":0,"o":"m 111 313 l 306 313 l 306 479 l 111 479 z "},"¸":{"ha":694,"x_min":0,"x_max":0,"o":"m 181 -160 l 181 -243 l 368 -243 b 500 -137 456 -243 500 -208 l 500 0 l 361 0 l 361 -115 b 306 -160 361 -144 343 -160 z "},"¹":{"ha":611,"x_min":0,"x_max":0,"o":"m 132 833 l 278 833 l 278 389 l 417 389 l 417 917 l 132 917 z "},"º":{"ha":611,"x_min":0,"x_max":0,"o":"m 56 578 b 188 472 56 507 100 472 l 424 472 b 556 578 511 472 556 507 l 556 811 b 424 917 556 882 511 917 l 188 917 b 56 811 100 917 56 882 z m 194 578 l 194 811 b 222 833 194 826 204 833 l 389 833 b 417 811 407 833 417 826 l 417 578 b 389 556 417 563 407 556 l 222 556 b 194 578 204 556 194 563 z "},"»":{"ha":944,"x_min":0,"x_max":0,"o":"m 63 83 l 250 83 l 507 361 l 250 639 l 63 639 l 306 361 z m 451 83 l 639 83 l 896 361 l 639 639 l 451 639 l 694 361 z "},"¼":{"ha":1236,"x_min":0,"x_max":0,"o":"m 56 833 l 201 833 l 201 389 l 340 389 l 340 917 l 56 917 z m 250 0 l 417 0 l 944 917 l 778 917 z m 681 104 l 1042 104 l 1042 0 l 1181 0 l 1181 528 l 1014 528 l 681 188 z m 844 188 l 1042 390 l 1042 188 z "},"½":{"ha":1333,"x_min":0,"x_max":0,"o":"m 56 833 l 201 833 l 201 389 l 340 389 l 340 917 l 56 917 z m 250 0 l 417 0 l 944 917 l 778 917 z m 778 0 l 1278 0 l 1278 83 l 917 83 l 917 214 b 944 236 917 229 926 236 l 1146 236 b 1278 342 1233 236 1278 271 l 1278 422 b 1146 528 1278 493 1233 528 l 813 528 l 813 444 l 1111 444 b 1139 422 1129 444 1139 438 l 1139 342 b 1111 319 1139 326 1129 319 l 910 319 b 778 214 822 319 778 285 z "},"¾":{"ha":1375,"x_min":0,"x_max":0,"o":"m 69 389 l 424 389 b 556 494 511 389 556 424 l 556 569 b 486 667 556 615 536 651 b 556 764 536 682 556 718 l 556 811 b 424 917 556 882 511 917 l 69 917 l 69 833 l 389 833 b 417 811 407 833 417 826 l 417 731 b 389 708 417 715 407 708 l 139 708 l 139 625 l 389 625 b 417 603 407 625 417 618 l 417 494 b 389 472 417 479 407 472 l 69 472 z m 389 0 l 556 0 l 1083 917 l 917 917 z m 819 104 l 1181 104 l 1181 0 l 1319 0 l 1319 528 l 1153 528 l 819 188 z m 983 188 l 1181 390 l 1181 188 z "},"¿":{"ha":917,"x_min":0,"x_max":0,"o":"m 76 69 l 76 -83 b 285 -250 76 -194 146 -250 l 896 -250 l 896 -132 l 326 -132 b 271 -87 289 -132 271 -117 l 271 74 b 326 118 271 103 289 118 l 646 118 l 646 368 l 451 368 l 451 236 l 285 236 b 76 69 146 236 76 181 z m 451 500 l 646 500 l 646 667 l 451 667 z "},"À":{"ha":1111,"x_min":0,"x_max":0,"o":"m 14 0 l 211 0 l 318 229 l 793 229 l 900 0 l 1097 0 l 667 917 l 444 917 z m 333 1222 l 528 1000 l 667 1000 l 514 1222 z m 374 347 l 556 736 l 738 347 z "},"Á":{"ha":1111,"x_min":0,"x_max":0,"o":"m 14 0 l 211 0 l 318 229 l 793 229 l 900 0 l 1097 0 l 667 917 l 444 917 z m 374 347 l 556 736 l 738 347 z m 444 1000 l 583 1000 l 778 1222 l 597 1222 z "},"Â":{"ha":1111,"x_min":0,"x_max":0,"o":"m 14 0 l 211 0 l 318 229 l 793 229 l 900 0 l 1097 0 l 667 917 l 444 917 z m 313 1000 l 454 1000 l 556 1122 l 657 1000 l 799 1000 l 625 1222 l 486 1222 z m 374 347 l 556 736 l 738 347 z "},"Ã":{"ha":1111,"x_min":0,"x_max":0,"o":"m 14 0 l 211 0 l 318 229 l 793 229 l 900 0 l 1097 0 l 667 917 l 444 917 z m 306 1083 l 378 1011 l 454 1088 b 481 1104 465 1099 471 1104 b 506 1089 490 1104 494 1100 l 554 1040 b 632 1000 568 1026 597 1000 b 708 1042 667 1000 694 1028 l 806 1139 l 733 1211 l 657 1135 b 631 1118 646 1124 640 1118 b 606 1133 621 1118 617 1122 l 557 1182 b 479 1222 543 1196 514 1222 b 403 1181 444 1222 417 1194 z m 374 347 l 556 736 l 738 347 z "},"Ä":{"ha":1111,"x_min":0,"x_max":0,"o":"m 14 0 l 211 0 l 318 229 l 793 229 l 900 0 l 1097 0 l 667 917 l 444 917 z m 326 1042 l 486 1042 l 486 1181 l 326 1181 z m 374 347 l 556 736 l 738 347 z m 625 1042 l 785 1042 l 785 1181 l 625 1181 z "},"Å":{"ha":1111,"x_min":0,"x_max":0,"o":"m 14 0 l 211 0 l 318 229 l 793 229 l 900 0 l 1097 0 l 667 917 l 444 917 z m 368 1042 b 472 958 368 986 403 958 l 639 958 b 743 1042 708 958 743 986 l 743 1153 b 639 1236 743 1208 708 1236 l 472 1236 b 368 1153 403 1236 368 1208 z m 374 347 l 556 736 l 738 347 z m 479 1044 l 479 1150 b 500 1167 479 1161 486 1167 l 611 1167 b 632 1150 625 1167 632 1161 l 632 1044 b 611 1028 632 1033 625 1028 l 500 1028 b 479 1044 486 1028 479 1033 z "},"Æ":{"ha":1583,"x_min":0,"x_max":0,"o":"m 14 0 l 211 0 l 318 229 l 701 229 l 701 0 l 1507 0 l 1507 118 l 896 118 l 896 431 l 1438 431 l 1438 549 l 896 549 l 896 799 l 1507 799 l 1507 917 l 444 917 z m 374 347 l 585 799 l 701 799 l 701 347 z "},"Ç":{"ha":1028,"x_min":0,"x_max":0,"o":"m 104 167 b 313 0 104 56 174 0 l 604 0 l 604 -115 b 549 -160 604 -144 586 -160 l 424 -160 l 424 -243 l 611 -243 b 743 -137 699 -243 743 -208 l 743 0 l 951 0 l 951 118 l 354 118 b 299 163 317 118 299 133 l 299 754 b 354 799 299 783 317 799 l 951 799 l 951 917 l 313 917 b 104 750 174 917 104 861 z "},"È":{"ha":1028,"x_min":0,"x_max":0,"o":"m 104 0 l 951 0 l 951 118 l 299 118 l 299 431 l 882 431 l 882 549 l 299 549 l 299 799 l 951 799 l 951 917 l 104 917 z m 306 1222 l 500 1000 l 639 1000 l 486 1222 z "},"É":{"ha":1028,"x_min":0,"x_max":0,"o":"m 104 0 l 951 0 l 951 118 l 299 118 l 299 431 l 882 431 l 882 549 l 299 549 l 299 799 l 951 799 l 951 917 l 104 917 z m 417 1000 l 556 1000 l 750 1222 l 569 1222 z "},"Ê":{"ha":1028,"x_min":0,"x_max":0,"o":"m 104 0 l 951 0 l 951 118 l 299 118 l 299 431 l 882 431 l 882 549 l 299 549 l 299 799 l 951 799 l 951 917 l 104 917 z m 285 1000 l 426 1000 l 528 1122 l 629 1000 l 771 1000 l 597 1222 l 458 1222 z "},"Ë":{"ha":1028,"x_min":0,"x_max":0,"o":"m 104 0 l 951 0 l 951 118 l 299 118 l 299 431 l 882 431 l 882 549 l 299 549 l 299 799 l 951 799 l 951 917 l 104 917 z m 299 1042 l 458 1042 l 458 1181 l 299 1181 z m 597 1042 l 757 1042 l 757 1181 l 597 1181 z "},"Ì":{"ha":403,"x_min":0,"x_max":0,"o":"m -7 1222 l 188 1000 l 326 1000 l 174 1222 z m 104 0 l 299 0 l 299 917 l 104 917 z "},"Í":{"ha":403,"x_min":0,"x_max":0,"o":"m 76 1000 l 215 1000 l 410 1222 l 229 1222 z m 104 0 l 299 0 l 299 917 l 104 917 z "},"Î":{"ha":403,"x_min":0,"x_max":0,"o":"m -42 1000 l 100 1000 l 201 1122 l 303 1000 l 444 1000 l 271 1222 l 132 1222 z m 104 0 l 299 0 l 299 917 l 104 917 z "},"Ï":{"ha":403,"x_min":0,"x_max":0,"o":"m -28 1042 l 132 1042 l 132 1181 l -28 1181 z m 104 0 l 299 0 l 299 917 l 104 917 z m 271 1042 l 431 1042 l 431 1181 l 271 1181 z "},"Ð":{"ha":1139,"x_min":0,"x_max":0,"o":"m 21 438 l 132 438 l 132 0 l 604 0 b 1049 356 900 0 1049 118 l 1049 561 b 604 917 1049 799 900 917 l 132 917 l 132 542 l 21 542 z m 326 118 l 326 438 l 597 438 l 597 542 l 326 542 l 326 799 l 576 799 b 854 576 761 799 854 725 l 854 340 b 576 118 854 192 761 118 z "},"Ñ":{"ha":1139,"x_min":0,"x_max":0,"o":"m 104 0 l 299 0 l 299 678 l 813 0 l 1035 0 l 1035 917 l 840 917 l 840 239 l 326 917 l 104 917 z m 319 1083 l 392 1011 l 468 1088 b 494 1104 479 1099 485 1104 b 519 1089 504 1104 508 1100 l 568 1040 b 646 1000 582 1026 611 1000 b 722 1042 681 1000 708 1028 l 819 1139 l 747 1211 l 671 1135 b 644 1118 660 1124 654 1118 b 619 1133 635 1118 631 1122 l 571 1182 b 493 1222 557 1196 528 1222 b 417 1181 458 1222 431 1194 z "},"Ò":{"ha":1125,"x_min":0,"x_max":0,"o":"m 104 167 b 313 0 104 56 174 0 l 813 0 b 1021 167 951 0 1021 56 l 1021 750 b 813 917 1021 861 951 917 l 313 917 b 104 750 174 917 104 861 z m 299 163 l 299 754 b 354 799 299 783 317 799 l 771 799 b 826 754 808 799 826 783 l 826 163 b 771 118 826 133 808 118 l 354 118 b 299 163 317 118 299 133 z m 340 1222 l 535 1000 l 674 1000 l 521 1222 z "},"Ó":{"ha":1125,"x_min":0,"x_max":0,"o":"m 104 167 b 313 0 104 56 174 0 l 813 0 b 1021 167 951 0 1021 56 l 1021 750 b 813 917 1021 861 951 917 l 313 917 b 104 750 174 917 104 861 z m 299 163 l 299 754 b 354 799 299 783 317 799 l 771 799 b 826 754 808 799 826 783 l 826 163 b 771 118 826 133 808 118 l 354 118 b 299 163 317 118 299 133 z m 451 1000 l 590 1000 l 785 1222 l 604 1222 z "},"Ô":{"ha":1125,"x_min":0,"x_max":0,"o":"m 104 167 b 313 0 104 56 174 0 l 813 0 b 1021 167 951 0 1021 56 l 1021 750 b 813 917 1021 861 951 917 l 313 917 b 104 750 174 917 104 861 z m 299 163 l 299 754 b 354 799 299 783 317 799 l 771 799 b 826 754 808 799 826 783 l 826 163 b 771 118 826 133 808 118 l 354 118 b 299 163 317 118 299 133 z m 319 1000 l 461 1000 l 563 1122 l 664 1000 l 806 1000 l 632 1222 l 493 1222 z "},"Õ":{"ha":1125,"x_min":0,"x_max":0,"o":"m 104 167 b 313 0 104 56 174 0 l 813 0 b 1021 167 951 0 1021 56 l 1021 750 b 813 917 1021 861 951 917 l 313 917 b 104 750 174 917 104 861 z m 299 163 l 299 754 b 354 799 299 783 317 799 l 771 799 b 826 754 808 799 826 783 l 826 163 b 771 118 826 133 808 118 l 354 118 b 299 163 317 118 299 133 z m 313 1083 l 385 1011 l 461 1088 b 488 1104 472 1099 478 1104 b 513 1089 497 1104 501 1100 l 561 1040 b 639 1000 575 1026 604 1000 b 715 1042 674 1000 701 1028 l 813 1139 l 740 1211 l 664 1135 b 638 1118 653 1124 647 1118 b 613 1133 628 1118 624 1122 l 564 1182 b 486 1222 550 1196 521 1222 b 410 1181 451 1222 424 1194 z "},"Ö":{"ha":1125,"x_min":0,"x_max":0,"o":"m 104 167 b 313 0 104 56 174 0 l 813 0 b 1021 167 951 0 1021 56 l 1021 750 b 813 917 1021 861 951 917 l 313 917 b 104 750 174 917 104 861 z m 299 163 l 299 754 b 354 799 299 783 317 799 l 771 799 b 826 754 808 799 826 783 l 826 163 b 771 118 826 133 808 118 l 354 118 b 299 163 317 118 299 133 z m 333 1042 l 493 1042 l 493 1181 l 333 1181 z m 632 1042 l 792 1042 l 792 1181 l 632 1181 z "},"×":{"ha":986,"x_min":0,"x_max":0,"o":"m 160 160 l 257 63 l 493 299 l 729 63 l 826 160 l 590 396 l 826 632 l 729 729 l 493 493 l 257 729 l 160 632 l 396 396 z "},"Ø":{"ha":1125,"x_min":0,"x_max":0,"o":"m 104 167 b 313 0 104 56 174 0 l 813 0 b 1021 167 951 0 1021 56 l 1021 750 b 813 917 1021 861 951 917 l 313 917 b 104 750 174 917 104 861 z m 299 246 l 299 754 b 354 799 299 783 317 799 l 771 799 z m 354 118 l 826 671 l 826 163 b 771 118 826 133 808 118 z "},"Ù":{"ha":1125,"x_min":0,"x_max":0,"o":"m 104 167 b 313 0 104 56 174 0 l 813 0 b 1021 167 951 0 1021 56 l 1021 917 l 826 917 l 826 163 b 771 118 826 133 808 118 l 354 118 b 299 163 317 118 299 133 l 299 917 l 104 917 z m 340 1222 l 535 1000 l 674 1000 l 521 1222 z "},"Ú":{"ha":1125,"x_min":0,"x_max":0,"o":"m 104 167 b 313 0 104 56 174 0 l 813 0 b 1021 167 951 0 1021 56 l 1021 917 l 826 917 l 826 163 b 771 118 826 133 808 118 l 354 118 b 299 163 317 118 299 133 l 299 917 l 104 917 z m 451 1000 l 590 1000 l 785 1222 l 604 1222 z "},"Û":{"ha":1125,"x_min":0,"x_max":0,"o":"m 104 167 b 313 0 104 56 174 0 l 813 0 b 1021 167 951 0 1021 56 l 1021 917 l 826 917 l 826 163 b 771 118 826 133 808 118 l 354 118 b 299 163 317 118 299 133 l 299 917 l 104 917 z m 319 1000 l 461 1000 l 563 1122 l 664 1000 l 806 1000 l 632 1222 l 493 1222 z "},"Ü":{"ha":1125,"x_min":0,"x_max":0,"o":"m 104 167 b 313 0 104 56 174 0 l 813 0 b 1021 167 951 0 1021 56 l 1021 917 l 826 917 l 826 163 b 771 118 826 133 808 118 l 354 118 b 299 163 317 118 299 133 l 299 917 l 104 917 z m 333 1042 l 493 1042 l 493 1181 l 333 1181 z m 632 1042 l 792 1042 l 792 1181 l 632 1181 z "},"Ý":{"ha":1083,"x_min":0,"x_max":0,"o":"m 14 917 l 444 347 l 444 0 l 639 0 l 639 347 l 1069 917 l 853 917 l 542 504 l 231 917 z m 431 1000 l 569 1000 l 764 1222 l 583 1222 z "},"Þ":{"ha":1056,"x_min":0,"x_max":0,"o":"m 299 313 l 299 632 l 729 632 b 785 588 767 632 785 617 l 785 357 b 729 313 785 328 767 313 z m 104 917 l 104 0 l 299 0 l 299 194 l 771 194 b 979 361 910 194 979 250 l 979 583 b 771 750 979 694 910 750 l 299 750 l 299 917 z "},"ß":{"ha":917,"x_min":0,"x_max":0,"o":"m 90 0 l 271 0 l 271 774 b 319 813 271 800 288 813 l 556 813 b 604 774 588 813 604 800 l 604 581 b 556 542 604 554 588 542 l 410 542 l 410 438 l 597 438 b 646 399 629 438 646 425 l 646 143 b 597 104 646 117 629 104 l 410 104 l 410 0 l 632 0 b 826 156 761 0 826 51 l 826 347 b 715 493 826 418 796 472 b 785 624 758 517 785 557 l 785 761 b 590 917 785 865 719 917 l 285 917 b 90 761 156 917 90 865 z "},"à":{"ha":875,"x_min":0,"x_max":0,"o":"m 76 156 b 271 0 76 51 142 0 l 785 0 l 785 511 b 590 667 785 615 719 667 l 132 667 l 132 563 l 556 563 b 604 524 588 563 604 550 l 604 403 l 271 403 b 76 247 142 403 76 351 z m 215 972 l 410 750 l 549 750 l 396 972 z m 257 143 l 257 260 b 306 299 257 286 274 299 l 604 299 l 604 104 l 306 104 b 257 143 274 104 257 117 z "},"á":{"ha":875,"x_min":0,"x_max":0,"o":"m 76 156 b 271 0 76 51 142 0 l 785 0 l 785 511 b 590 667 785 615 719 667 l 132 667 l 132 563 l 556 563 b 604 524 588 563 604 550 l 604 403 l 271 403 b 76 247 142 403 76 351 z m 257 143 l 257 260 b 306 299 257 286 274 299 l 604 299 l 604 104 l 306 104 b 257 143 274 104 257 117 z m 326 750 l 465 750 l 660 972 l 479 972 z "},"â":{"ha":875,"x_min":0,"x_max":0,"o":"m 76 156 b 271 0 76 51 142 0 l 785 0 l 785 511 b 590 667 785 615 719 667 l 132 667 l 132 563 l 556 563 b 604 524 588 563 604 550 l 604 403 l 271 403 b 76 247 142 403 76 351 z m 194 750 l 336 750 l 438 872 l 539 750 l 681 750 l 507 972 l 368 972 z m 257 143 l 257 260 b 306 299 257 286 274 299 l 604 299 l 604 104 l 306 104 b 257 143 274 104 257 117 z "},"ã":{"ha":875,"x_min":0,"x_max":0,"o":"m 76 156 b 271 0 76 51 142 0 l 785 0 l 785 511 b 590 667 785 615 719 667 l 132 667 l 132 563 l 556 563 b 604 524 588 563 604 550 l 604 403 l 271 403 b 76 247 142 403 76 351 z m 188 833 l 260 761 l 336 838 b 363 854 347 849 353 854 b 388 839 372 854 376 850 l 436 790 b 514 750 450 776 479 750 b 590 792 549 750 576 778 l 688 889 l 615 961 l 539 885 b 513 868 528 874 522 868 b 488 883 503 868 499 872 l 439 932 b 361 972 425 946 396 972 b 285 931 326 972 299 944 z m 257 143 l 257 260 b 306 299 257 286 274 299 l 604 299 l 604 104 l 306 104 b 257 143 274 104 257 117 z "},"ä":{"ha":875,"x_min":0,"x_max":0,"o":"m 76 156 b 271 0 76 51 142 0 l 785 0 l 785 511 b 590 667 785 615 719 667 l 132 667 l 132 563 l 556 563 b 604 524 588 563 604 550 l 604 403 l 271 403 b 76 247 142 403 76 351 z m 208 792 l 368 792 l 368 931 l 208 931 z m 257 143 l 257 260 b 306 299 257 286 274 299 l 604 299 l 604 104 l 306 104 b 257 143 274 104 257 117 z m 507 792 l 667 792 l 667 931 l 507 931 z "},"å":{"ha":875,"x_min":0,"x_max":0,"o":"m 76 156 b 271 0 76 51 142 0 l 785 0 l 785 511 b 590 667 785 615 719 667 l 132 667 l 132 563 l 556 563 b 604 524 588 563 604 550 l 604 403 l 271 403 b 76 247 142 403 76 351 z m 250 833 b 354 750 250 778 285 750 l 521 750 b 625 833 590 750 625 778 l 625 944 b 521 1028 625 1000 590 1028 l 354 1028 b 250 944 285 1028 250 1000 z m 257 143 l 257 260 b 306 299 257 286 274 299 l 604 299 l 604 104 l 306 104 b 257 143 274 104 257 117 z m 361 836 l 361 942 b 382 958 361 953 368 958 l 493 958 b 514 942 507 958 514 953 l 514 836 b 493 819 514 825 507 819 l 382 819 b 361 836 368 819 361 825 z "},"æ":{"ha":1403,"x_min":0,"x_max":0,"o":"m 76 156 b 271 0 76 51 142 0 l 1285 0 l 1285 104 l 833 104 b 785 143 801 104 785 117 l 785 299 l 1313 299 l 1313 511 b 1118 667 1313 615 1247 667 l 132 667 l 132 563 l 556 563 b 604 524 588 563 604 550 l 604 403 l 271 403 b 76 247 142 403 76 351 z m 257 143 l 257 260 b 306 299 257 286 274 299 l 604 299 l 604 104 l 306 104 b 257 143 274 104 257 117 z m 785 403 l 785 524 b 833 563 785 550 801 563 l 1083 563 b 1132 524 1115 563 1132 550 l 1132 403 z "},"ç":{"ha":819,"x_min":0,"x_max":0,"o":"m 90 156 b 285 0 90 51 156 0 l 479 0 l 479 -115 b 424 -160 479 -144 461 -160 l 299 -160 l 299 -243 l 486 -243 b 618 -137 574 -243 618 -208 l 618 0 l 757 0 l 757 104 l 319 104 b 271 143 288 104 271 117 l 271 524 b 319 563 271 550 288 563 l 757 563 l 757 667 l 285 667 b 90 511 156 667 90 615 z "},"è":{"ha":889,"x_min":0,"x_max":0,"o":"m 90 156 b 285 0 90 51 156 0 l 771 0 l 771 104 l 319 104 b 271 143 288 104 271 117 l 271 299 l 799 299 l 799 511 b 604 667 799 615 733 667 l 285 667 b 90 511 156 667 90 615 z m 222 972 l 417 750 l 556 750 l 403 972 z m 271 403 l 271 524 b 319 563 271 550 288 563 l 569 563 b 618 524 601 563 618 550 l 618 403 z "},"é":{"ha":889,"x_min":0,"x_max":0,"o":"m 90 156 b 285 0 90 51 156 0 l 771 0 l 771 104 l 319 104 b 271 143 288 104 271 117 l 271 299 l 799 299 l 799 511 b 604 667 799 615 733 667 l 285 667 b 90 511 156 667 90 615 z m 271 403 l 271 524 b 319 563 271 550 288 563 l 569 563 b 618 524 601 563 618 550 l 618 403 z m 333 750 l 472 750 l 667 972 l 486 972 z "},"ê":{"ha":889,"x_min":0,"x_max":0,"o":"m 90 156 b 285 0 90 51 156 0 l 771 0 l 771 104 l 319 104 b 271 143 288 104 271 117 l 271 299 l 799 299 l 799 511 b 604 667 799 615 733 667 l 285 667 b 90 511 156 667 90 615 z m 201 750 l 343 750 l 444 872 l 546 750 l 688 750 l 514 972 l 375 972 z m 271 403 l 271 524 b 319 563 271 550 288 563 l 569 563 b 618 524 601 563 618 550 l 618 403 z "},"ë":{"ha":889,"x_min":0,"x_max":0,"o":"m 90 156 b 285 0 90 51 156 0 l 771 0 l 771 104 l 319 104 b 271 143 288 104 271 117 l 271 299 l 799 299 l 799 511 b 604 667 799 615 733 667 l 285 667 b 90 511 156 667 90 615 z m 215 792 l 375 792 l 375 931 l 215 931 z m 271 403 l 271 524 b 319 563 271 550 288 563 l 569 563 b 618 524 601 563 618 550 l 618 403 z m 514 792 l 674 792 l 674 931 l 514 931 z "},"ì":{"ha":361,"x_min":0,"x_max":0,"o":"m -35 972 l 160 750 l 299 750 l 146 972 z m 90 0 l 271 0 l 271 667 l 90 667 z "},"í":{"ha":361,"x_min":0,"x_max":0,"o":"m 63 750 l 201 750 l 396 972 l 215 972 z m 90 0 l 271 0 l 271 667 l 90 667 z "},"î":{"ha":389,"x_min":0,"x_max":0,"o":"m -49 750 l 93 750 l 194 872 l 296 750 l 438 750 l 264 972 l 125 972 z m 104 0 l 285 0 l 285 667 l 104 667 z "},"ï":{"ha":389,"x_min":0,"x_max":0,"o":"m -35 792 l 125 792 l 125 931 l -35 931 z m 104 0 l 285 0 l 285 667 l 104 667 z m 264 792 l 424 792 l 424 931 l 264 931 z "},"ð":{"ha":917,"x_min":0,"x_max":0,"o":"m 90 156 b 285 0 90 51 156 0 l 632 0 b 826 156 761 0 826 51 l 826 438 b 778 608 826 506 806 551 l 704 760 l 833 801 l 803 894 l 660 847 l 626 917 l 444 917 l 504 797 l 356 749 l 386 656 l 547 708 l 608 583 l 285 583 b 90 428 156 583 90 532 z m 271 143 l 271 440 b 319 479 271 467 288 479 l 646 479 l 646 143 b 597 104 646 117 629 104 l 319 104 b 271 143 288 104 271 117 z "},"ñ":{"ha":917,"x_min":0,"x_max":0,"o":"m 90 0 l 271 0 l 271 563 l 597 563 b 646 524 629 563 646 550 l 646 0 l 826 0 l 826 511 b 632 667 826 615 761 667 l 90 667 z m 208 833 l 281 761 l 357 838 b 383 854 368 849 374 854 b 408 839 393 854 397 850 l 457 790 b 535 750 471 776 500 750 b 611 792 569 750 597 778 l 708 889 l 636 961 l 560 885 b 533 868 549 874 543 868 b 508 883 524 868 519 872 l 460 932 b 382 972 446 946 417 972 b 306 931 347 972 319 944 z "},"ò":{"ha":917,"x_min":0,"x_max":0,"o":"m 90 156 b 285 0 90 51 156 0 l 632 0 b 826 156 761 0 826 51 l 826 511 b 632 667 826 615 761 667 l 285 667 b 90 511 156 667 90 615 z m 236 972 l 431 750 l 569 750 l 417 972 z m 271 143 l 271 524 b 319 563 271 550 288 563 l 597 563 b 646 524 629 563 646 550 l 646 143 b 597 104 646 117 629 104 l 319 104 b 271 143 288 104 271 117 z "},"ó":{"ha":917,"x_min":0,"x_max":0,"o":"m 90 156 b 285 0 90 51 156 0 l 632 0 b 826 156 761 0 826 51 l 826 511 b 632 667 826 615 761 667 l 285 667 b 90 511 156 667 90 615 z m 271 143 l 271 524 b 319 563 271 550 288 563 l 597 563 b 646 524 629 563 646 550 l 646 143 b 597 104 646 117 629 104 l 319 104 b 271 143 288 104 271 117 z m 347 750 l 486 750 l 681 972 l 500 972 z "},"ô":{"ha":917,"x_min":0,"x_max":0,"o":"m 90 156 b 285 0 90 51 156 0 l 632 0 b 826 156 761 0 826 51 l 826 511 b 632 667 826 615 761 667 l 285 667 b 90 511 156 667 90 615 z m 215 750 l 357 750 l 458 872 l 560 750 l 701 750 l 528 972 l 389 972 z m 271 143 l 271 524 b 319 563 271 550 288 563 l 597 563 b 646 524 629 563 646 550 l 646 143 b 597 104 646 117 629 104 l 319 104 b 271 143 288 104 271 117 z "},"õ":{"ha":917,"x_min":0,"x_max":0,"o":"m 90 156 b 285 0 90 51 156 0 l 632 0 b 826 156 761 0 826 51 l 826 511 b 632 667 826 615 761 667 l 285 667 b 90 511 156 667 90 615 z m 208 833 l 281 761 l 357 838 b 383 854 368 849 374 854 b 408 839 393 854 397 850 l 457 790 b 535 750 471 776 500 750 b 611 792 569 750 597 778 l 708 889 l 636 961 l 560 885 b 533 868 549 874 543 868 b 508 883 524 868 519 872 l 460 932 b 382 972 446 946 417 972 b 306 931 347 972 319 944 z m 271 143 l 271 524 b 319 563 271 550 288 563 l 597 563 b 646 524 629 563 646 550 l 646 143 b 597 104 646 117 629 104 l 319 104 b 271 143 288 104 271 117 z "},"ö":{"ha":917,"x_min":0,"x_max":0,"o":"m 90 156 b 285 0 90 51 156 0 l 632 0 b 826 156 761 0 826 51 l 826 511 b 632 667 826 615 761 667 l 285 667 b 90 511 156 667 90 615 z m 229 792 l 389 792 l 389 931 l 229 931 z m 271 143 l 271 524 b 319 563 271 550 288 563 l 597 563 b 646 524 629 563 646 550 l 646 143 b 597 104 646 117 629 104 l 319 104 b 271 143 288 104 271 117 z m 528 792 l 688 792 l 688 931 l 528 931 z "},"÷":{"ha":986,"x_min":0,"x_max":0,"o":"m 118 333 l 868 333 l 868 458 l 118 458 z m 410 56 l 576 56 l 576 208 l 410 208 z m 410 583 l 576 583 l 576 736 l 410 736 z "},"ø":{"ha":917,"x_min":0,"x_max":0,"o":"m 90 156 b 285 0 90 51 156 0 l 632 0 b 826 156 761 0 826 51 l 826 511 b 632 667 826 615 761 667 l 285 667 b 90 511 156 667 90 615 z m 271 208 l 271 524 b 319 563 271 550 288 563 l 590 563 z m 326 104 l 646 458 l 646 143 b 597 104 646 117 629 104 z "},"ù":{"ha":917,"x_min":0,"x_max":0,"o":"m 90 156 b 285 0 90 51 156 0 l 826 0 l 826 667 l 646 667 l 646 104 l 319 104 b 271 143 288 104 271 117 l 271 667 l 90 667 z m 236 972 l 431 750 l 569 750 l 417 972 z "},"ú":{"ha":917,"x_min":0,"x_max":0,"o":"m 90 156 b 285 0 90 51 156 0 l 826 0 l 826 667 l 646 667 l 646 104 l 319 104 b 271 143 288 104 271 117 l 271 667 l 90 667 z m 347 750 l 486 750 l 681 972 l 500 972 z "},"û":{"ha":917,"x_min":0,"x_max":0,"o":"m 90 156 b 285 0 90 51 156 0 l 826 0 l 826 667 l 646 667 l 646 104 l 319 104 b 271 143 288 104 271 117 l 271 667 l 90 667 z m 215 750 l 357 750 l 458 872 l 560 750 l 701 750 l 528 972 l 389 972 z "},"ü":{"ha":917,"x_min":0,"x_max":0,"o":"m 90 156 b 285 0 90 51 156 0 l 826 0 l 826 667 l 646 667 l 646 104 l 319 104 b 271 143 288 104 271 117 l 271 667 l 90 667 z m 229 792 l 389 792 l 389 931 l 229 931 z m 528 792 l 688 792 l 688 931 l 528 931 z "},"ý":{"ha":889,"x_min":0,"x_max":0,"o":"m 21 667 l 353 -11 l 217 -292 l 399 -292 l 868 667 l 686 667 l 444 174 l 203 667 z m 333 750 l 472 750 l 667 972 l 486 972 z "},"þ":{"ha":917,"x_min":0,"x_max":0,"o":"m 90 -292 l 271 -292 l 271 0 l 632 0 b 826 156 761 0 826 51 l 826 511 b 632 667 826 615 761 667 l 271 667 l 271 917 l 90 917 z m 271 104 l 271 563 l 597 563 b 646 524 629 563 646 550 l 646 143 b 597 104 646 117 629 104 z "},"ÿ":{"ha":889,"x_min":0,"x_max":0,"o":"m 21 667 l 353 -11 l 217 -292 l 399 -292 l 868 667 l 686 667 l 444 174 l 203 667 z m 215 792 l 375 792 l 375 931 l 215 931 z m 514 792 l 674 792 l 674 931 l 514 931 z "},"Ā":{"ha":1111,"x_min":0,"x_max":0,"o":"m 14 0 l 211 0 l 318 229 l 793 229 l 900 0 l 1097 0 l 667 917 l 444 917 z m 326 1063 l 785 1063 l 785 1167 l 326 1167 z m 374 347 l 556 736 l 738 347 z "},"ā":{"ha":875,"x_min":0,"x_max":0,"o":"m 76 156 b 271 0 76 51 142 0 l 785 0 l 785 511 b 590 667 785 615 719 667 l 132 667 l 132 563 l 556 563 b 604 524 588 563 604 550 l 604 403 l 271 403 b 76 247 142 403 76 351 z m 208 813 l 667 813 l 667 917 l 208 917 z m 257 143 l 257 260 b 306 299 257 286 274 299 l 604 299 l 604 104 l 306 104 b 257 143 274 104 257 117 z "},"Ă":{"ha":1111,"x_min":0,"x_max":0,"o":"m 14 0 l 211 0 l 318 229 l 793 229 l 900 0 l 1097 0 l 667 917 l 444 917 z m 354 1083 b 458 1000 354 1028 389 1000 l 653 1000 b 757 1083 722 1000 757 1028 l 757 1222 l 646 1222 l 646 1093 b 625 1076 646 1082 639 1076 l 486 1076 b 465 1093 472 1076 465 1082 l 465 1222 l 354 1222 z m 374 347 l 556 736 l 738 347 z "},"ă":{"ha":875,"x_min":0,"x_max":0,"o":"m 76 156 b 271 0 76 51 142 0 l 785 0 l 785 511 b 590 667 785 615 719 667 l 132 667 l 132 563 l 556 563 b 604 524 588 563 604 550 l 604 403 l 271 403 b 76 247 142 403 76 351 z m 236 833 b 340 750 236 778 271 750 l 535 750 b 639 833 604 750 639 778 l 639 972 l 528 972 l 528 843 b 507 826 528 832 521 826 l 368 826 b 347 843 354 826 347 832 l 347 972 l 236 972 z m 257 143 l 257 260 b 306 299 257 286 274 299 l 604 299 l 604 104 l 306 104 b 257 143 274 104 257 117 z "},"Ą":{"ha":1111,"x_min":0,"x_max":0,"o":"m 14 0 l 211 0 l 318 229 l 793 229 l 863 81 b 792 0 813 68 792 29 l 792 -137 b 924 -243 792 -208 836 -243 l 1097 -243 l 1097 -160 l 986 -160 b 931 -115 949 -160 931 -144 l 931 -44 b 986 0 931 -15 949 0 l 1097 0 l 667 917 l 444 917 z m 374 347 l 556 736 l 738 347 z "},"ą":{"ha":875,"x_min":0,"x_max":0,"o":"m 76 156 b 271 0 76 51 142 0 l 479 0 l 479 -137 b 611 -243 479 -208 524 -243 l 785 -243 l 785 -160 l 674 -160 b 618 -115 636 -160 618 -144 l 618 -44 b 674 0 618 -15 636 0 l 785 0 l 785 511 b 590 667 785 615 719 667 l 132 667 l 132 563 l 556 563 b 604 524 588 563 604 550 l 604 403 l 271 403 b 76 247 142 403 76 351 z m 257 143 l 257 260 b 306 299 257 286 274 299 l 604 299 l 604 104 l 306 104 b 257 143 274 104 257 117 z "},"Ć":{"ha":1028,"x_min":0,"x_max":0,"o":"m 104 167 b 313 0 104 56 174 0 l 951 0 l 951 118 l 354 118 b 299 163 317 118 299 133 l 299 754 b 354 799 299 783 317 799 l 951 799 l 951 917 l 313 917 b 104 750 174 917 104 861 z m 438 1000 l 576 1000 l 771 1222 l 590 1222 z "},"ć":{"ha":819,"x_min":0,"x_max":0,"o":"m 90 156 b 285 0 90 51 156 0 l 757 0 l 757 104 l 319 104 b 271 143 288 104 271 117 l 271 524 b 319 563 271 550 288 563 l 757 563 l 757 667 l 285 667 b 90 511 156 667 90 615 z m 326 750 l 465 750 l 660 972 l 479 972 z "},"Ĉ":{"ha":1028,"x_min":0,"x_max":0,"o":"m 104 167 b 313 0 104 56 174 0 l 951 0 l 951 118 l 354 118 b 299 163 317 118 299 133 l 299 754 b 354 799 299 783 317 799 l 951 799 l 951 917 l 313 917 b 104 750 174 917 104 861 z m 306 1000 l 447 1000 l 549 1122 l 650 1000 l 792 1000 l 618 1222 l 479 1222 z "},"ĉ":{"ha":819,"x_min":0,"x_max":0,"o":"m 90 156 b 285 0 90 51 156 0 l 757 0 l 757 104 l 319 104 b 271 143 288 104 271 117 l 271 524 b 319 563 271 550 288 563 l 757 563 l 757 667 l 285 667 b 90 511 156 667 90 615 z m 194 750 l 336 750 l 438 872 l 539 750 l 681 750 l 507 972 l 368 972 z "},"Ċ":{"ha":1028,"x_min":0,"x_max":0,"o":"m 104 167 b 313 0 104 56 174 0 l 951 0 l 951 118 l 354 118 b 299 163 317 118 299 133 l 299 754 b 354 799 299 783 317 799 l 951 799 l 951 917 l 313 917 b 104 750 174 917 104 861 z m 458 1042 l 639 1042 l 639 1181 l 458 1181 z "},"ċ":{"ha":819,"x_min":0,"x_max":0,"o":"m 90 156 b 285 0 90 51 156 0 l 757 0 l 757 104 l 319 104 b 271 143 288 104 271 117 l 271 524 b 319 563 271 550 288 563 l 757 563 l 757 667 l 285 667 b 90 511 156 667 90 615 z m 347 792 l 528 792 l 528 931 l 347 931 z "},"Č":{"ha":1028,"x_min":0,"x_max":0,"o":"m 104 167 b 313 0 104 56 174 0 l 951 0 l 951 118 l 354 118 b 299 163 317 118 299 133 l 299 754 b 354 799 299 783 317 799 l 951 799 l 951 917 l 313 917 b 104 750 174 917 104 861 z m 306 1222 l 479 1000 l 618 1000 l 792 1222 l 650 1222 l 549 1100 l 447 1222 z "},"č":{"ha":819,"x_min":0,"x_max":0,"o":"m 90 156 b 285 0 90 51 156 0 l 757 0 l 757 104 l 319 104 b 271 143 288 104 271 117 l 271 524 b 319 563 271 550 288 563 l 757 563 l 757 667 l 285 667 b 90 511 156 667 90 615 z m 194 972 l 368 750 l 507 750 l 681 972 l 539 972 l 438 850 l 336 972 z "},"Ď":{"ha":1111,"x_min":0,"x_max":0,"o":"m 104 0 l 576 0 b 1021 356 872 0 1021 118 l 1021 561 b 576 917 1021 799 872 917 l 104 917 z m 292 1222 l 465 1000 l 604 1000 l 778 1222 l 636 1222 l 535 1100 l 433 1222 z m 299 118 l 299 799 l 549 799 b 826 576 733 799 826 725 l 826 340 b 549 118 826 192 733 118 z "},"ď":{"ha":1083,"x_min":0,"x_max":0,"o":"m 90 156 b 285 0 90 51 156 0 l 826 0 l 826 917 l 646 917 l 646 667 l 285 667 b 90 511 156 667 90 615 z m 271 143 l 271 524 b 319 563 271 550 288 563 l 646 563 l 646 104 l 319 104 b 271 143 288 104 271 117 z m 889 694 l 1007 694 l 1097 917 l 938 917 z "},"Đ":{"ha":1139,"x_min":0,"x_max":0,"o":"m 21 438 l 132 438 l 132 0 l 604 0 b 1049 356 900 0 1049 118 l 1049 561 b 604 917 1049 799 900 917 l 132 917 l 132 542 l 21 542 z m 326 118 l 326 438 l 597 438 l 597 542 l 326 542 l 326 799 l 576 799 b 854 576 761 799 854 725 l 854 340 b 576 118 854 192 761 118 z "},"đ":{"ha":944,"x_min":0,"x_max":0,"o":"m 90 156 b 285 0 90 51 156 0 l 826 0 l 826 750 l 924 750 l 924 840 l 826 840 l 826 917 l 646 917 l 646 840 l 396 840 l 396 750 l 646 750 l 646 667 l 285 667 b 90 511 156 667 90 615 z m 271 143 l 271 524 b 319 563 271 550 288 563 l 646 563 l 646 104 l 319 104 b 271 143 288 104 271 117 z "},"Ē":{"ha":1028,"x_min":0,"x_max":0,"o":"m 104 0 l 951 0 l 951 118 l 299 118 l 299 431 l 882 431 l 882 549 l 299 549 l 299 799 l 951 799 l 951 917 l 104 917 z m 299 1063 l 757 1063 l 757 1167 l 299 1167 z "},"ē":{"ha":889,"x_min":0,"x_max":0,"o":"m 90 156 b 285 0 90 51 156 0 l 771 0 l 771 104 l 319 104 b 271 143 288 104 271 117 l 271 299 l 799 299 l 799 511 b 604 667 799 615 733 667 l 285 667 b 90 511 156 667 90 615 z m 215 813 l 674 813 l 674 917 l 215 917 z m 271 403 l 271 524 b 319 563 271 550 288 563 l 569 563 b 618 524 601 563 618 550 l 618 403 z "},"Ĕ":{"ha":1028,"x_min":0,"x_max":0,"o":"m 104 0 l 951 0 l 951 118 l 299 118 l 299 431 l 882 431 l 882 549 l 299 549 l 299 799 l 951 799 l 951 917 l 104 917 z m 326 1083 b 431 1000 326 1028 361 1000 l 625 1000 b 729 1083 694 1000 729 1028 l 729 1222 l 618 1222 l 618 1093 b 597 1076 618 1082 611 1076 l 458 1076 b 438 1093 444 1076 438 1082 l 438 1222 l 326 1222 z "},"ĕ":{"ha":889,"x_min":0,"x_max":0,"o":"m 90 156 b 285 0 90 51 156 0 l 771 0 l 771 104 l 319 104 b 271 143 288 104 271 117 l 271 299 l 799 299 l 799 511 b 604 667 799 615 733 667 l 285 667 b 90 511 156 667 90 615 z m 243 833 b 347 750 243 778 278 750 l 542 750 b 646 833 611 750 646 778 l 646 972 l 535 972 l 535 843 b 514 826 535 832 528 826 l 375 826 b 354 843 361 826 354 832 l 354 972 l 243 972 z m 271 403 l 271 524 b 319 563 271 550 288 563 l 569 563 b 618 524 601 563 618 550 l 618 403 z "},"Ė":{"ha":1028,"x_min":0,"x_max":0,"o":"m 104 0 l 951 0 l 951 118 l 299 118 l 299 431 l 882 431 l 882 549 l 299 549 l 299 799 l 951 799 l 951 917 l 104 917 z m 438 1042 l 618 1042 l 618 1181 l 438 1181 z "},"ė":{"ha":889,"x_min":0,"x_max":0,"o":"m 90 156 b 285 0 90 51 156 0 l 771 0 l 771 104 l 319 104 b 271 143 288 104 271 117 l 271 299 l 799 299 l 799 511 b 604 667 799 615 733 667 l 285 667 b 90 511 156 667 90 615 z m 271 403 l 271 524 b 319 563 271 550 288 563 l 569 563 b 618 524 601 563 618 550 l 618 403 z m 354 792 l 535 792 l 535 931 l 354 931 z "},"Ę":{"ha":1028,"x_min":0,"x_max":0,"o":"m 104 0 l 646 0 l 646 -137 b 778 -243 646 -208 690 -243 l 951 -243 l 951 -160 l 840 -160 b 785 -115 803 -160 785 -144 l 785 -44 b 840 0 785 -15 803 0 l 951 0 l 951 118 l 299 118 l 299 431 l 882 431 l 882 549 l 299 549 l 299 799 l 951 799 l 951 917 l 104 917 z "},"ę":{"ha":889,"x_min":0,"x_max":0,"o":"m 90 156 b 285 0 90 51 156 0 l 465 0 l 465 -137 b 597 -243 465 -208 510 -243 l 771 -243 l 771 -160 l 660 -160 b 604 -115 622 -160 604 -144 l 604 -44 b 660 0 604 -15 622 0 l 771 0 l 771 104 l 319 104 b 271 143 288 104 271 117 l 271 299 l 799 299 l 799 511 b 604 667 799 615 733 667 l 285 667 b 90 511 156 667 90 615 z m 271 403 l 271 524 b 319 563 271 550 288 563 l 569 563 b 618 524 601 563 618 550 l 618 403 z "},"Ě":{"ha":1028,"x_min":0,"x_max":0,"o":"m 104 0 l 951 0 l 951 118 l 299 118 l 299 431 l 882 431 l 882 549 l 299 549 l 299 799 l 951 799 l 951 917 l 104 917 z m 285 1222 l 458 1000 l 597 1000 l 771 1222 l 629 1222 l 528 1100 l 426 1222 z "},"ě":{"ha":889,"x_min":0,"x_max":0,"o":"m 90 156 b 285 0 90 51 156 0 l 771 0 l 771 104 l 319 104 b 271 143 288 104 271 117 l 271 299 l 799 299 l 799 511 b 604 667 799 615 733 667 l 285 667 b 90 511 156 667 90 615 z m 201 972 l 375 750 l 514 750 l 688 972 l 546 972 l 444 850 l 343 972 z m 271 403 l 271 524 b 319 563 271 550 288 563 l 569 563 b 618 524 601 563 618 550 l 618 403 z "},"Ĝ":{"ha":1111,"x_min":0,"x_max":0,"o":"m 104 167 b 313 0 104 56 174 0 l 1007 0 l 1007 549 l 576 549 l 576 431 l 813 431 l 813 118 l 354 118 b 299 163 317 118 299 133 l 299 754 b 354 799 299 783 317 799 l 951 799 l 951 917 l 313 917 b 104 750 174 917 104 861 z m 313 1000 l 454 1000 l 556 1122 l 657 1000 l 799 1000 l 625 1222 l 486 1222 z "},"ĝ":{"ha":917,"x_min":0,"x_max":0,"o":"m 90 156 b 285 0 90 51 156 0 l 646 0 l 646 -137 b 583 -187 646 -171 625 -187 l 118 -187 l 118 -292 l 632 -292 b 826 -136 761 -292 826 -240 l 826 667 l 285 667 b 90 511 156 667 90 615 z m 215 750 l 357 750 l 458 872 l 560 750 l 701 750 l 528 972 l 389 972 z m 271 143 l 271 524 b 319 563 271 550 288 563 l 646 563 l 646 104 l 319 104 b 271 143 288 104 271 117 z "},"Ğ":{"ha":1111,"x_min":0,"x_max":0,"o":"m 104 167 b 313 0 104 56 174 0 l 1007 0 l 1007 549 l 576 549 l 576 431 l 813 431 l 813 118 l 354 118 b 299 163 317 118 299 133 l 299 754 b 354 799 299 783 317 799 l 951 799 l 951 917 l 313 917 b 104 750 174 917 104 861 z m 354 1083 b 458 1000 354 1028 389 1000 l 653 1000 b 757 1083 722 1000 757 1028 l 757 1222 l 646 1222 l 646 1093 b 625 1076 646 1082 639 1076 l 486 1076 b 465 1093 472 1076 465 1082 l 465 1222 l 354 1222 z "},"ğ":{"ha":917,"x_min":0,"x_max":0,"o":"m 90 156 b 285 0 90 51 156 0 l 646 0 l 646 -137 b 583 -187 646 -171 625 -187 l 118 -187 l 118 -292 l 632 -292 b 826 -136 761 -292 826 -240 l 826 667 l 285 667 b 90 511 156 667 90 615 z m 257 833 b 361 750 257 778 292 750 l 556 750 b 660 833 625 750 660 778 l 660 972 l 549 972 l 549 843 b 528 826 549 832 542 826 l 389 826 b 368 843 375 826 368 832 l 368 972 l 257 972 z m 271 143 l 271 524 b 319 563 271 550 288 563 l 646 563 l 646 104 l 319 104 b 271 143 288 104 271 117 z "},"Ġ":{"ha":1111,"x_min":0,"x_max":0,"o":"m 104 167 b 313 0 104 56 174 0 l 1007 0 l 1007 549 l 576 549 l 576 431 l 813 431 l 813 118 l 354 118 b 299 163 317 118 299 133 l 299 754 b 354 799 299 783 317 799 l 951 799 l 951 917 l 313 917 b 104 750 174 917 104 861 z m 465 1042 l 646 1042 l 646 1181 l 465 1181 z "},"ġ":{"ha":917,"x_min":0,"x_max":0,"o":"m 90 156 b 285 0 90 51 156 0 l 646 0 l 646 -137 b 583 -187 646 -171 625 -187 l 118 -187 l 118 -292 l 632 -292 b 826 -136 761 -292 826 -240 l 826 667 l 285 667 b 90 511 156 667 90 615 z m 271 143 l 271 524 b 319 563 271 550 288 563 l 646 563 l 646 104 l 319 104 b 271 143 288 104 271 117 z m 368 792 l 549 792 l 549 931 l 368 931 z "},"Ģ":{"ha":1111,"x_min":0,"x_max":0,"o":"m 104 167 b 313 0 104 56 174 0 l 1007 0 l 1007 549 l 576 549 l 576 431 l 813 431 l 813 118 l 354 118 b 299 163 317 118 299 133 l 299 754 b 354 799 299 783 317 799 l 951 799 l 951 917 l 313 917 b 104 750 174 917 104 861 z m 479 -292 l 597 -292 l 688 -69 l 528 -69 z "},"ģ":{"ha":917,"x_min":0,"x_max":0,"o":"m 90 156 b 285 0 90 51 156 0 l 646 0 l 646 -137 b 583 -187 646 -171 625 -187 l 118 -187 l 118 -292 l 632 -292 b 826 -136 761 -292 826 -240 l 826 667 l 285 667 b 90 511 156 667 90 615 z m 271 143 l 271 524 b 319 563 271 550 288 563 l 646 563 l 646 104 l 319 104 b 271 143 288 104 271 117 z m 382 750 l 542 750 l 590 972 l 472 972 z "},"Ĥ":{"ha":1125,"x_min":0,"x_max":0,"o":"m 104 0 l 299 0 l 299 431 l 826 431 l 826 0 l 1021 0 l 1021 917 l 826 917 l 826 549 l 299 549 l 299 917 l 104 917 z m 319 1000 l 461 1000 l 563 1122 l 664 1000 l 806 1000 l 632 1222 l 493 1222 z "},"ĥ":{"ha":917,"x_min":0,"x_max":0,"o":"m 90 0 l 271 0 l 271 563 l 597 563 b 646 524 629 563 646 550 l 646 0 l 826 0 l 826 511 b 632 667 826 615 761 667 l 271 667 l 271 917 l 90 917 z m 215 1000 l 357 1000 l 458 1122 l 560 1000 l 701 1000 l 528 1222 l 389 1222 z "},"Ħ":{"ha":1181,"x_min":0,"x_max":0,"o":"m 21 681 l 132 681 l 132 0 l 326 0 l 326 431 l 854 431 l 854 0 l 1049 0 l 1049 681 l 1160 681 l 1160 785 l 1049 785 l 1049 917 l 854 917 l 854 785 l 326 785 l 326 917 l 132 917 l 132 785 l 21 785 z m 326 549 l 326 681 l 854 681 l 854 549 z "},"ħ":{"ha":944,"x_min":0,"x_max":0,"o":"m 21 750 l 118 750 l 118 0 l 299 0 l 299 563 l 625 563 b 674 524 657 563 674 550 l 674 0 l 854 0 l 854 511 b 660 667 854 615 789 667 l 299 667 l 299 750 l 549 750 l 549 840 l 299 840 l 299 917 l 118 917 l 118 840 l 21 840 z "},"Ĩ":{"ha":403,"x_min":0,"x_max":0,"o":"m -49 1083 l 24 1011 l 100 1088 b 126 1104 111 1099 117 1104 b 151 1089 136 1104 140 1100 l 200 1040 b 278 1000 214 1026 243 1000 b 354 1042 313 1000 340 1028 l 451 1139 l 379 1211 l 303 1135 b 276 1118 292 1124 286 1118 b 251 1133 267 1118 263 1122 l 203 1182 b 125 1222 189 1196 160 1222 b 49 1181 90 1222 63 1194 z m 104 0 l 299 0 l 299 917 l 104 917 z "},"ĩ":{"ha":389,"x_min":0,"x_max":0,"o":"m -56 833 l 17 761 l 93 838 b 119 854 104 849 110 854 b 144 839 129 854 133 850 l 193 790 b 271 750 207 776 236 750 b 347 792 306 750 333 778 l 444 889 l 372 961 l 296 885 b 269 868 285 874 279 868 b 244 883 260 868 256 872 l 196 932 b 118 972 182 946 153 972 b 42 931 83 972 56 944 z m 104 0 l 285 0 l 285 667 l 104 667 z "},"Ī":{"ha":403,"x_min":0,"x_max":0,"o":"m -28 1063 l 431 1063 l 431 1167 l -28 1167 z m 104 0 l 299 0 l 299 917 l 104 917 z "},"ī":{"ha":389,"x_min":0,"x_max":0,"o":"m -35 813 l 424 813 l 424 917 l -35 917 z m 104 0 l 285 0 l 285 667 l 104 667 z "},"Ĭ":{"ha":403,"x_min":0,"x_max":0,"o":"m 0 1083 b 104 1000 0 1028 35 1000 l 299 1000 b 403 1083 368 1000 403 1028 l 403 1222 l 292 1222 l 292 1093 b 271 1076 292 1082 285 1076 l 132 1076 b 111 1093 118 1076 111 1082 l 111 1222 l 0 1222 z m 104 0 l 299 0 l 299 917 l 104 917 z "},"ĭ":{"ha":389,"x_min":0,"x_max":0,"o":"m -7 833 b 97 750 -7 778 28 750 l 292 750 b 396 833 361 750 396 778 l 396 972 l 285 972 l 285 843 b 264 826 285 832 278 826 l 125 826 b 104 843 111 826 104 832 l 104 972 l -7 972 z m 104 0 l 285 0 l 285 667 l 104 667 z "},"Į":{"ha":403,"x_min":0,"x_max":0,"o":"m 21 0 l 21 -137 b 153 -243 21 -208 65 -243 l 326 -243 l 326 -160 l 215 -160 b 160 -115 178 -160 160 -144 l 160 -44 b 215 0 160 -15 178 0 l 299 0 l 299 917 l 104 917 l 104 83 b 21 0 44 74 21 32 z "},"į":{"ha":361,"x_min":0,"x_max":0,"o":"m 7 0 l 7 -137 b 139 -243 7 -208 51 -243 l 313 -243 l 313 -160 l 201 -160 b 146 -115 164 -160 146 -144 l 146 -44 b 201 0 146 -15 164 0 l 271 0 l 271 667 l 90 667 l 90 83 b 7 0 31 74 7 32 z m 90 778 l 271 778 l 271 917 l 90 917 z "},"İ":{"ha":403,"x_min":0,"x_max":0,"o":"m 104 0 l 299 0 l 299 917 l 104 917 z m 111 1042 l 292 1042 l 292 1181 l 111 1181 z "},"ı":{"ha":361,"x_min":0,"x_max":0,"o":"m 90 0 l 271 0 l 271 667 l 90 667 z "},"Ĳ":{"ha":1417,"x_min":0,"x_max":0,"o":"m 104 0 l 299 0 l 299 917 l 104 917 z m 465 200 b 715 0 465 67 549 0 l 1104 0 b 1313 167 1243 0 1313 56 l 1313 917 l 1118 917 l 1118 163 b 1063 118 1118 133 1100 118 l 771 118 b 660 207 697 118 660 147 l 660 368 l 465 368 z "},"ĳ":{"ha":722,"x_min":0,"x_max":0,"o":"m 90 0 l 271 0 l 271 667 l 90 667 z m 90 778 l 271 778 l 271 917 l 90 917 z m 285 -187 l 285 -292 l 438 -292 b 632 -136 567 -292 632 -240 l 632 667 l 451 667 l 451 -137 b 389 -187 451 -171 431 -187 z m 451 778 l 632 778 l 632 917 l 451 917 z "},"Ĵ":{"ha":1014,"x_min":0,"x_max":0,"o":"m 63 200 b 313 0 63 67 146 0 l 701 0 b 910 167 840 0 910 56 l 910 917 l 715 917 l 715 163 b 660 118 715 133 697 118 l 368 118 b 257 207 294 118 257 147 l 257 368 l 63 368 z m 569 1000 l 711 1000 l 813 1122 l 914 1000 l 1056 1000 l 882 1222 l 743 1222 z "},"ĵ":{"ha":389,"x_min":0,"x_max":0,"o":"m -62 -187 l -62 -292 l 90 -292 b 285 -136 219 -292 285 -240 l 285 667 l 104 667 l 104 -137 b 42 -187 104 -171 83 -187 z m -49 750 l 93 750 l 194 872 l 296 750 l 438 750 l 264 972 l 125 972 z "},"Ķ":{"ha":1028,"x_min":0,"x_max":0,"o":"m 104 0 l 299 0 l 299 243 l 469 408 l 785 0 l 1007 0 l 596 532 l 993 917 l 754 917 l 299 475 l 299 917 l 104 917 z m 403 -292 l 521 -292 l 611 -69 l 451 -69 z "},"ķ":{"ha":833,"x_min":0,"x_max":0,"o":"m 90 0 l 271 0 l 271 153 l 399 276 l 615 0 l 813 0 l 511 386 l 799 667 l 581 667 l 271 365 l 271 917 l 90 917 z m 319 -292 l 438 -292 l 528 -69 l 368 -69 z "},"ĸ":{"ha":833,"x_min":0,"x_max":0,"o":"m 90 0 l 271 0 l 271 153 l 399 276 l 615 0 l 813 0 l 511 386 l 799 667 l 581 667 l 271 365 l 271 667 l 90 667 z "},"Ĺ":{"ha":944,"x_min":0,"x_max":0,"o":"m 104 0 l 910 0 l 910 118 l 299 118 l 299 917 l 104 917 z m 104 1000 l 243 1000 l 438 1222 l 257 1222 z "},"ĺ":{"ha":361,"x_min":0,"x_max":0,"o":"m 69 1000 l 208 1000 l 403 1222 l 222 1222 z m 90 0 l 271 0 l 271 917 l 90 917 z "},"Ļ":{"ha":944,"x_min":0,"x_max":0,"o":"m 104 0 l 910 0 l 910 118 l 299 118 l 299 917 l 104 917 z m 424 -292 l 542 -292 l 632 -69 l 472 -69 z "},"ļ":{"ha":361,"x_min":0,"x_max":0,"o":"m 56 -292 l 174 -292 l 264 -69 l 104 -69 z m 90 0 l 271 0 l 271 917 l 90 917 z "},"Ľ":{"ha":944,"x_min":0,"x_max":0,"o":"m 104 0 l 910 0 l 910 118 l 299 118 l 299 917 l 104 917 z m 472 694 l 590 694 l 681 917 l 521 917 z "},"ľ":{"ha":528,"x_min":0,"x_max":0,"o":"m 90 0 l 271 0 l 271 917 l 90 917 z m 333 694 l 451 694 l 542 917 l 382 917 z "},"Ŀ":{"ha":944,"x_min":0,"x_max":0,"o":"m 104 0 l 910 0 l 910 118 l 299 118 l 299 917 l 104 917 z m 576 431 l 757 431 l 757 569 l 576 569 z "},"ŀ":{"ha":639,"x_min":0,"x_max":0,"o":"m 90 0 l 271 0 l 271 917 l 90 917 z m 410 431 l 590 431 l 590 569 l 410 569 z "},"Ł":{"ha":1028,"x_min":0,"x_max":0,"o":"m 7 375 l 57 275 l 160 326 l 160 0 l 993 0 l 993 118 l 354 118 l 354 424 l 604 549 l 554 649 l 354 549 l 354 917 l 160 917 l 160 451 z "},"ł":{"ha":500,"x_min":0,"x_max":0,"o":"m 7 403 l 53 310 l 160 363 l 160 0 l 340 0 l 340 451 l 493 528 l 447 621 l 340 568 l 340 917 l 160 917 l 160 479 z "},"Ń":{"ha":1139,"x_min":0,"x_max":0,"o":"m 104 0 l 299 0 l 299 678 l 813 0 l 1035 0 l 1035 917 l 840 917 l 840 239 l 326 917 l 104 917 z m 458 1000 l 597 1000 l 792 1222 l 611 1222 z "},"ń":{"ha":917,"x_min":0,"x_max":0,"o":"m 90 0 l 271 0 l 271 563 l 597 563 b 646 524 629 563 646 550 l 646 0 l 826 0 l 826 511 b 632 667 826 615 761 667 l 90 667 z m 347 750 l 486 750 l 681 972 l 500 972 z "},"Ņ":{"ha":1139,"x_min":0,"x_max":0,"o":"m 104 0 l 299 0 l 299 678 l 813 0 l 1035 0 l 1035 917 l 840 917 l 840 239 l 326 917 l 104 917 z m 472 -292 l 590 -292 l 681 -69 l 521 -69 z "},"ņ":{"ha":917,"x_min":0,"x_max":0,"o":"m 90 0 l 271 0 l 271 563 l 597 563 b 646 524 629 563 646 550 l 646 0 l 826 0 l 826 511 b 632 667 826 615 761 667 l 90 667 z m 354 -292 l 472 -292 l 563 -69 l 403 -69 z "},"Ň":{"ha":1139,"x_min":0,"x_max":0,"o":"m 104 0 l 299 0 l 299 678 l 813 0 l 1035 0 l 1035 917 l 840 917 l 840 239 l 326 917 l 104 917 z m 326 1222 l 500 1000 l 639 1000 l 813 1222 l 671 1222 l 569 1100 l 468 1222 z "},"ň":{"ha":917,"x_min":0,"x_max":0,"o":"m 90 0 l 271 0 l 271 563 l 597 563 b 646 524 629 563 646 550 l 646 0 l 826 0 l 826 511 b 632 667 826 615 761 667 l 90 667 z m 215 972 l 389 750 l 528 750 l 701 972 l 560 972 l 458 850 l 357 972 z "},"Ŋ":{"ha":1125,"x_min":0,"x_max":0,"o":"m 104 0 l 299 0 l 299 799 l 771 799 b 826 754 808 799 826 783 l 826 -112 b 750 -174 826 -153 801 -174 l 563 -174 l 563 -292 l 813 -292 b 1021 -125 951 -292 1021 -236 l 1021 750 b 813 917 1021 861 951 917 l 104 917 z "},"ŋ":{"ha":917,"x_min":0,"x_max":0,"o":"m 90 0 l 271 0 l 271 563 l 597 563 b 646 524 629 563 646 550 l 646 -137 b 583 -187 646 -171 625 -187 l 458 -187 l 458 -292 l 632 -292 b 826 -136 761 -292 826 -240 l 826 511 b 632 667 826 615 761 667 l 90 667 z "},"Ō":{"ha":1125,"x_min":0,"x_max":0,"o":"m 104 167 b 313 0 104 56 174 0 l 813 0 b 1021 167 951 0 1021 56 l 1021 750 b 813 917 1021 861 951 917 l 313 917 b 104 750 174 917 104 861 z m 299 163 l 299 754 b 354 799 299 783 317 799 l 771 799 b 826 754 808 799 826 783 l 826 163 b 771 118 826 133 808 118 l 354 118 b 299 163 317 118 299 133 z m 333 1063 l 792 1063 l 792 1167 l 333 1167 z "},"ō":{"ha":917,"x_min":0,"x_max":0,"o":"m 90 156 b 285 0 90 51 156 0 l 632 0 b 826 156 761 0 826 51 l 826 511 b 632 667 826 615 761 667 l 285 667 b 90 511 156 667 90 615 z m 229 813 l 688 813 l 688 917 l 229 917 z m 271 143 l 271 524 b 319 563 271 550 288 563 l 597 563 b 646 524 629 563 646 550 l 646 143 b 597 104 646 117 629 104 l 319 104 b 271 143 288 104 271 117 z "},"Ŏ":{"ha":1125,"x_min":0,"x_max":0,"o":"m 104 167 b 313 0 104 56 174 0 l 813 0 b 1021 167 951 0 1021 56 l 1021 750 b 813 917 1021 861 951 917 l 313 917 b 104 750 174 917 104 861 z m 299 163 l 299 754 b 354 799 299 783 317 799 l 771 799 b 826 754 808 799 826 783 l 826 163 b 771 118 826 133 808 118 l 354 118 b 299 163 317 118 299 133 z m 361 1083 b 465 1000 361 1028 396 1000 l 660 1000 b 764 1083 729 1000 764 1028 l 764 1222 l 653 1222 l 653 1093 b 632 1076 653 1082 646 1076 l 493 1076 b 472 1093 479 1076 472 1082 l 472 1222 l 361 1222 z "},"ŏ":{"ha":917,"x_min":0,"x_max":0,"o":"m 90 156 b 285 0 90 51 156 0 l 632 0 b 826 156 761 0 826 51 l 826 511 b 632 667 826 615 761 667 l 285 667 b 90 511 156 667 90 615 z m 257 833 b 361 750 257 778 292 750 l 556 750 b 660 833 625 750 660 778 l 660 972 l 549 972 l 549 843 b 528 826 549 832 542 826 l 389 826 b 368 843 375 826 368 832 l 368 972 l 257 972 z m 271 143 l 271 524 b 319 563 271 550 288 563 l 597 563 b 646 524 629 563 646 550 l 646 143 b 597 104 646 117 629 104 l 319 104 b 271 143 288 104 271 117 z "},"Ő":{"ha":1125,"x_min":0,"x_max":0,"o":"m 104 167 b 313 0 104 56 174 0 l 813 0 b 1021 167 951 0 1021 56 l 1021 750 b 813 917 1021 861 951 917 l 313 917 b 104 750 174 917 104 861 z m 299 163 l 299 754 b 354 799 299 783 317 799 l 771 799 b 826 754 808 799 826 783 l 826 163 b 771 118 826 133 808 118 l 354 118 b 299 163 317 118 299 133 z m 340 1000 l 465 1000 l 646 1222 l 479 1222 z m 604 1000 l 729 1000 l 910 1222 l 743 1222 z "},"ő":{"ha":917,"x_min":0,"x_max":0,"o":"m 90 156 b 285 0 90 51 156 0 l 632 0 b 826 156 761 0 826 51 l 826 511 b 632 667 826 615 761 667 l 285 667 b 90 511 156 667 90 615 z m 236 750 l 361 750 l 542 972 l 375 972 z m 271 143 l 271 524 b 319 563 271 550 288 563 l 597 563 b 646 524 629 563 646 550 l 646 143 b 597 104 646 117 629 104 l 319 104 b 271 143 288 104 271 117 z m 500 750 l 625 750 l 806 972 l 639 972 z "},"Œ":{"ha":1653,"x_min":0,"x_max":0,"o":"m 104 167 b 313 0 104 56 174 0 l 1576 0 l 1576 118 l 965 118 l 965 431 l 1507 431 l 1507 549 l 965 549 l 965 799 l 1576 799 l 1576 917 l 313 917 b 104 750 174 917 104 861 z m 299 163 l 299 754 b 354 799 299 783 317 799 l 771 799 l 771 118 l 354 118 b 299 163 317 118 299 133 z "},"œ":{"ha":1417,"x_min":0,"x_max":0,"o":"m 90 156 b 285 0 90 51 156 0 l 1299 0 l 1299 104 l 847 104 b 799 143 815 104 799 117 l 799 299 l 1326 299 l 1326 511 b 1132 667 1326 615 1261 667 l 285 667 b 90 511 156 667 90 615 z m 271 143 l 271 524 b 319 563 271 550 288 563 l 569 563 b 618 524 601 563 618 550 l 618 143 b 569 104 618 117 601 104 l 319 104 b 271 143 288 104 271 117 z m 799 403 l 799 524 b 847 563 799 550 815 563 l 1097 563 b 1146 524 1129 563 1146 550 l 1146 403 z "},"Ŕ":{"ha":1069,"x_min":0,"x_max":0,"o":"m 104 0 l 299 0 l 299 382 l 556 382 l 807 0 l 1021 0 l 769 382 b 979 549 906 383 979 435 l 979 750 b 771 917 979 861 910 917 l 104 917 z m 299 500 l 299 799 l 729 799 b 785 754 767 799 785 783 l 785 544 b 729 500 785 515 767 500 z m 431 1000 l 569 1000 l 764 1222 l 583 1222 z "},"ŕ":{"ha":569,"x_min":0,"x_max":0,"o":"m 90 0 l 271 0 l 271 524 b 319 563 271 550 288 563 l 521 563 l 521 667 l 285 667 b 90 511 156 667 90 615 z m 188 750 l 326 750 l 521 972 l 340 972 z "},"Ŗ":{"ha":1069,"x_min":0,"x_max":0,"o":"m 104 0 l 299 0 l 299 382 l 556 382 l 807 0 l 1021 0 l 769 382 b 979 549 906 383 979 435 l 979 750 b 771 917 979 861 910 917 l 104 917 z m 299 500 l 299 799 l 729 799 b 785 754 767 799 785 783 l 785 544 b 729 500 785 515 767 500 z m 424 -292 l 542 -292 l 632 -69 l 472 -69 z "},"ŗ":{"ha":569,"x_min":0,"x_max":0,"o":"m 56 -292 l 174 -292 l 264 -69 l 104 -69 z m 90 0 l 271 0 l 271 524 b 319 563 271 550 288 563 l 521 563 l 521 667 l 285 667 b 90 511 156 667 90 615 z "},"Ř":{"ha":1069,"x_min":0,"x_max":0,"o":"m 104 0 l 299 0 l 299 382 l 556 382 l 807 0 l 1021 0 l 769 382 b 979 549 906 383 979 435 l 979 750 b 771 917 979 861 910 917 l 104 917 z m 299 500 l 299 799 l 729 799 b 785 754 767 799 785 783 l 785 544 b 729 500 785 515 767 500 z m 299 1222 l 472 1000 l 611 1000 l 785 1222 l 643 1222 l 542 1100 l 440 1222 z "},"ř":{"ha":569,"x_min":0,"x_max":0,"o":"m 63 972 l 236 750 l 375 750 l 549 972 l 407 972 l 306 850 l 204 972 z m 90 0 l 271 0 l 271 524 b 319 563 271 550 288 563 l 521 563 l 521 667 l 285 667 b 90 511 156 667 90 615 z "},"Ś":{"ha":1056,"x_min":0,"x_max":0,"o":"m 90 0 l 757 0 b 965 167 896 0 965 56 l 965 382 b 757 549 965 493 896 549 l 340 549 b 285 593 303 549 285 564 l 285 754 b 340 799 285 783 303 799 l 896 799 l 896 917 l 299 917 b 90 750 160 917 90 861 l 90 597 b 299 431 90 486 160 431 l 715 431 b 771 386 753 431 771 415 l 771 163 b 715 118 771 133 753 118 l 90 118 z m 417 1000 l 556 1000 l 750 1222 l 569 1222 z "},"ś":{"ha":819,"x_min":0,"x_max":0,"o":"m 76 0 l 549 0 b 743 156 678 0 743 51 l 743 247 b 549 403 743 351 678 403 l 306 403 b 257 442 274 403 257 415 l 257 524 b 306 563 257 550 274 563 l 688 563 l 688 667 l 271 667 b 76 511 142 667 76 615 l 76 454 b 271 299 76 350 142 299 l 514 299 b 563 260 546 299 563 286 l 563 143 b 514 104 563 117 546 104 l 76 104 z m 299 750 l 438 750 l 632 972 l 451 972 z "},"Ŝ":{"ha":1056,"x_min":0,"x_max":0,"o":"m 90 0 l 757 0 b 965 167 896 0 965 56 l 965 382 b 757 549 965 493 896 549 l 340 549 b 285 593 303 549 285 564 l 285 754 b 340 799 285 783 303 799 l 896 799 l 896 917 l 299 917 b 90 750 160 917 90 861 l 90 597 b 299 431 90 486 160 431 l 715 431 b 771 386 753 431 771 415 l 771 163 b 715 118 771 133 753 118 l 90 118 z m 285 1000 l 426 1000 l 528 1122 l 629 1000 l 771 1000 l 597 1222 l 458 1222 z "},"ŝ":{"ha":819,"x_min":0,"x_max":0,"o":"m 76 0 l 549 0 b 743 156 678 0 743 51 l 743 247 b 549 403 743 351 678 403 l 306 403 b 257 442 274 403 257 415 l 257 524 b 306 563 257 550 274 563 l 688 563 l 688 667 l 271 667 b 76 511 142 667 76 615 l 76 454 b 271 299 76 350 142 299 l 514 299 b 563 260 546 299 563 286 l 563 143 b 514 104 563 117 546 104 l 76 104 z m 167 750 l 308 750 l 410 872 l 511 750 l 653 750 l 479 972 l 340 972 z "},"Ş":{"ha":1056,"x_min":0,"x_max":0,"o":"m 90 0 l 556 0 l 556 -115 b 500 -160 556 -144 538 -160 l 375 -160 l 375 -243 l 563 -243 b 694 -137 650 -243 694 -208 l 694 0 l 757 0 b 965 167 896 0 965 56 l 965 382 b 757 549 965 493 896 549 l 340 549 b 285 593 303 549 285 564 l 285 754 b 340 799 285 783 303 799 l 896 799 l 896 917 l 299 917 b 90 750 160 917 90 861 l 90 597 b 299 431 90 486 160 431 l 715 431 b 771 386 753 431 771 415 l 771 163 b 715 118 771 133 753 118 l 90 118 z "},"ş":{"ha":819,"x_min":0,"x_max":0,"o":"m 76 0 l 417 0 l 417 -115 b 361 -160 417 -144 399 -160 l 236 -160 l 236 -243 l 424 -243 b 556 -137 511 -243 556 -208 l 556 0 b 743 156 680 2 743 53 l 743 247 b 549 403 743 351 678 403 l 306 403 b 257 442 274 403 257 415 l 257 524 b 306 563 257 550 274 563 l 688 563 l 688 667 l 271 667 b 76 511 142 667 76 615 l 76 454 b 271 299 76 350 142 299 l 514 299 b 563 260 546 299 563 286 l 563 143 b 514 104 563 117 546 104 l 76 104 z "},"Š":{"ha":1056,"x_min":0,"x_max":0,"o":"m 90 0 l 757 0 b 965 167 896 0 965 56 l 965 382 b 757 549 965 493 896 549 l 340 549 b 285 593 303 549 285 564 l 285 754 b 340 799 285 783 303 799 l 896 799 l 896 917 l 299 917 b 90 750 160 917 90 861 l 90 597 b 299 431 90 486 160 431 l 715 431 b 771 386 753 431 771 415 l 771 163 b 715 118 771 133 753 118 l 90 118 z m 285 1222 l 458 1000 l 597 1000 l 771 1222 l 629 1222 l 528 1100 l 426 1222 z "},"š":{"ha":819,"x_min":0,"x_max":0,"o":"m 76 0 l 549 0 b 743 156 678 0 743 51 l 743 247 b 549 403 743 351 678 403 l 306 403 b 257 442 274 403 257 415 l 257 524 b 306 563 257 550 274 563 l 688 563 l 688 667 l 271 667 b 76 511 142 667 76 615 l 76 454 b 271 299 76 350 142 299 l 514 299 b 563 260 546 299 563 286 l 563 143 b 514 104 563 117 546 104 l 76 104 z m 167 972 l 340 750 l 479 750 l 653 972 l 511 972 l 410 850 l 308 972 z "},"Ţ":{"ha":1042,"x_min":0,"x_max":0,"o":"m 35 799 l 424 799 l 424 0 l 479 0 l 479 -115 b 424 -160 479 -144 461 -160 l 299 -160 l 299 -243 l 486 -243 b 618 -137 574 -243 618 -208 l 618 799 l 1007 799 l 1007 917 l 35 917 z "},"ţ":{"ha":583,"x_min":0,"x_max":0,"o":"m 90 156 b 285 0 90 51 156 0 l 319 0 l 319 -115 b 264 -160 319 -144 301 -160 l 139 -160 l 139 -243 l 326 -243 b 458 -137 414 -243 458 -208 l 458 0 l 521 0 l 521 104 l 319 104 b 271 143 288 104 271 117 l 271 563 l 521 563 l 521 667 l 271 667 l 271 917 l 90 917 z "},"Ť":{"ha":1042,"x_min":0,"x_max":0,"o":"m 35 799 l 424 799 l 424 0 l 618 0 l 618 799 l 1007 799 l 1007 917 l 35 917 z m 278 1222 l 451 1000 l 590 1000 l 764 1222 l 622 1222 l 521 1100 l 419 1222 z "},"ť":{"ha":583,"x_min":0,"x_max":0,"o":"m 90 156 b 285 0 90 51 156 0 l 521 0 l 521 104 l 319 104 b 271 143 288 104 271 117 l 271 563 l 521 563 l 521 667 l 271 667 l 271 917 l 90 917 z m 375 806 l 493 806 l 583 1028 l 424 1028 z "},"Ŧ":{"ha":1042,"x_min":0,"x_max":0,"o":"m 35 799 l 424 799 l 424 542 l 215 542 l 215 438 l 424 438 l 424 0 l 618 0 l 618 438 l 826 438 l 826 542 l 618 542 l 618 799 l 1007 799 l 1007 917 l 35 917 z "},"ŧ":{"ha":611,"x_min":0,"x_max":0,"o":"m 21 306 l 118 306 l 118 156 b 313 0 118 51 183 0 l 549 0 l 549 104 l 347 104 b 299 143 315 104 299 117 l 299 306 l 535 306 l 535 396 l 299 396 l 299 563 l 549 563 l 549 667 l 299 667 l 299 917 l 118 917 l 118 396 l 21 396 z "},"Ũ":{"ha":1125,"x_min":0,"x_max":0,"o":"m 104 167 b 313 0 104 56 174 0 l 813 0 b 1021 167 951 0 1021 56 l 1021 917 l 826 917 l 826 163 b 771 118 826 133 808 118 l 354 118 b 299 163 317 118 299 133 l 299 917 l 104 917 z m 313 1083 l 385 1011 l 461 1088 b 488 1104 472 1099 478 1104 b 513 1089 497 1104 501 1100 l 561 1040 b 639 1000 575 1026 604 1000 b 715 1042 674 1000 701 1028 l 813 1139 l 740 1211 l 664 1135 b 638 1118 653 1124 647 1118 b 613 1133 628 1118 624 1122 l 564 1182 b 486 1222 550 1196 521 1222 b 410 1181 451 1222 424 1194 z "},"ũ":{"ha":917,"x_min":0,"x_max":0,"o":"m 90 156 b 285 0 90 51 156 0 l 826 0 l 826 667 l 646 667 l 646 104 l 319 104 b 271 143 288 104 271 117 l 271 667 l 90 667 z m 208 833 l 281 761 l 357 838 b 383 854 368 849 374 854 b 408 839 393 854 397 850 l 457 790 b 535 750 471 776 500 750 b 611 792 569 750 597 778 l 708 889 l 636 961 l 560 885 b 533 868 549 874 543 868 b 508 883 524 868 519 872 l 460 932 b 382 972 446 946 417 972 b 306 931 347 972 319 944 z "},"Ū":{"ha":1125,"x_min":0,"x_max":0,"o":"m 104 167 b 313 0 104 56 174 0 l 813 0 b 1021 167 951 0 1021 56 l 1021 917 l 826 917 l 826 163 b 771 118 826 133 808 118 l 354 118 b 299 163 317 118 299 133 l 299 917 l 104 917 z m 333 1063 l 792 1063 l 792 1167 l 333 1167 z "},"ū":{"ha":917,"x_min":0,"x_max":0,"o":"m 90 156 b 285 0 90 51 156 0 l 826 0 l 826 667 l 646 667 l 646 104 l 319 104 b 271 143 288 104 271 117 l 271 667 l 90 667 z m 229 813 l 688 813 l 688 917 l 229 917 z "},"Ŭ":{"ha":1125,"x_min":0,"x_max":0,"o":"m 104 167 b 313 0 104 56 174 0 l 813 0 b 1021 167 951 0 1021 56 l 1021 917 l 826 917 l 826 163 b 771 118 826 133 808 118 l 354 118 b 299 163 317 118 299 133 l 299 917 l 104 917 z m 361 1083 b 465 1000 361 1028 396 1000 l 660 1000 b 764 1083 729 1000 764 1028 l 764 1222 l 653 1222 l 653 1093 b 632 1076 653 1082 646 1076 l 493 1076 b 472 1093 479 1076 472 1082 l 472 1222 l 361 1222 z "},"ŭ":{"ha":917,"x_min":0,"x_max":0,"o":"m 90 156 b 285 0 90 51 156 0 l 826 0 l 826 667 l 646 667 l 646 104 l 319 104 b 271 143 288 104 271 117 l 271 667 l 90 667 z m 257 833 b 361 750 257 778 292 750 l 556 750 b 660 833 625 750 660 778 l 660 972 l 549 972 l 549 843 b 528 826 549 832 542 826 l 389 826 b 368 843 375 826 368 832 l 368 972 l 257 972 z "},"Ů":{"ha":1125,"x_min":0,"x_max":0,"o":"m 104 167 b 313 0 104 56 174 0 l 813 0 b 1021 167 951 0 1021 56 l 1021 917 l 826 917 l 826 163 b 771 118 826 133 808 118 l 354 118 b 299 163 317 118 299 133 l 299 917 l 104 917 z m 375 1042 b 479 958 375 986 410 958 l 646 958 b 750 1042 715 958 750 986 l 750 1153 b 646 1236 750 1208 715 1236 l 479 1236 b 375 1153 410 1236 375 1208 z m 486 1044 l 486 1150 b 507 1167 486 1161 493 1167 l 618 1167 b 639 1150 632 1167 639 1161 l 639 1044 b 618 1028 639 1033 632 1028 l 507 1028 b 486 1044 493 1028 486 1033 z "},"ů":{"ha":917,"x_min":0,"x_max":0,"o":"m 90 156 b 285 0 90 51 156 0 l 826 0 l 826 667 l 646 667 l 646 104 l 319 104 b 271 143 288 104 271 117 l 271 667 l 90 667 z m 271 833 b 375 750 271 778 306 750 l 542 750 b 646 833 611 750 646 778 l 646 944 b 542 1028 646 1000 611 1028 l 375 1028 b 271 944 306 1028 271 1000 z m 382 836 l 382 942 b 403 958 382 953 389 958 l 514 958 b 535 942 528 958 535 953 l 535 836 b 514 819 535 825 528 819 l 403 819 b 382 836 389 819 382 825 z "},"Ű":{"ha":1125,"x_min":0,"x_max":0,"o":"m 104 167 b 313 0 104 56 174 0 l 813 0 b 1021 167 951 0 1021 56 l 1021 917 l 826 917 l 826 163 b 771 118 826 133 808 118 l 354 118 b 299 163 317 118 299 133 l 299 917 l 104 917 z m 340 1000 l 465 1000 l 646 1222 l 479 1222 z m 604 1000 l 729 1000 l 910 1222 l 743 1222 z "},"ű":{"ha":917,"x_min":0,"x_max":0,"o":"m 90 156 b 285 0 90 51 156 0 l 826 0 l 826 667 l 646 667 l 646 104 l 319 104 b 271 143 288 104 271 117 l 271 667 l 90 667 z m 236 750 l 361 750 l 542 972 l 375 972 z m 500 750 l 625 750 l 806 972 l 639 972 z "},"Ų":{"ha":1125,"x_min":0,"x_max":0,"o":"m 104 167 b 313 0 104 56 174 0 l 576 0 l 576 -137 b 708 -243 576 -208 621 -243 l 882 -243 l 882 -160 l 771 -160 b 715 -115 733 -160 715 -144 l 715 -44 b 771 0 715 -15 733 0 l 813 0 b 1021 167 951 0 1021 56 l 1021 917 l 826 917 l 826 163 b 771 118 826 133 808 118 l 354 118 b 299 163 317 118 299 133 l 299 917 l 104 917 z "},"ų":{"ha":917,"x_min":0,"x_max":0,"o":"m 90 156 b 285 0 90 51 156 0 l 521 0 l 521 -137 b 653 -243 521 -208 565 -243 l 826 -243 l 826 -160 l 715 -160 b 660 -115 678 -160 660 -144 l 660 -44 b 715 0 660 -15 678 0 l 826 0 l 826 667 l 646 667 l 646 104 l 319 104 b 271 143 288 104 271 117 l 271 667 l 90 667 z "},"Ŵ":{"ha":1611,"x_min":0,"x_max":0,"o":"m 28 917 l 313 0 l 569 0 l 806 699 l 1042 0 l 1299 0 l 1583 917 l 1389 917 l 1163 189 l 917 917 l 694 917 l 449 189 l 222 917 z m 563 1000 l 704 1000 l 806 1122 l 907 1000 l 1049 1000 l 875 1222 l 736 1222 z "},"ŵ":{"ha":1236,"x_min":0,"x_max":0,"o":"m 21 667 l 250 0 l 451 0 l 618 485 l 785 0 l 986 0 l 1215 667 l 1042 667 l 875 181 l 708 667 l 528 667 l 361 181 l 194 667 z m 375 750 l 517 750 l 618 872 l 719 750 l 861 750 l 688 972 l 549 972 z "},"Ŷ":{"ha":1083,"x_min":0,"x_max":0,"o":"m 14 917 l 444 347 l 444 0 l 639 0 l 639 347 l 1069 917 l 853 917 l 542 504 l 231 917 z m 299 1000 l 440 1000 l 542 1122 l 643 1000 l 785 1000 l 611 1222 l 472 1222 z "},"ŷ":{"ha":889,"x_min":0,"x_max":0,"o":"m 21 667 l 353 -11 l 217 -292 l 399 -292 l 868 667 l 686 667 l 444 174 l 203 667 z m 201 750 l 343 750 l 444 872 l 546 750 l 688 750 l 514 972 l 375 972 z "},"Ÿ":{"ha":1083,"x_min":0,"x_max":0,"o":"m 14 917 l 444 347 l 444 0 l 639 0 l 639 347 l 1069 917 l 853 917 l 542 504 l 231 917 z m 313 1042 l 472 1042 l 472 1181 l 313 1181 z m 611 1042 l 771 1042 l 771 1181 l 611 1181 z "},"Ź":{"ha":1014,"x_min":0,"x_max":0,"o":"m 63 0 l 951 0 l 951 118 l 299 118 l 938 799 l 938 917 l 76 917 l 76 799 l 701 799 l 63 118 z m 396 1000 l 535 1000 l 729 1222 l 549 1222 z "},"ź":{"ha":833,"x_min":0,"x_max":0,"o":"m 63 0 l 771 0 l 771 104 l 286 104 l 757 563 l 757 667 l 76 667 l 76 563 l 533 563 l 63 104 z m 306 750 l 444 750 l 639 972 l 458 972 z "},"Ż":{"ha":1014,"x_min":0,"x_max":0,"o":"m 63 0 l 951 0 l 951 118 l 299 118 l 938 799 l 938 917 l 76 917 l 76 799 l 701 799 l 63 118 z m 417 1042 l 597 1042 l 597 1181 l 417 1181 z "},"ż":{"ha":833,"x_min":0,"x_max":0,"o":"m 63 0 l 771 0 l 771 104 l 286 104 l 757 563 l 757 667 l 76 667 l 76 563 l 533 563 l 63 104 z m 326 792 l 507 792 l 507 931 l 326 931 z "},"Ž":{"ha":1014,"x_min":0,"x_max":0,"o":"m 63 0 l 951 0 l 951 118 l 299 118 l 938 799 l 938 917 l 76 917 l 76 799 l 701 799 l 63 118 z m 264 1222 l 438 1000 l 576 1000 l 750 1222 l 608 1222 l 507 1100 l 406 1222 z "},"ž":{"ha":833,"x_min":0,"x_max":0,"o":"m 63 0 l 771 0 l 771 104 l 286 104 l 757 563 l 757 667 l 76 667 l 76 563 l 533 563 l 63 104 z m 174 972 l 347 750 l 486 750 l 660 972 l 518 972 l 417 850 l 315 972 z "},"ƒ":{"ha":986,"x_min":0,"x_max":0,"o":"m 132 -187 l 132 -292 l 340 -292 b 535 -136 469 -292 535 -240 l 535 563 l 785 563 l 785 667 l 535 667 l 535 774 b 583 813 535 800 551 813 l 785 813 l 785 917 l 549 917 b 354 761 419 917 354 865 l 354 -149 b 306 -187 354 -175 338 -187 z "},"Ǻ":{"ha":1111,"x_min":0,"x_max":0,"o":"m 14 0 l 211 0 l 318 229 l 793 229 l 900 0 l 1097 0 l 667 917 l 444 917 z m 368 1042 b 472 958 368 986 403 958 l 639 958 b 743 1042 708 958 743 986 l 743 1153 b 639 1236 743 1208 708 1236 l 472 1236 b 368 1153 403 1236 368 1208 z m 374 347 l 556 736 l 738 347 z m 479 1044 l 479 1150 b 500 1167 479 1161 486 1167 l 611 1167 b 632 1150 625 1167 632 1161 l 632 1044 b 611 1028 632 1033 625 1028 l 500 1028 b 479 1044 486 1028 479 1033 z m 785 1014 l 924 1014 l 1118 1236 l 938 1236 z "},"ǻ":{"ha":875,"x_min":0,"x_max":0,"o":"m 76 156 b 271 0 76 51 142 0 l 785 0 l 785 511 b 590 667 785 615 719 667 l 132 667 l 132 563 l 556 563 b 604 524 588 563 604 550 l 604 403 l 271 403 b 76 247 142 403 76 351 z m 250 833 b 354 750 250 778 285 750 l 521 750 b 625 833 590 750 625 778 l 625 944 b 521 1028 625 1000 590 1028 l 471 1028 l 653 1236 l 472 1236 l 328 1026 b 250 944 276 1019 250 993 z m 257 143 l 257 260 b 306 299 257 286 274 299 l 604 299 l 604 104 l 306 104 b 257 143 274 104 257 117 z m 361 836 l 361 942 b 382 958 361 953 368 958 l 493 958 b 514 942 507 958 514 953 l 514 836 b 493 819 514 825 507 819 l 382 819 b 361 836 368 819 361 825 z "},"Ǽ":{"ha":1583,"x_min":0,"x_max":0,"o":"m 14 0 l 211 0 l 318 229 l 701 229 l 701 0 l 1507 0 l 1507 118 l 896 118 l 896 431 l 1438 431 l 1438 549 l 896 549 l 896 799 l 1507 799 l 1507 917 l 444 917 z m 374 347 l 585 799 l 701 799 l 701 347 z m 701 1000 l 840 1000 l 1035 1222 l 854 1222 z "},"ǽ":{"ha":1403,"x_min":0,"x_max":0,"o":"m 76 156 b 271 0 76 51 142 0 l 1285 0 l 1285 104 l 833 104 b 785 143 801 104 785 117 l 785 299 l 1313 299 l 1313 511 b 1118 667 1313 615 1247 667 l 132 667 l 132 563 l 556 563 b 604 524 588 563 604 550 l 604 403 l 271 403 b 76 247 142 403 76 351 z m 257 143 l 257 260 b 306 299 257 286 274 299 l 604 299 l 604 104 l 306 104 b 257 143 274 104 257 117 z m 583 750 l 722 750 l 917 972 l 736 972 z m 785 403 l 785 524 b 833 563 785 550 801 563 l 1083 563 b 1132 524 1115 563 1132 550 l 1132 403 z "},"Ǿ":{"ha":1125,"x_min":0,"x_max":0,"o":"m 104 167 b 313 0 104 56 174 0 l 813 0 b 1021 167 951 0 1021 56 l 1021 750 b 813 917 1021 861 951 917 l 313 917 b 104 750 174 917 104 861 z m 299 246 l 299 754 b 354 799 299 783 317 799 l 771 799 z m 354 118 l 826 671 l 826 163 b 771 118 826 133 808 118 z m 451 1000 l 590 1000 l 785 1222 l 604 1222 z "},"ǿ":{"ha":917,"x_min":0,"x_max":0,"o":"m 90 156 b 285 0 90 51 156 0 l 632 0 b 826 156 761 0 826 51 l 826 511 b 632 667 826 615 761 667 l 285 667 b 90 511 156 667 90 615 z m 271 208 l 271 524 b 319 563 271 550 288 563 l 590 563 z m 326 104 l 646 458 l 646 143 b 597 104 646 117 629 104 z m 347 750 l 486 750 l 681 972 l 500 972 z "},"Ș":{"ha":1056,"x_min":0,"x_max":0,"o":"m 90 0 l 757 0 b 965 167 896 0 965 56 l 965 382 b 757 549 965 493 896 549 l 340 549 b 285 593 303 549 285 564 l 285 754 b 340 799 285 783 303 799 l 896 799 l 896 917 l 299 917 b 90 750 160 917 90 861 l 90 597 b 299 431 90 486 160 431 l 715 431 b 771 386 753 431 771 415 l 771 163 b 715 118 771 133 753 118 l 90 118 z m 424 -292 l 542 -292 l 632 -69 l 472 -69 z "},"ș":{"ha":819,"x_min":0,"x_max":0,"o":"m 76 0 l 549 0 b 743 156 678 0 743 51 l 743 247 b 549 403 743 351 678 403 l 306 403 b 257 442 274 403 257 415 l 257 524 b 306 563 257 550 274 563 l 688 563 l 688 667 l 271 667 b 76 511 142 667 76 615 l 76 454 b 271 299 76 350 142 299 l 514 299 b 563 260 546 299 563 286 l 563 143 b 514 104 563 117 546 104 l 76 104 z m 306 -292 l 424 -292 l 514 -69 l 354 -69 z "},"Ț":{"ha":1042,"x_min":0,"x_max":0,"o":"m 35 799 l 424 799 l 424 0 l 618 0 l 618 799 l 1007 799 l 1007 917 l 35 917 z m 396 -292 l 514 -292 l 604 -69 l 444 -69 z "},"ț":{"ha":583,"x_min":0,"x_max":0,"o":"m 90 156 b 285 0 90 51 156 0 l 521 0 l 521 104 l 319 104 b 271 143 288 104 271 117 l 271 563 l 521 563 l 521 667 l 271 667 l 271 917 l 90 917 z m 222 -292 l 340 -292 l 431 -69 l 271 -69 z "},"ȷ":{"ha":361,"x_min":0,"x_max":0,"o":"m -76 -187 l -76 -292 l 76 -292 b 271 -136 206 -292 271 -240 l 271 667 l 90 667 l 90 -137 b 28 -187 90 -171 69 -187 z "},"ˆ":{"ha":694,"x_min":0,"x_max":0,"o":"m 104 750 l 246 750 l 347 872 l 449 750 l 590 750 l 417 972 l 278 972 z "},"ˇ":{"ha":694,"x_min":0,"x_max":0,"o":"m 104 972 l 278 750 l 417 750 l 590 972 l 449 972 l 347 850 l 246 972 z "},"ˉ":{"ha":694,"x_min":0,"x_max":0,"o":"m 118 813 l 576 813 l 576 917 l 118 917 z "},"˘":{"ha":694,"x_min":0,"x_max":0,"o":"m 146 833 b 250 750 146 778 181 750 l 444 750 b 549 833 514 750 549 778 l 549 972 l 438 972 l 438 843 b 417 826 438 832 431 826 l 278 826 b 257 843 264 826 257 832 l 257 972 l 146 972 z "},"˙":{"ha":694,"x_min":0,"x_max":0,"o":"m 257 792 l 438 792 l 438 931 l 257 931 z "},"˚":{"ha":694,"x_min":0,"x_max":0,"o":"m 160 833 b 264 750 160 778 194 750 l 431 750 b 535 833 500 750 535 778 l 535 944 b 431 1028 535 1000 500 1028 l 264 1028 b 160 944 194 1028 160 1000 z m 271 836 l 271 942 b 292 958 271 953 278 958 l 403 958 b 424 942 417 958 424 953 l 424 836 b 403 819 424 825 417 819 l 292 819 b 271 836 278 819 271 825 z "},"˛":{"ha":694,"x_min":0,"x_max":0,"o":"m 194 0 l 194 -137 b 326 -243 194 -208 239 -243 l 500 -243 l 500 -160 l 389 -160 b 333 -115 351 -160 333 -144 l 333 -44 b 389 0 333 -15 351 0 l 278 83 b 194 0 218 74 194 32 z "},"˜":{"ha":694,"x_min":0,"x_max":0,"o":"m 97 833 l 169 761 l 246 838 b 272 854 257 849 263 854 b 297 839 282 854 286 850 l 346 790 b 424 750 360 776 389 750 b 500 792 458 750 486 778 l 597 889 l 525 961 l 449 885 b 422 868 438 874 432 868 b 397 883 413 868 408 872 l 349 932 b 271 972 335 946 306 972 b 194 931 236 972 208 944 z "},"˝":{"ha":694,"x_min":0,"x_max":0,"o":"m 125 750 l 250 750 l 431 972 l 264 972 z m 389 750 l 514 750 l 694 972 l 528 972 z "},"ͺ":{"ha":694,"x_min":0,"x_max":0,"o":"m 278 -69 l 278 -292 l 417 -292 l 417 -69 z "},";":{"ha":417,"x_min":0,"x_max":0,"o":"m 21 -181 l 160 -181 l 299 167 l 111 167 z m 111 500 l 306 500 l 306 667 l 111 667 z "},"΄":{"ha":694,"x_min":0,"x_max":0,"o":"m 236 750 l 375 750 l 569 972 l 389 972 z "},"΅":{"ha":694,"x_min":0,"x_max":0,"o":"m 118 792 l 278 792 l 278 931 l 118 931 z m 236 1000 l 375 1000 l 569 1222 l 389 1222 z m 417 792 l 576 792 l 576 931 l 417 931 z "},"Ά":{"ha":1111,"x_min":0,"x_max":0,"o":"m 14 0 l 211 0 l 318 229 l 793 229 l 900 0 l 1097 0 l 667 917 l 444 917 z m 14 694 l 153 694 l 347 917 l 167 917 z m 374 347 l 556 736 l 738 347 z "},"·":{"ha":417,"x_min":0,"x_max":0,"o":"m 111 500 l 306 500 l 306 667 l 111 667 z "},"Έ":{"ha":1278,"x_min":0,"x_max":0,"o":"m -21 694 l 118 694 l 313 917 l 132 917 z m 354 0 l 1201 0 l 1201 118 l 549 118 l 549 431 l 1132 431 l 1132 549 l 549 549 l 549 799 l 1201 799 l 1201 917 l 354 917 z "},"Ή":{"ha":1375,"x_min":0,"x_max":0,"o":"m -21 694 l 118 694 l 313 917 l 132 917 z m 354 0 l 549 0 l 549 431 l 1076 431 l 1076 0 l 1271 0 l 1271 917 l 1076 917 l 1076 549 l 549 549 l 549 917 l 354 917 z "},"Ί":{"ha":653,"x_min":0,"x_max":0,"o":"m -21 694 l 118 694 l 313 917 l 132 917 z m 354 0 l 549 0 l 549 917 l 354 917 z "},"Ό":{"ha":1333,"x_min":0,"x_max":0,"o":"m -21 694 l 118 694 l 313 917 l 132 917 z m 313 167 b 521 0 313 56 382 0 l 1021 0 b 1229 167 1160 0 1229 56 l 1229 750 b 1021 917 1229 861 1160 917 l 521 917 b 313 750 382 917 313 861 z m 507 163 l 507 754 b 563 799 507 783 525 799 l 979 799 b 1035 754 1017 799 1035 783 l 1035 163 b 979 118 1035 133 1017 118 l 563 118 b 507 163 525 118 507 133 z "},"Ύ":{"ha":1403,"x_min":0,"x_max":0,"o":"m -21 694 l 118 694 l 313 917 l 132 917 z m 333 917 l 764 347 l 764 0 l 958 0 l 958 347 l 1389 917 l 1172 917 l 861 504 l 550 917 z "},"Ώ":{"ha":1333,"x_min":0,"x_max":0,"o":"m -21 694 l 118 694 l 313 917 l 132 917 z m 285 0 l 681 0 l 681 132 l 525 313 b 507 363 517 322 507 335 l 507 754 b 563 799 507 783 525 799 l 979 799 b 1035 754 1017 799 1035 783 l 1035 363 b 1017 313 1035 335 1025 322 l 861 132 l 861 0 l 1257 0 l 1257 118 l 1065 118 l 1189 261 b 1229 378 1215 292 1229 317 l 1229 750 b 1021 917 1229 861 1160 917 l 521 917 b 313 750 382 917 313 861 l 313 378 b 353 261 313 317 326 292 l 476 118 l 285 118 z "},"ΐ":{"ha":389,"x_min":0,"x_max":0,"o":"m -35 792 l 125 792 l 125 931 l -35 931 z m 83 1000 l 222 1000 l 417 1222 l 236 1222 z m 104 0 l 285 0 l 285 667 l 104 667 z m 264 792 l 424 792 l 424 931 l 264 931 z "},"Α":{"ha":1111,"x_min":0,"x_max":0,"o":"m 14 0 l 211 0 l 318 229 l 793 229 l 900 0 l 1097 0 l 667 917 l 444 917 z m 374 347 l 556 736 l 738 347 z "},"Β":{"ha":1083,"x_min":0,"x_max":0,"o":"m 104 0 l 785 0 b 993 167 924 0 993 56 l 993 340 b 889 493 993 419 958 469 b 979 640 949 518 979 567 l 979 750 b 771 917 979 861 910 917 l 104 917 z m 299 118 l 299 431 l 743 431 b 799 386 781 431 799 415 l 799 163 b 743 118 799 133 781 118 z m 299 549 l 299 799 l 729 799 b 785 754 767 799 785 783 l 785 593 b 729 549 785 564 767 549 z "},"Γ":{"ha":903,"x_min":0,"x_max":0,"o":"m 104 0 l 299 0 l 299 799 l 868 799 l 868 917 l 104 917 z "},"Δ":{"ha":1111,"x_min":0,"x_max":0,"o":"m 14 0 l 1097 0 l 667 917 l 444 917 z m 272 118 l 556 722 l 839 118 z "},"Ε":{"ha":1028,"x_min":0,"x_max":0,"o":"m 104 0 l 951 0 l 951 118 l 299 118 l 299 431 l 882 431 l 882 549 l 299 549 l 299 799 l 951 799 l 951 917 l 104 917 z "},"Ζ":{"ha":1014,"x_min":0,"x_max":0,"o":"m 63 0 l 951 0 l 951 118 l 299 118 l 938 799 l 938 917 l 76 917 l 76 799 l 701 799 l 63 118 z "},"Η":{"ha":1125,"x_min":0,"x_max":0,"o":"m 104 0 l 299 0 l 299 431 l 826 431 l 826 0 l 1021 0 l 1021 917 l 826 917 l 826 549 l 299 549 l 299 917 l 104 917 z "},"Θ":{"ha":1125,"x_min":0,"x_max":0,"o":"m 104 167 b 313 0 104 56 174 0 l 813 0 b 1021 167 951 0 1021 56 l 1021 750 b 813 917 1021 861 951 917 l 313 917 b 104 750 174 917 104 861 z m 299 163 l 299 754 b 354 799 299 783 317 799 l 771 799 b 826 754 808 799 826 783 l 826 163 b 771 118 826 133 808 118 l 354 118 b 299 163 317 118 299 133 z m 389 431 l 736 431 l 736 549 l 389 549 z "},"Ι":{"ha":403,"x_min":0,"x_max":0,"o":"m 104 0 l 299 0 l 299 917 l 104 917 z "},"Κ":{"ha":1028,"x_min":0,"x_max":0,"o":"m 104 0 l 299 0 l 299 243 l 469 408 l 785 0 l 1007 0 l 596 532 l 993 917 l 754 917 l 299 475 l 299 917 l 104 917 z "},"Λ":{"ha":1111,"x_min":0,"x_max":0,"o":"m 14 0 l 217 0 l 556 722 l 894 0 l 1097 0 l 667 917 l 444 917 z "},"Μ":{"ha":1403,"x_min":0,"x_max":0,"o":"m 104 0 l 299 0 l 299 640 l 604 0 l 799 0 l 1104 640 l 1104 0 l 1299 0 l 1299 917 l 1049 917 l 701 189 l 354 917 l 104 917 z "},"Ν":{"ha":1139,"x_min":0,"x_max":0,"o":"m 104 0 l 299 0 l 299 678 l 813 0 l 1035 0 l 1035 917 l 840 917 l 840 239 l 326 917 l 104 917 z "},"Ξ":{"ha":1014,"x_min":0,"x_max":0,"o":"m 76 0 l 938 0 l 938 132 l 76 132 z m 76 785 l 938 785 l 938 917 l 76 917 z m 174 424 l 840 424 l 840 556 l 174 556 z "},"Ο":{"ha":1125,"x_min":0,"x_max":0,"o":"m 104 167 b 313 0 104 56 174 0 l 813 0 b 1021 167 951 0 1021 56 l 1021 750 b 813 917 1021 861 951 917 l 313 917 b 104 750 174 917 104 861 z m 299 163 l 299 754 b 354 799 299 783 317 799 l 771 799 b 826 754 808 799 826 783 l 826 163 b 771 118 826 133 808 118 l 354 118 b 299 163 317 118 299 133 z "},"Π":{"ha":1125,"x_min":0,"x_max":0,"o":"m 104 0 l 299 0 l 299 799 l 826 799 l 826 0 l 1021 0 l 1021 917 l 104 917 z "},"Ρ":{"ha":1056,"x_min":0,"x_max":0,"o":"m 104 0 l 299 0 l 299 361 l 771 361 b 979 528 910 361 979 417 l 979 750 b 771 917 979 861 910 917 l 104 917 z m 299 479 l 299 799 l 729 799 b 785 754 767 799 785 783 l 785 524 b 729 479 785 494 767 479 z "},"Σ":{"ha":1000,"x_min":0,"x_max":0,"o":"m 76 0 l 924 0 l 924 118 l 303 118 l 618 472 l 310 799 l 924 799 l 924 917 l 76 917 l 76 799 l 389 469 l 76 118 z "},"Τ":{"ha":1042,"x_min":0,"x_max":0,"o":"m 35 799 l 424 799 l 424 0 l 618 0 l 618 799 l 1007 799 l 1007 917 l 35 917 z "},"Υ":{"ha":1083,"x_min":0,"x_max":0,"o":"m 14 917 l 444 347 l 444 0 l 639 0 l 639 347 l 1069 917 l 853 917 l 542 504 l 231 917 z "},"Φ":{"ha":1319,"x_min":0,"x_max":0,"o":"m 90 271 b 299 104 90 160 160 104 l 563 104 l 563 0 l 757 0 l 757 104 l 1021 104 b 1229 271 1160 104 1229 160 l 1229 646 b 1021 813 1229 757 1160 813 l 757 813 l 757 917 l 563 917 l 563 813 l 299 813 b 90 646 160 813 90 757 z m 285 267 l 285 650 b 340 694 285 679 303 694 l 563 694 l 563 222 l 340 222 b 285 267 303 222 285 238 z m 757 222 l 757 694 l 979 694 b 1035 650 1017 694 1035 679 l 1035 267 b 979 222 1035 238 1017 222 z "},"Χ":{"ha":1069,"x_min":0,"x_max":0,"o":"m 21 0 l 244 0 l 535 338 l 825 0 l 1049 0 l 647 467 l 1035 917 l 811 917 l 535 596 l 258 917 l 35 917 l 422 467 z "},"Ψ":{"ha":1319,"x_min":0,"x_max":0,"o":"m 90 403 b 299 236 90 292 160 236 l 563 236 l 563 0 l 757 0 l 757 236 l 1021 236 b 1229 403 1160 236 1229 292 l 1229 917 l 1035 917 l 1035 399 b 979 354 1035 369 1017 354 l 757 354 l 757 917 l 563 917 l 563 354 l 340 354 b 285 399 303 354 285 369 l 285 917 l 90 917 z "},"Ω":{"ha":1125,"x_min":0,"x_max":0,"o":"m 76 0 l 472 0 l 472 132 l 317 313 b 299 363 308 322 299 335 l 299 754 b 354 799 299 783 317 799 l 771 799 b 826 754 808 799 826 783 l 826 363 b 808 313 826 335 817 322 l 653 132 l 653 0 l 1049 0 l 1049 118 l 857 118 l 981 261 b 1021 378 1007 292 1021 317 l 1021 750 b 813 917 1021 861 951 917 l 313 917 b 104 750 174 917 104 861 l 104 378 b 144 261 104 317 118 292 l 268 118 l 76 118 z "},"Ϊ":{"ha":403,"x_min":0,"x_max":0,"o":"m -28 1042 l 132 1042 l 132 1181 l -28 1181 z m 104 0 l 299 0 l 299 917 l 104 917 z m 271 1042 l 431 1042 l 431 1181 l 271 1181 z "},"Ϋ":{"ha":1083,"x_min":0,"x_max":0,"o":"m 14 917 l 444 347 l 444 0 l 639 0 l 639 347 l 1069 917 l 853 917 l 542 504 l 231 917 z m 313 1042 l 472 1042 l 472 1181 l 313 1181 z m 611 1042 l 771 1042 l 771 1181 l 611 1181 z "},"ά":{"ha":1000,"x_min":0,"x_max":0,"o":"m 76 250 b 389 0 76 83 181 0 l 965 0 l 965 104 l 813 104 l 813 667 l 389 667 b 76 417 181 667 76 583 z m 257 249 l 257 418 b 438 563 257 514 317 563 l 632 563 l 632 104 l 438 104 b 257 249 317 104 257 153 z m 389 750 l 528 750 l 722 972 l 542 972 z "},"έ":{"ha":806,"x_min":0,"x_max":0,"o":"m 90 156 b 285 0 90 51 156 0 l 743 0 l 743 104 l 319 104 b 271 143 288 104 271 117 l 271 260 b 319 299 271 286 288 299 l 646 299 l 646 403 l 319 403 b 271 442 288 403 271 415 l 271 524 b 319 563 271 550 288 563 l 743 563 l 743 667 l 285 667 b 90 503 143 667 90 606 b 181 354 90 439 107 385 b 90 215 110 328 90 271 z m 319 750 l 458 750 l 653 972 l 472 972 z "},"ή":{"ha":917,"x_min":0,"x_max":0,"o":"m 90 0 l 271 0 l 271 563 l 597 563 b 646 524 629 563 646 550 l 646 -292 l 826 -292 l 826 511 b 632 667 826 615 761 667 l 90 667 z m 347 750 l 486 750 l 681 972 l 500 972 z "},"ί":{"ha":361,"x_min":0,"x_max":0,"o":"m 63 750 l 201 750 l 396 972 l 215 972 z m 90 0 l 271 0 l 271 667 l 90 667 z "},"ΰ":{"ha":917,"x_min":0,"x_max":0,"o":"m 90 156 b 285 0 90 51 156 0 l 632 0 b 826 156 761 0 826 51 l 826 667 l 646 667 l 646 143 b 597 104 646 117 629 104 l 319 104 b 271 143 288 104 271 117 l 271 667 l 90 667 z m 229 792 l 389 792 l 389 931 l 229 931 z m 347 1000 l 486 1000 l 681 1222 l 500 1222 z m 528 792 l 688 792 l 688 931 l 528 931 z "},"α":{"ha":1000,"x_min":0,"x_max":0,"o":"m 76 250 b 389 0 76 83 181 0 l 965 0 l 965 104 l 813 104 l 813 667 l 389 667 b 76 417 181 667 76 583 z m 257 249 l 257 418 b 438 563 257 514 317 563 l 632 563 l 632 104 l 438 104 b 257 249 317 104 257 153 z "},"β":{"ha":917,"x_min":0,"x_max":0,"o":"m 90 -292 l 271 -292 l 271 0 l 632 0 b 826 156 761 0 826 51 l 826 354 b 715 500 826 413 806 476 b 785 632 768 529 785 576 l 785 761 b 590 917 785 865 719 917 l 285 917 b 90 761 156 917 90 865 z m 271 104 l 271 774 b 319 813 271 800 288 813 l 556 813 b 604 774 588 813 604 800 l 604 581 b 556 542 604 554 588 542 l 410 542 l 410 438 l 597 438 b 646 399 629 438 646 425 l 646 143 b 597 104 646 117 629 104 z "},"γ":{"ha":889,"x_min":0,"x_max":0,"o":"m 21 667 l 354 -14 l 354 -292 l 535 -292 l 535 -14 l 868 667 l 686 667 l 444 174 l 203 667 z "},"δ":{"ha":917,"x_min":0,"x_max":0,"o":"m 90 156 b 285 0 90 51 156 0 l 632 0 b 826 156 761 0 826 51 l 826 451 b 704 633 826 535 797 572 l 432 813 l 778 813 l 778 917 l 181 917 l 181 813 l 528 583 l 285 583 b 90 428 156 583 90 532 z m 271 143 l 271 440 b 319 479 271 467 288 479 l 646 479 l 646 143 b 597 104 646 117 629 104 l 319 104 b 271 143 288 104 271 117 z "},"ε":{"ha":806,"x_min":0,"x_max":0,"o":"m 90 156 b 285 0 90 51 156 0 l 743 0 l 743 104 l 319 104 b 271 143 288 104 271 117 l 271 260 b 319 299 271 286 288 299 l 646 299 l 646 403 l 319 403 b 271 442 288 403 271 415 l 271 524 b 319 563 271 550 288 563 l 743 563 l 743 667 l 285 667 b 90 503 143 667 90 606 b 181 354 90 439 107 385 b 90 215 110 328 90 271 z "},"ζ":{"ha":833,"x_min":0,"x_max":0,"o":"m 90 156 b 285 0 90 51 156 0 l 618 0 l 618 -222 l 771 -222 l 771 104 l 319 104 b 271 143 288 104 271 117 l 271 428 b 294 471 271 446 279 460 l 757 813 l 757 917 l 132 917 l 132 813 l 515 813 l 188 571 b 90 419 111 514 90 481 z "},"η":{"ha":917,"x_min":0,"x_max":0,"o":"m 90 0 l 271 0 l 271 563 l 597 563 b 646 524 629 563 646 550 l 646 -292 l 826 -292 l 826 511 b 632 667 826 615 761 667 l 90 667 z "},"θ":{"ha":917,"x_min":0,"x_max":0,"o":"m 90 156 b 285 0 90 51 156 0 l 632 0 b 826 156 761 0 826 51 l 826 761 b 632 917 826 865 761 917 l 285 917 b 90 761 156 917 90 865 z m 271 143 l 271 438 l 646 438 l 646 143 b 597 104 646 117 629 104 l 319 104 b 271 143 288 104 271 117 z m 271 542 l 271 774 b 319 813 271 800 288 813 l 597 813 b 646 774 629 813 646 800 l 646 542 z "},"ι":{"ha":361,"x_min":0,"x_max":0,"o":"m 90 0 l 271 0 l 271 667 l 90 667 z "},"κ":{"ha":833,"x_min":0,"x_max":0,"o":"m 90 0 l 271 0 l 271 153 l 399 276 l 615 0 l 813 0 l 511 386 l 799 667 l 581 667 l 271 365 l 271 667 l 90 667 z "},"λ":{"ha":847,"x_min":0,"x_max":0,"o":"m 21 0 l 203 0 l 424 451 l 644 0 l 826 0 l 378 917 l 196 917 l 332 636 z "},"μ":{"ha":917,"x_min":0,"x_max":0,"o":"m 90 -292 l 271 -292 l 271 0 l 632 0 b 826 156 761 0 826 51 l 826 667 l 646 667 l 646 143 b 597 104 646 117 629 104 l 271 104 l 271 667 l 90 667 z "},"ν":{"ha":889,"x_min":0,"x_max":0,"o":"m 21 667 l 347 0 l 542 0 l 868 667 l 686 667 l 444 174 l 203 667 z "},"ξ":{"ha":833,"x_min":0,"x_max":0,"o":"m 90 156 b 285 0 90 51 156 0 l 618 0 l 618 -222 l 771 -222 l 771 104 l 319 104 b 271 143 288 104 271 117 l 271 399 b 319 438 271 425 288 438 l 674 438 l 674 542 l 319 542 b 271 581 288 542 271 554 l 271 774 b 319 813 271 800 288 813 l 771 813 l 771 917 l 285 917 b 90 761 156 917 90 865 l 90 632 b 181 493 90 576 110 519 b 90 354 110 467 90 410 z "},"ο":{"ha":917,"x_min":0,"x_max":0,"o":"m 90 156 b 285 0 90 51 156 0 l 632 0 b 826 156 761 0 826 51 l 826 511 b 632 667 826 615 761 667 l 285 667 b 90 511 156 667 90 615 z m 271 143 l 271 524 b 319 563 271 550 288 563 l 597 563 b 646 524 629 563 646 550 l 646 143 b 597 104 646 117 629 104 l 319 104 b 271 143 288 104 271 117 z "},"π":{"ha":917,"x_min":0,"x_max":0,"o":"m 90 0 l 271 0 l 271 563 l 646 563 l 646 0 l 826 0 l 826 667 l 90 667 z "},"ρ":{"ha":917,"x_min":0,"x_max":0,"o":"m 90 -292 l 271 -292 l 271 0 l 632 0 b 826 156 761 0 826 51 l 826 511 b 632 667 826 615 761 667 l 285 667 b 90 511 156 667 90 615 z m 271 104 l 271 524 b 319 563 271 550 288 563 l 597 563 b 646 524 629 563 646 550 l 646 143 b 597 104 646 117 629 104 z "},"ς":{"ha":833,"x_min":0,"x_max":0,"o":"m 90 156 b 285 0 90 51 156 0 l 618 0 l 618 -222 l 771 -222 l 771 104 l 319 104 b 271 143 288 104 271 117 l 271 524 b 319 563 271 550 288 563 l 771 563 l 771 667 l 285 667 b 90 511 156 667 90 615 z "},"σ":{"ha":1056,"x_min":0,"x_max":0,"o":"m 90 156 b 285 0 90 51 156 0 l 632 0 b 826 156 761 0 826 51 l 826 563 l 1007 563 l 1007 667 l 285 667 b 90 511 156 667 90 615 z m 271 143 l 271 524 b 319 563 271 550 288 563 l 646 563 l 646 143 b 597 104 646 117 629 104 l 319 104 b 271 143 288 104 271 117 z "},"τ":{"ha":861,"x_min":0,"x_max":0,"o":"m 49 563 l 340 563 l 340 0 l 521 0 l 521 563 l 813 563 l 813 667 l 49 667 z "},"υ":{"ha":917,"x_min":0,"x_max":0,"o":"m 90 156 b 285 0 90 51 156 0 l 632 0 b 826 156 761 0 826 51 l 826 667 l 646 667 l 646 143 b 597 104 646 117 629 104 l 319 104 b 271 143 288 104 271 117 l 271 667 l 90 667 z "},"φ":{"ha":1194,"x_min":0,"x_max":0,"o":"m 90 156 b 285 0 90 51 156 0 l 507 0 l 507 -292 l 688 -292 l 688 0 l 910 0 b 1104 156 1039 0 1104 51 l 1104 511 b 910 667 1104 615 1039 667 l 507 667 l 507 104 l 319 104 b 271 143 288 104 271 117 l 271 667 l 90 667 z m 688 104 l 688 563 l 875 563 b 924 524 907 563 924 550 l 924 143 b 875 104 924 117 907 104 z "},"χ":{"ha":847,"x_min":0,"x_max":0,"o":"m 21 -292 l 207 -292 l 424 47 l 640 -292 l 826 -292 l 517 193 l 819 667 l 633 667 l 424 339 l 214 667 l 28 667 l 331 193 z "},"ψ":{"ha":1194,"x_min":0,"x_max":0,"o":"m 90 156 b 285 0 90 51 153 0 l 507 0 l 507 -292 l 688 -292 l 688 0 l 910 0 b 1104 156 1039 0 1104 51 l 1104 667 l 924 667 l 924 143 b 875 104 924 117 907 104 l 688 104 l 688 667 l 507 667 l 507 104 l 319 104 b 271 143 288 104 271 117 l 271 667 l 90 667 z "},"ω":{"ha":1194,"x_min":0,"x_max":0,"o":"m 90 156 b 285 0 90 51 153 0 l 435 0 b 597 56 526 0 572 26 b 760 0 622 26 668 0 l 910 0 b 1104 156 1042 0 1104 51 l 1104 667 l 924 667 l 924 143 b 875 104 924 117 907 104 l 736 104 b 688 143 704 104 688 117 l 688 472 l 507 472 l 507 143 b 458 104 507 117 490 104 l 319 104 b 271 143 288 104 271 117 l 271 667 l 90 667 z "},"ϊ":{"ha":389,"x_min":0,"x_max":0,"o":"m -35 792 l 125 792 l 125 931 l -35 931 z m 104 0 l 285 0 l 285 667 l 104 667 z m 264 792 l 424 792 l 424 931 l 264 931 z "},"ϋ":{"ha":917,"x_min":0,"x_max":0,"o":"m 90 156 b 285 0 90 51 156 0 l 632 0 b 826 156 761 0 826 51 l 826 667 l 646 667 l 646 143 b 597 104 646 117 629 104 l 319 104 b 271 143 288 104 271 117 l 271 667 l 90 667 z m 229 792 l 389 792 l 389 931 l 229 931 z m 528 792 l 688 792 l 688 931 l 528 931 z "},"ό":{"ha":917,"x_min":0,"x_max":0,"o":"m 90 156 b 285 0 90 51 156 0 l 632 0 b 826 156 761 0 826 51 l 826 511 b 632 667 826 615 761 667 l 285 667 b 90 511 156 667 90 615 z m 271 143 l 271 524 b 319 563 271 550 288 563 l 597 563 b 646 524 629 563 646 550 l 646 143 b 597 104 646 117 629 104 l 319 104 b 271 143 288 104 271 117 z m 347 750 l 486 750 l 681 972 l 500 972 z "},"ύ":{"ha":917,"x_min":0,"x_max":0,"o":"m 90 156 b 285 0 90 51 156 0 l 632 0 b 826 156 761 0 826 51 l 826 667 l 646 667 l 646 143 b 597 104 646 117 629 104 l 319 104 b 271 143 288 104 271 117 l 271 667 l 90 667 z m 347 750 l 486 750 l 681 972 l 500 972 z "},"ώ":{"ha":1194,"x_min":0,"x_max":0,"o":"m 90 156 b 285 0 90 51 153 0 l 435 0 b 597 56 526 0 572 26 b 760 0 622 26 668 0 l 910 0 b 1104 156 1042 0 1104 51 l 1104 667 l 924 667 l 924 143 b 875 104 924 117 907 104 l 736 104 b 688 143 704 104 688 117 l 688 472 l 507 472 l 507 143 b 458 104 507 117 490 104 l 319 104 b 271 143 288 104 271 117 l 271 667 l 90 667 z m 486 750 l 625 750 l 819 972 l 639 972 z "},"Ѐ":{"ha":1028,"x_min":0,"x_max":0,"o":"m 104 0 l 951 0 l 951 118 l 299 118 l 299 431 l 882 431 l 882 549 l 299 549 l 299 799 l 951 799 l 951 917 l 104 917 z m 306 1222 l 500 1000 l 639 1000 l 486 1222 z "},"Ё":{"ha":1028,"x_min":0,"x_max":0,"o":"m 104 0 l 951 0 l 951 118 l 299 118 l 299 431 l 882 431 l 882 549 l 299 549 l 299 799 l 951 799 l 951 917 l 104 917 z m 299 1042 l 458 1042 l 458 1181 l 299 1181 z m 597 1042 l 757 1042 l 757 1181 l 597 1181 z "},"Ђ":{"ha":1347,"x_min":0,"x_max":0,"o":"m 35 799 l 424 799 l 424 0 l 618 0 l 618 431 l 1007 431 b 1063 386 1044 431 1063 415 l 1063 -112 b 986 -174 1063 -153 1038 -174 l 799 -174 l 799 -292 l 1049 -292 b 1257 -125 1188 -292 1257 -236 l 1257 382 b 1049 549 1257 493 1188 549 l 618 549 l 618 799 l 1007 799 l 1007 917 l 35 917 z "},"Ѓ":{"ha":903,"x_min":0,"x_max":0,"o":"m 104 0 l 299 0 l 299 799 l 868 799 l 868 917 l 104 917 z m 382 1000 l 521 1000 l 715 1222 l 535 1222 z "},"Є":{"ha":1028,"x_min":0,"x_max":0,"o":"m 90 356 b 535 0 90 118 239 0 l 951 0 l 951 118 l 563 118 b 285 340 378 118 285 192 l 285 431 l 826 431 l 826 549 l 285 549 b 563 799 285 729 368 799 l 951 799 l 951 917 l 535 917 b 90 561 239 917 90 799 z "},"Ѕ":{"ha":1056,"x_min":0,"x_max":0,"o":"m 90 0 l 757 0 b 965 167 896 0 965 56 l 965 382 b 757 549 965 493 896 549 l 340 549 b 285 593 303 549 285 564 l 285 754 b 340 799 285 783 303 799 l 896 799 l 896 917 l 299 917 b 90 750 160 917 90 861 l 90 597 b 299 431 90 486 160 431 l 715 431 b 771 386 753 431 771 415 l 771 163 b 715 118 771 133 753 118 l 90 118 z "},"І":{"ha":403,"x_min":0,"x_max":0,"o":"m 104 0 l 299 0 l 299 917 l 104 917 z "},"Ї":{"ha":403,"x_min":0,"x_max":0,"o":"m -28 1042 l 132 1042 l 132 1181 l -28 1181 z m 104 0 l 299 0 l 299 917 l 104 917 z m 271 1042 l 431 1042 l 431 1181 l 271 1181 z "},"Ј":{"ha":1014,"x_min":0,"x_max":0,"o":"m 63 200 b 313 0 63 67 146 0 l 701 0 b 910 167 840 0 910 56 l 910 917 l 715 917 l 715 163 b 660 118 715 133 697 118 l 368 118 b 257 207 294 118 257 147 l 257 368 l 63 368 z "},"Љ":{"ha":1667,"x_min":0,"x_max":0,"o":"m 35 0 l 229 0 l 496 799 l 757 799 l 757 0 l 1382 0 b 1590 167 1521 0 1590 56 l 1590 382 b 1382 549 1590 493 1521 549 l 951 549 l 951 917 l 340 917 z m 951 118 l 951 431 l 1340 431 b 1396 386 1378 431 1396 415 l 1396 163 b 1340 118 1396 133 1378 118 z "},"Њ":{"ha":1681,"x_min":0,"x_max":0,"o":"m 104 0 l 299 0 l 299 431 l 771 431 l 771 0 l 1396 0 b 1604 167 1535 0 1604 56 l 1604 382 b 1396 549 1604 493 1535 549 l 965 549 l 965 917 l 771 917 l 771 549 l 299 549 l 299 917 l 104 917 z m 965 118 l 965 431 l 1354 431 b 1410 386 1392 431 1410 415 l 1410 163 b 1354 118 1410 133 1392 118 z "},"Ћ":{"ha":1347,"x_min":0,"x_max":0,"o":"m 35 799 l 424 799 l 424 0 l 618 0 l 618 431 l 1007 431 b 1063 386 1044 431 1063 415 l 1063 0 l 1257 0 l 1257 382 b 1049 549 1257 493 1188 549 l 618 549 l 618 799 l 1007 799 l 1007 917 l 35 917 z "},"Ќ":{"ha":1028,"x_min":0,"x_max":0,"o":"m 104 0 l 299 0 l 299 243 l 469 408 l 785 0 l 1007 0 l 596 532 l 993 917 l 754 917 l 299 475 l 299 917 l 104 917 z m 396 1000 l 535 1000 l 729 1222 l 549 1222 z "},"Ѝ":{"ha":1139,"x_min":0,"x_max":0,"o":"m 104 0 l 326 0 l 840 678 l 840 0 l 1035 0 l 1035 917 l 813 917 l 299 239 l 299 917 l 104 917 z m 347 1222 l 542 1000 l 681 1000 l 528 1222 z "},"Ў":{"ha":1000,"x_min":0,"x_max":0,"o":"m 14 917 l 404 250 l 264 0 l 471 0 l 986 917 l 779 917 l 507 433 l 221 917 z m 299 1083 b 403 1000 299 1028 333 1000 l 597 1000 b 701 1083 667 1000 701 1028 l 701 1222 l 590 1222 l 590 1093 b 569 1076 590 1082 583 1076 l 431 1076 b 410 1093 417 1076 410 1082 l 410 1222 l 299 1222 z "},"Џ":{"ha":1125,"x_min":0,"x_max":0,"o":"m 104 0 l 472 0 l 472 -250 l 653 -250 l 653 0 l 1021 0 l 1021 917 l 826 917 l 826 118 l 299 118 l 299 917 l 104 917 z "},"А":{"ha":1111,"x_min":0,"x_max":0,"o":"m 14 0 l 211 0 l 318 229 l 793 229 l 900 0 l 1097 0 l 667 917 l 444 917 z m 374 347 l 556 736 l 738 347 z "},"Б":{"ha":1069,"x_min":0,"x_max":0,"o":"m 104 0 l 771 0 b 979 167 910 0 979 56 l 979 382 b 771 549 979 493 910 549 l 299 549 l 299 799 l 910 799 l 910 917 l 104 917 z m 299 118 l 299 431 l 729 431 b 785 386 767 431 785 415 l 785 163 b 729 118 785 133 767 118 z "},"В":{"ha":1083,"x_min":0,"x_max":0,"o":"m 104 0 l 785 0 b 993 167 924 0 993 56 l 993 340 b 889 493 993 419 958 469 b 979 640 949 518 979 567 l 979 750 b 771 917 979 861 910 917 l 104 917 z m 299 118 l 299 431 l 743 431 b 799 386 781 431 799 415 l 799 163 b 743 118 799 133 781 118 z m 299 549 l 299 799 l 729 799 b 785 754 767 799 785 783 l 785 593 b 729 549 785 564 767 549 z "},"Г":{"ha":903,"x_min":0,"x_max":0,"o":"m 104 0 l 299 0 l 299 799 l 868 799 l 868 917 l 104 917 z "},"Д":{"ha":1208,"x_min":0,"x_max":0,"o":"m 35 118 l 35 -250 l 215 -250 l 215 0 l 993 0 l 993 -250 l 1174 -250 l 1174 118 l 1035 118 l 1035 917 l 424 917 l 157 118 z m 351 118 l 579 799 l 840 799 l 840 118 z "},"Е":{"ha":1028,"x_min":0,"x_max":0,"o":"m 104 0 l 951 0 l 951 118 l 299 118 l 299 431 l 882 431 l 882 549 l 299 549 l 299 799 l 951 799 l 951 917 l 104 917 z "},"Ж":{"ha":1542,"x_min":0,"x_max":0,"o":"m 21 0 l 243 0 l 558 408 l 674 297 l 674 0 l 868 0 l 868 297 l 983 408 l 1299 0 l 1521 0 l 1110 532 l 1507 917 l 1268 917 l 868 529 l 868 917 l 674 917 l 674 529 l 274 917 l 35 917 l 432 532 z "},"З":{"ha":1028,"x_min":0,"x_max":0,"o":"m 76 0 l 715 0 b 924 167 854 0 924 56 l 924 343 b 826 493 924 419 892 468 b 924 643 892 518 924 567 l 924 750 b 715 917 924 861 854 917 l 76 917 l 76 799 l 674 799 b 729 754 711 799 729 783 l 729 593 b 674 549 729 564 711 549 l 201 549 l 201 431 l 674 431 b 729 386 711 431 729 415 l 729 163 b 674 118 729 133 711 118 l 76 118 z "},"И":{"ha":1139,"x_min":0,"x_max":0,"o":"m 104 0 l 326 0 l 840 678 l 840 0 l 1035 0 l 1035 917 l 813 917 l 299 239 l 299 917 l 104 917 z "},"Й":{"ha":1139,"x_min":0,"x_max":0,"o":"m 104 0 l 326 0 l 840 678 l 840 0 l 1035 0 l 1035 917 l 813 917 l 299 239 l 299 917 l 104 917 z m 368 1083 b 472 1000 368 1028 403 1000 l 667 1000 b 771 1083 736 1000 771 1028 l 771 1222 l 660 1222 l 660 1093 b 639 1076 660 1082 653 1076 l 500 1076 b 479 1093 486 1076 479 1082 l 479 1222 l 368 1222 z "},"К":{"ha":1028,"x_min":0,"x_max":0,"o":"m 104 0 l 299 0 l 299 243 l 469 408 l 785 0 l 1007 0 l 596 532 l 993 917 l 754 917 l 299 475 l 299 917 l 104 917 z "},"Л":{"ha":1097,"x_min":0,"x_max":0,"o":"m 35 0 l 229 0 l 496 799 l 799 799 l 799 0 l 993 0 l 993 917 l 340 917 z "},"М":{"ha":1403,"x_min":0,"x_max":0,"o":"m 104 0 l 299 0 l 299 640 l 604 0 l 799 0 l 1104 640 l 1104 0 l 1299 0 l 1299 917 l 1049 917 l 701 189 l 354 917 l 104 917 z "},"Н":{"ha":1125,"x_min":0,"x_max":0,"o":"m 104 0 l 299 0 l 299 431 l 826 431 l 826 0 l 1021 0 l 1021 917 l 826 917 l 826 549 l 299 549 l 299 917 l 104 917 z "},"О":{"ha":1125,"x_min":0,"x_max":0,"o":"m 104 167 b 313 0 104 56 174 0 l 813 0 b 1021 167 951 0 1021 56 l 1021 750 b 813 917 1021 861 951 917 l 313 917 b 104 750 174 917 104 861 z m 299 163 l 299 754 b 354 799 299 783 317 799 l 771 799 b 826 754 808 799 826 783 l 826 163 b 771 118 826 133 808 118 l 354 118 b 299 163 317 118 299 133 z "},"П":{"ha":1125,"x_min":0,"x_max":0,"o":"m 104 0 l 299 0 l 299 799 l 826 799 l 826 0 l 1021 0 l 1021 917 l 104 917 z "},"Р":{"ha":1056,"x_min":0,"x_max":0,"o":"m 104 0 l 299 0 l 299 361 l 771 361 b 979 528 910 361 979 417 l 979 750 b 771 917 979 861 910 917 l 104 917 z m 299 479 l 299 799 l 729 799 b 785 754 767 799 785 783 l 785 524 b 729 479 785 494 767 479 z "},"С":{"ha":1028,"x_min":0,"x_max":0,"o":"m 104 167 b 313 0 104 56 174 0 l 951 0 l 951 118 l 354 118 b 299 163 317 118 299 133 l 299 754 b 354 799 299 783 317 799 l 951 799 l 951 917 l 313 917 b 104 750 174 917 104 861 z "},"Т":{"ha":1042,"x_min":0,"x_max":0,"o":"m 35 799 l 424 799 l 424 0 l 618 0 l 618 799 l 1007 799 l 1007 917 l 35 917 z "},"У":{"ha":1000,"x_min":0,"x_max":0,"o":"m 14 917 l 404 250 l 264 0 l 471 0 l 986 917 l 779 917 l 507 433 l 221 917 z "},"Ф":{"ha":1319,"x_min":0,"x_max":0,"o":"m 90 271 b 299 104 90 160 160 104 l 563 104 l 563 0 l 757 0 l 757 104 l 1021 104 b 1229 271 1160 104 1229 160 l 1229 646 b 1021 813 1229 757 1160 813 l 757 813 l 757 917 l 563 917 l 563 813 l 299 813 b 90 646 160 813 90 757 z m 285 267 l 285 650 b 340 694 285 679 303 694 l 563 694 l 563 222 l 340 222 b 285 267 303 222 285 238 z m 757 222 l 757 694 l 979 694 b 1035 650 1017 694 1035 679 l 1035 267 b 979 222 1035 238 1017 222 z "},"Х":{"ha":1069,"x_min":0,"x_max":0,"o":"m 21 0 l 244 0 l 535 338 l 825 0 l 1049 0 l 647 467 l 1035 917 l 811 917 l 535 596 l 258 917 l 35 917 l 422 467 z "},"Ц":{"ha":1194,"x_min":0,"x_max":0,"o":"m 104 0 l 979 0 l 979 -250 l 1160 -250 l 1160 118 l 1021 118 l 1021 917 l 826 917 l 826 118 l 299 118 l 299 917 l 104 917 z "},"Ч":{"ha":1056,"x_min":0,"x_max":0,"o":"m 76 528 b 285 361 76 417 146 361 l 757 361 l 757 0 l 951 0 l 951 917 l 757 917 l 757 479 l 326 479 b 271 524 289 479 271 494 l 271 917 l 76 917 z "},"Ш":{"ha":1486,"x_min":0,"x_max":0,"o":"m 104 0 l 1382 0 l 1382 917 l 1188 917 l 1188 118 l 840 118 l 840 917 l 646 917 l 646 118 l 299 118 l 299 917 l 104 917 z "},"Щ":{"ha":1556,"x_min":0,"x_max":0,"o":"m 104 0 l 1340 0 l 1340 -250 l 1521 -250 l 1521 118 l 1382 118 l 1382 917 l 1188 917 l 1188 118 l 840 118 l 840 917 l 646 917 l 646 118 l 299 118 l 299 917 l 104 917 z "},"Ъ":{"ha":1319,"x_min":0,"x_max":0,"o":"m 35 799 l 368 799 l 368 0 l 1035 0 b 1243 167 1174 0 1243 56 l 1243 382 b 1035 549 1243 493 1174 549 l 563 549 l 563 917 l 35 917 z m 563 118 l 563 431 l 993 431 b 1049 386 1031 431 1049 415 l 1049 163 b 993 118 1049 133 1031 118 z "},"Ы":{"ha":1431,"x_min":0,"x_max":0,"o":"m 104 0 l 771 0 b 979 167 910 0 979 56 l 979 382 b 771 549 979 493 910 549 l 299 549 l 299 917 l 104 917 z m 299 118 l 299 431 l 729 431 b 785 386 767 431 785 415 l 785 163 b 729 118 785 133 767 118 z m 1132 0 l 1326 0 l 1326 917 l 1132 917 z "},"Ь":{"ha":1056,"x_min":0,"x_max":0,"o":"m 104 0 l 771 0 b 979 167 910 0 979 56 l 979 382 b 771 549 979 493 910 549 l 299 549 l 299 917 l 104 917 z m 299 118 l 299 431 l 729 431 b 785 386 767 431 785 415 l 785 163 b 729 118 785 133 767 118 z "},"Э":{"ha":1028,"x_min":0,"x_max":0,"o":"m 76 0 l 493 0 b 938 356 789 0 938 118 l 938 561 b 493 917 938 799 789 917 l 76 917 l 76 799 l 465 799 b 743 549 660 799 743 729 l 201 549 l 201 431 l 743 431 l 743 340 b 465 118 743 192 650 118 l 76 118 z "},"Ю":{"ha":1514,"x_min":0,"x_max":0,"o":"m 104 0 l 299 0 l 299 403 l 493 403 l 493 167 b 701 0 493 56 563 0 l 1201 0 b 1410 167 1340 0 1410 56 l 1410 750 b 1201 917 1410 861 1340 917 l 701 917 b 493 750 563 917 493 861 l 493 521 l 299 521 l 299 917 l 104 917 z m 688 163 l 688 754 b 743 799 688 783 706 799 l 1160 799 b 1215 754 1197 799 1215 783 l 1215 163 b 1160 118 1215 133 1197 118 l 743 118 b 688 163 706 118 688 133 z "},"Я":{"ha":1069,"x_min":0,"x_max":0,"o":"m 49 0 l 263 0 l 514 382 l 771 382 l 771 0 l 965 0 l 965 917 l 299 917 b 90 750 160 917 90 861 l 90 549 b 300 382 90 435 164 383 z m 285 544 l 285 754 b 340 799 285 783 303 799 l 771 799 l 771 500 l 340 500 b 285 544 303 500 285 515 z "},"а":{"ha":875,"x_min":0,"x_max":0,"o":"m 76 156 b 271 0 76 51 142 0 l 785 0 l 785 511 b 590 667 785 615 719 667 l 132 667 l 132 563 l 556 563 b 604 524 588 563 604 550 l 604 403 l 271 403 b 76 247 142 403 76 351 z m 257 143 l 257 260 b 306 299 257 286 274 299 l 604 299 l 604 104 l 306 104 b 257 143 274 104 257 117 z "},"б":{"ha":917,"x_min":0,"x_max":0,"o":"m 90 156 b 285 0 90 51 156 0 l 632 0 b 826 156 761 0 826 51 l 826 511 b 632 667 826 615 761 667 l 271 667 b 451 813 271 764 331 813 l 743 813 l 743 917 l 451 917 b 90 628 211 917 90 821 z m 271 143 l 271 563 l 597 563 b 646 524 629 563 646 550 l 646 143 b 597 104 646 117 629 104 l 319 104 b 271 143 288 104 271 117 z "},"в":{"ha":875,"x_min":0,"x_max":0,"o":"m 90 0 l 604 0 b 799 156 733 0 799 51 l 799 213 b 701 354 799 288 764 333 b 785 501 760 381 785 425 b 590 667 785 593 746 667 l 90 667 z m 271 104 l 271 299 l 569 299 b 618 260 601 299 618 286 l 618 143 b 569 104 618 117 601 104 z m 271 403 l 271 563 l 556 563 b 604 524 588 563 604 550 l 604 442 b 556 403 604 415 588 403 z "},"г":{"ha":750,"x_min":0,"x_max":0,"o":"m 90 0 l 271 0 l 271 563 l 701 563 l 701 667 l 90 667 z "},"д":{"ha":1014,"x_min":0,"x_max":0,"o":"m 35 104 l 35 -222 l 201 -222 l 201 0 l 813 0 l 813 -222 l 979 -222 l 979 104 l 854 104 l 854 667 l 333 667 l 140 104 z m 314 104 l 471 563 l 674 563 l 674 104 z "},"е":{"ha":889,"x_min":0,"x_max":0,"o":"m 90 156 b 285 0 90 51 156 0 l 771 0 l 771 104 l 319 104 b 271 143 288 104 271 117 l 271 299 l 799 299 l 799 511 b 604 667 799 615 733 667 l 285 667 b 90 511 156 667 90 615 z m 271 403 l 271 524 b 319 563 271 550 288 563 l 569 563 b 618 524 601 563 618 550 l 618 403 z "},"ж":{"ha":1222,"x_min":0,"x_max":0,"o":"m 21 0 l 218 0 l 435 276 l 521 193 l 521 0 l 701 0 l 701 193 l 788 276 l 1004 0 l 1201 0 l 900 386 l 1188 667 l 969 667 l 701 406 l 701 667 l 521 667 l 521 406 l 253 667 l 35 667 l 322 386 z "},"з":{"ha":806,"x_min":0,"x_max":0,"o":"m 63 0 l 521 0 b 715 156 650 0 715 51 l 715 215 b 625 354 715 271 696 328 b 715 503 699 385 715 439 b 521 667 715 606 663 667 l 63 667 l 63 563 l 486 563 b 535 524 518 563 535 550 l 535 442 b 486 403 535 415 518 403 l 160 403 l 160 299 l 486 299 b 535 260 518 299 535 286 l 535 143 b 486 104 535 117 518 104 l 63 104 z "},"и":{"ha":931,"x_min":0,"x_max":0,"o":"m 90 0 l 299 0 l 660 456 l 660 0 l 840 0 l 840 667 l 632 667 l 271 211 l 271 667 l 90 667 z "},"й":{"ha":931,"x_min":0,"x_max":0,"o":"m 90 0 l 299 0 l 660 456 l 660 0 l 840 0 l 840 667 l 632 667 l 271 211 l 271 667 l 90 667 z m 264 833 b 368 750 264 778 299 750 l 563 750 b 667 833 632 750 667 778 l 667 972 l 556 972 l 556 843 b 535 826 556 832 549 826 l 396 826 b 375 843 382 826 375 832 l 375 972 l 264 972 z "},"к":{"ha":833,"x_min":0,"x_max":0,"o":"m 90 0 l 271 0 l 271 153 l 399 276 l 615 0 l 813 0 l 511 386 l 799 667 l 581 667 l 271 365 l 271 667 l 90 667 z "},"л":{"ha":903,"x_min":0,"x_max":0,"o":"m 35 0 l 208 0 l 401 563 l 632 563 l 632 0 l 813 0 l 813 667 l 264 667 z "},"м":{"ha":1111,"x_min":0,"x_max":0,"o":"m 90 0 l 271 0 l 271 407 l 465 0 l 646 0 l 840 407 l 840 0 l 1021 0 l 1021 667 l 792 667 l 556 172 l 319 667 l 90 667 z "},"н":{"ha":917,"x_min":0,"x_max":0,"o":"m 90 0 l 271 0 l 271 299 l 646 299 l 646 0 l 826 0 l 826 667 l 646 667 l 646 403 l 271 403 l 271 667 l 90 667 z "},"о":{"ha":917,"x_min":0,"x_max":0,"o":"m 90 156 b 285 0 90 51 156 0 l 632 0 b 826 156 761 0 826 51 l 826 511 b 632 667 826 615 761 667 l 285 667 b 90 511 156 667 90 615 z m 271 143 l 271 524 b 319 563 271 550 288 563 l 597 563 b 646 524 629 563 646 550 l 646 143 b 597 104 646 117 629 104 l 319 104 b 271 143 288 104 271 117 z "},"п":{"ha":917,"x_min":0,"x_max":0,"o":"m 90 0 l 271 0 l 271 563 l 646 563 l 646 0 l 826 0 l 826 667 l 90 667 z "},"р":{"ha":917,"x_min":0,"x_max":0,"o":"m 90 -292 l 271 -292 l 271 0 l 632 0 b 826 156 761 0 826 51 l 826 511 b 632 667 826 615 761 667 l 90 667 z m 271 104 l 271 563 l 597 563 b 646 524 629 563 646 550 l 646 143 b 597 104 646 117 629 104 z "},"с":{"ha":819,"x_min":0,"x_max":0,"o":"m 90 156 b 285 0 90 51 156 0 l 757 0 l 757 104 l 319 104 b 271 143 288 104 271 117 l 271 524 b 319 563 271 550 288 563 l 757 563 l 757 667 l 285 667 b 90 511 156 667 90 615 z "},"т":{"ha":861,"x_min":0,"x_max":0,"o":"m 49 563 l 340 563 l 340 0 l 521 0 l 521 563 l 813 563 l 813 667 l 49 667 z "},"у":{"ha":889,"x_min":0,"x_max":0,"o":"m 21 667 l 353 -11 l 217 -292 l 399 -292 l 868 667 l 686 667 l 444 174 l 203 667 z "},"ф":{"ha":1194,"x_min":0,"x_max":0,"o":"m 90 156 b 285 0 90 51 156 0 l 507 0 l 507 -292 l 688 -292 l 688 0 l 910 0 b 1104 156 1039 0 1104 51 l 1104 511 b 910 667 1104 615 1039 667 l 688 667 l 688 917 l 507 917 l 507 667 l 285 667 b 90 511 156 667 90 615 z m 271 143 l 271 524 b 319 563 271 550 288 563 l 507 563 l 507 104 l 319 104 b 271 143 288 104 271 117 z m 688 104 l 688 563 l 875 563 b 924 524 907 563 924 550 l 924 143 b 875 104 924 117 907 104 z "},"х":{"ha":847,"x_min":0,"x_max":0,"o":"m 21 0 l 225 0 l 424 222 l 622 0 l 826 0 l 525 338 l 819 667 l 615 667 l 424 451 l 232 667 l 28 667 l 322 338 z "},"ц":{"ha":986,"x_min":0,"x_max":0,"o":"m 90 0 l 785 0 l 785 -222 l 951 -222 l 951 104 l 826 104 l 826 667 l 646 667 l 646 104 l 271 104 l 271 667 l 90 667 z "},"ч":{"ha":875,"x_min":0,"x_max":0,"o":"m 76 413 b 271 257 76 308 142 257 l 604 257 l 604 0 l 785 0 l 785 667 l 604 667 l 604 361 l 306 361 b 257 400 274 361 257 374 l 257 667 l 76 667 z "},"ш":{"ha":1222,"x_min":0,"x_max":0,"o":"m 90 0 l 1132 0 l 1132 667 l 951 667 l 951 104 l 701 104 l 701 667 l 521 667 l 521 104 l 271 104 l 271 667 l 90 667 z "},"щ":{"ha":1292,"x_min":0,"x_max":0,"o":"m 90 0 l 1090 0 l 1090 -222 l 1257 -222 l 1257 104 l 1132 104 l 1132 667 l 951 667 l 951 104 l 701 104 l 701 667 l 521 667 l 521 104 l 271 104 l 271 667 l 90 667 z "},"ъ":{"ha":1056,"x_min":0,"x_max":0,"o":"m 49 563 l 285 563 l 285 0 l 799 0 b 993 156 928 0 993 51 l 993 247 b 799 403 993 351 928 403 l 465 403 l 465 667 l 49 667 z m 465 104 l 465 299 l 764 299 b 813 260 796 299 813 286 l 813 143 b 764 104 813 117 796 104 z "},"ы":{"ha":1208,"x_min":0,"x_max":0,"o":"m 90 0 l 604 0 b 799 156 733 0 799 51 l 799 247 b 604 403 799 351 733 403 l 271 403 l 271 667 l 90 667 z m 271 104 l 271 299 l 569 299 b 618 260 601 299 618 286 l 618 143 b 569 104 618 117 601 104 z m 938 0 l 1118 0 l 1118 667 l 938 667 z "},"ь":{"ha":861,"x_min":0,"x_max":0,"o":"m 90 0 l 604 0 b 799 156 733 0 799 51 l 799 247 b 604 403 799 351 733 403 l 271 403 l 271 667 l 90 667 z m 271 104 l 271 299 l 569 299 b 618 260 601 299 618 286 l 618 143 b 569 104 618 117 601 104 z "},"э":{"ha":806,"x_min":0,"x_max":0,"o":"m 63 0 l 417 0 b 729 250 625 0 729 83 l 729 417 b 417 667 729 583 625 667 l 63 667 l 63 563 l 368 563 b 549 403 478 563 549 525 l 160 403 l 160 299 l 549 299 l 549 249 b 368 104 549 153 489 104 l 63 104 z "},"ю":{"ha":1278,"x_min":0,"x_max":0,"o":"m 90 0 l 271 0 l 271 299 l 451 299 l 451 156 b 646 0 451 51 517 0 l 993 0 b 1188 156 1122 0 1188 51 l 1188 511 b 993 667 1188 615 1122 667 l 646 667 b 451 511 517 667 451 615 l 451 403 l 271 403 l 271 667 l 90 667 z m 632 143 l 632 524 b 681 563 632 550 649 563 l 958 563 b 1007 524 990 563 1007 550 l 1007 143 b 958 104 1007 117 990 104 l 681 104 b 632 143 649 104 632 117 z "},"я":{"ha":875,"x_min":0,"x_max":0,"o":"m 49 0 l 239 0 l 411 257 l 604 257 l 604 0 l 785 0 l 785 667 l 271 667 b 76 511 142 667 76 615 l 76 413 b 222 260 76 321 126 272 z m 257 400 l 257 524 b 306 563 257 550 274 563 l 604 563 l 604 361 l 306 361 b 257 400 274 361 257 374 z "},"ѐ":{"ha":889,"x_min":0,"x_max":0,"o":"m 90 156 b 285 0 90 51 156 0 l 771 0 l 771 104 l 319 104 b 271 143 288 104 271 117 l 271 299 l 799 299 l 799 511 b 604 667 799 615 733 667 l 285 667 b 90 511 156 667 90 615 z m 222 972 l 417 750 l 556 750 l 403 972 z m 271 403 l 271 524 b 319 563 271 550 288 563 l 569 563 b 618 524 601 563 618 550 l 618 403 z "},"ё":{"ha":889,"x_min":0,"x_max":0,"o":"m 90 156 b 285 0 90 51 156 0 l 771 0 l 771 104 l 319 104 b 271 143 288 104 271 117 l 271 299 l 799 299 l 799 511 b 604 667 799 615 733 667 l 285 667 b 90 511 156 667 90 615 z m 215 792 l 375 792 l 375 931 l 215 931 z m 271 403 l 271 524 b 319 563 271 550 288 563 l 569 563 b 618 524 601 563 618 550 l 618 403 z m 514 792 l 674 792 l 674 931 l 514 931 z "},"ђ":{"ha":944,"x_min":0,"x_max":0,"o":"m 21 750 l 118 750 l 118 0 l 299 0 l 299 563 l 625 563 b 674 524 657 563 674 550 l 674 -137 b 611 -187 674 -171 653 -187 l 486 -187 l 486 -292 l 660 -292 b 854 -136 789 -292 854 -240 l 854 511 b 660 667 854 615 789 667 l 299 667 l 299 750 l 549 750 l 549 840 l 299 840 l 299 917 l 118 917 l 118 840 l 21 840 z "},"ѓ":{"ha":750,"x_min":0,"x_max":0,"o":"m 90 0 l 271 0 l 271 563 l 701 563 l 701 667 l 90 667 z m 292 750 l 431 750 l 625 972 l 444 972 z "},"є":{"ha":806,"x_min":0,"x_max":0,"o":"m 76 250 b 389 0 76 83 181 0 l 743 0 l 743 104 l 438 104 b 257 249 317 104 257 153 l 257 299 l 646 299 l 646 403 l 257 403 b 438 563 257 525 328 563 l 743 563 l 743 667 l 389 667 b 76 417 181 667 76 583 z "},"ѕ":{"ha":819,"x_min":0,"x_max":0,"o":"m 76 0 l 549 0 b 743 156 678 0 743 51 l 743 247 b 549 403 743 351 678 403 l 306 403 b 257 442 274 403 257 415 l 257 524 b 306 563 257 550 274 563 l 688 563 l 688 667 l 271 667 b 76 511 142 667 76 615 l 76 454 b 271 299 76 350 142 299 l 514 299 b 563 260 546 299 563 286 l 563 143 b 514 104 563 117 546 104 l 76 104 z "},"і":{"ha":361,"x_min":0,"x_max":0,"o":"m 90 0 l 271 0 l 271 667 l 90 667 z m 90 778 l 271 778 l 271 917 l 90 917 z "},"ї":{"ha":389,"x_min":0,"x_max":0,"o":"m -35 792 l 125 792 l 125 931 l -35 931 z m 104 0 l 285 0 l 285 667 l 104 667 z m 264 792 l 424 792 l 424 931 l 264 931 z "},"ј":{"ha":361,"x_min":0,"x_max":0,"o":"m -76 -187 l -76 -292 l 76 -292 b 271 -136 206 -292 271 -240 l 271 667 l 90 667 l 90 -137 b 28 -187 90 -171 69 -187 z m 90 778 l 271 778 l 271 917 l 90 917 z "},"љ":{"ha":1361,"x_min":0,"x_max":0,"o":"m 35 0 l 208 0 l 401 563 l 604 563 l 604 0 l 1104 0 b 1299 156 1233 0 1299 51 l 1299 247 b 1104 403 1299 351 1233 403 l 785 403 l 785 667 l 264 667 z m 785 104 l 785 299 l 1069 299 b 1118 260 1101 299 1118 286 l 1118 143 b 1069 104 1118 117 1101 104 z "},"њ":{"ha":1389,"x_min":0,"x_max":0,"o":"m 1097 104 l 813 104 l 813 299 l 1097 299 b 1146 260 1129 299 1146 286 l 1146 143 b 1097 104 1146 117 1129 104 z m 632 0 l 1132 0 b 1326 156 1261 0 1326 51 l 1326 247 b 1132 403 1326 351 1261 403 l 813 403 l 813 667 l 632 667 l 632 403 l 271 403 l 271 667 l 90 667 l 90 0 l 271 0 l 271 299 l 632 299 z "},"ћ":{"ha":944,"x_min":0,"x_max":0,"o":"m 21 750 l 118 750 l 118 0 l 299 0 l 299 563 l 625 563 b 674 524 657 563 674 550 l 674 0 l 854 0 l 854 511 b 660 667 854 615 789 667 l 299 667 l 299 750 l 549 750 l 549 840 l 299 840 l 299 917 l 118 917 l 118 840 l 21 840 z "},"ќ":{"ha":833,"x_min":0,"x_max":0,"o":"m 90 0 l 271 0 l 271 153 l 399 276 l 615 0 l 813 0 l 511 386 l 799 667 l 581 667 l 271 365 l 271 667 l 90 667 z m 313 750 l 451 750 l 646 972 l 465 972 z "},"ѝ":{"ha":931,"x_min":0,"x_max":0,"o":"m 90 0 l 299 0 l 660 456 l 660 0 l 840 0 l 840 667 l 632 667 l 271 211 l 271 667 l 90 667 z m 243 972 l 438 750 l 576 750 l 424 972 z "},"ў":{"ha":889,"x_min":0,"x_max":0,"o":"m 21 667 l 353 -11 l 217 -292 l 399 -292 l 868 667 l 686 667 l 444 174 l 203 667 z m 243 833 b 347 750 243 778 278 750 l 542 750 b 646 833 611 750 646 778 l 646 972 l 535 972 l 535 843 b 514 826 535 832 528 826 l 375 826 b 354 843 361 826 354 832 l 354 972 l 243 972 z "},"џ":{"ha":917,"x_min":0,"x_max":0,"o":"m 90 0 l 375 0 l 375 -222 l 542 -222 l 542 0 l 826 0 l 826 667 l 646 667 l 646 104 l 271 104 l 271 667 l 90 667 z "},"Ѣ":{"ha":1264,"x_min":0,"x_max":0,"o":"m 35 674 l 313 674 l 313 0 l 979 0 b 1188 167 1118 0 1188 56 l 1188 382 b 979 549 1188 493 1118 549 l 507 549 l 507 674 l 799 674 l 799 792 l 507 792 l 507 917 l 313 917 l 313 792 l 35 792 z m 507 118 l 507 431 l 938 431 b 993 386 975 431 993 415 l 993 163 b 938 118 993 133 975 118 z "},"ѣ":{"ha":1028,"x_min":0,"x_max":0,"o":"m 49 563 l 257 563 l 257 0 l 771 0 b 965 156 900 0 965 51 l 965 247 b 771 403 965 351 900 403 l 438 403 l 438 563 l 660 563 l 660 667 l 438 667 l 438 917 l 257 917 l 257 667 l 49 667 z m 438 104 l 438 299 l 736 299 b 785 260 768 299 785 286 l 785 143 b 736 104 785 117 768 104 z "},"Ѳ":{"ha":1125,"x_min":0,"x_max":0,"o":"m 104 167 b 313 0 104 56 174 0 l 813 0 b 1021 167 951 0 1021 56 l 1021 750 b 813 917 1021 861 951 917 l 313 917 b 104 750 174 917 104 861 z m 299 163 l 299 431 l 826 431 l 826 163 b 771 118 826 133 808 118 l 354 118 b 299 163 317 118 299 133 z m 299 549 l 299 754 b 354 799 299 783 317 799 l 771 799 b 826 754 808 799 826 783 l 826 549 z "},"ѳ":{"ha":917,"x_min":0,"x_max":0,"o":"m 90 156 b 285 0 90 51 156 0 l 632 0 b 826 156 761 0 826 51 l 826 511 b 632 667 826 615 761 667 l 285 667 b 90 511 156 667 90 615 z m 271 143 l 271 299 l 646 299 l 646 143 b 597 104 646 117 629 104 l 319 104 b 271 143 288 104 271 117 z m 271 403 l 271 524 b 319 563 271 550 288 563 l 597 563 b 646 524 629 563 646 550 l 646 403 z "},"Ѵ":{"ha":1250,"x_min":0,"x_max":0,"o":"m 14 917 l 444 0 l 667 0 l 1042 799 l 1215 799 l 1215 917 l 894 917 l 556 194 l 217 917 z "},"ѵ":{"ha":1000,"x_min":0,"x_max":0,"o":"m 21 667 l 347 0 l 542 0 l 817 563 l 951 563 l 951 667 l 686 667 l 444 174 l 203 667 z "},"Ґ":{"ha":903,"x_min":0,"x_max":0,"o":"m 104 0 l 299 0 l 299 799 l 868 799 l 868 1139 l 688 1139 l 688 917 l 104 917 z "},"ґ":{"ha":750,"x_min":0,"x_max":0,"o":"m 90 0 l 271 0 l 271 563 l 701 563 l 701 861 l 549 861 l 549 667 l 90 667 z "},"Ғ":{"ha":931,"x_min":0,"x_max":0,"o":"m 21 438 l 132 438 l 132 0 l 326 0 l 326 438 l 597 438 l 597 542 l 326 542 l 326 799 l 896 799 l 896 917 l 132 917 l 132 542 l 21 542 z "},"ғ":{"ha":778,"x_min":0,"x_max":0,"o":"m 21 306 l 118 306 l 118 0 l 299 0 l 299 306 l 535 306 l 535 396 l 299 396 l 299 563 l 729 563 l 729 667 l 118 667 l 118 396 l 21 396 z "},"Ҕ":{"ha":1028,"x_min":0,"x_max":0,"o":"m 104 0 l 299 0 l 299 431 l 688 431 b 743 386 725 431 743 415 l 743 -112 b 667 -174 743 -153 718 -174 l 479 -174 l 479 -292 l 729 -292 b 938 -125 868 -292 938 -236 l 938 382 b 729 549 938 493 868 549 l 299 549 l 299 799 l 868 799 l 868 917 l 104 917 z "},"ҕ":{"ha":861,"x_min":0,"x_max":0,"o":"m 90 0 l 271 0 l 271 299 l 556 299 b 604 260 588 299 604 286 l 604 -137 b 542 -187 604 -171 583 -187 l 417 -187 l 417 -292 l 590 -292 b 785 -136 719 -292 785 -240 l 785 247 b 590 403 785 351 719 403 l 271 403 l 271 563 l 701 563 l 701 667 l 90 667 z "},"Җ":{"ha":1583,"x_min":0,"x_max":0,"o":"m 21 0 l 243 0 l 558 408 l 674 297 l 674 0 l 868 0 l 868 297 l 983 408 l 1299 0 l 1368 0 l 1368 -250 l 1549 -250 l 1549 118 l 1429 118 l 1110 532 l 1507 917 l 1268 917 l 868 529 l 868 917 l 674 917 l 674 529 l 274 917 l 35 917 l 432 532 z "},"җ":{"ha":1250,"x_min":0,"x_max":0,"o":"m 21 0 l 218 0 l 435 276 l 521 193 l 521 0 l 701 0 l 701 193 l 788 276 l 1004 0 l 1049 0 l 1049 -222 l 1215 -222 l 1215 104 l 1119 104 l 900 386 l 1188 667 l 969 667 l 701 406 l 701 667 l 521 667 l 521 406 l 253 667 l 35 667 l 322 386 z "},"Ҙ":{"ha":1028,"x_min":0,"x_max":0,"o":"m 76 0 l 514 0 l 514 -115 b 458 -160 514 -144 496 -160 l 333 -160 l 333 -243 l 521 -243 b 653 -137 608 -243 653 -208 l 653 0 l 715 0 b 924 167 854 0 924 56 l 924 343 b 826 493 924 419 892 468 b 924 643 892 518 924 567 l 924 750 b 715 917 924 861 854 917 l 76 917 l 76 799 l 674 799 b 729 754 711 799 729 783 l 729 593 b 674 549 729 564 711 549 l 201 549 l 201 431 l 674 431 b 729 386 711 431 729 415 l 729 163 b 674 118 729 133 711 118 l 76 118 z "},"ҙ":{"ha":806,"x_min":0,"x_max":0,"o":"m 63 0 l 382 0 l 382 -115 b 326 -160 382 -144 364 -160 l 201 -160 l 201 -243 l 389 -243 b 521 -137 476 -243 521 -208 l 521 0 b 715 156 650 0 715 51 l 715 215 b 625 354 715 271 696 328 b 715 503 699 385 715 439 b 521 667 715 606 663 667 l 63 667 l 63 563 l 486 563 b 535 524 518 563 535 550 l 535 442 b 486 403 535 415 518 403 l 160 403 l 160 299 l 486 299 b 535 260 518 299 535 286 l 535 143 b 486 104 535 117 518 104 l 63 104 z "},"Қ":{"ha":1069,"x_min":0,"x_max":0,"o":"m 104 0 l 299 0 l 299 243 l 469 408 l 785 0 l 854 0 l 854 -250 l 1035 -250 l 1035 118 l 915 118 l 596 532 l 993 917 l 754 917 l 299 475 l 299 917 l 104 917 z "},"қ":{"ha":861,"x_min":0,"x_max":0,"o":"m 90 0 l 271 0 l 271 153 l 399 276 l 615 0 l 660 0 l 660 -222 l 826 -222 l 826 104 l 731 104 l 511 386 l 799 667 l 581 667 l 271 365 l 271 667 l 90 667 z "},"Ҝ":{"ha":1028,"x_min":0,"x_max":0,"o":"m 104 0 l 299 0 l 299 243 l 382 324 l 382 125 l 500 125 l 500 369 l 785 0 l 1007 0 l 596 532 l 993 917 l 754 917 l 500 669 l 500 819 l 382 819 l 382 556 l 299 475 l 299 917 l 104 917 z "},"ҝ":{"ha":833,"x_min":0,"x_max":0,"o":"m 90 0 l 271 0 l 271 153 l 340 221 l 340 83 l 444 83 l 444 218 l 615 0 l 813 0 l 511 386 l 799 667 l 581 667 l 444 533 l 444 611 l 340 611 l 340 432 l 271 365 l 271 667 l 90 667 z "},"Ҟ":{"ha":1083,"x_min":0,"x_max":0,"o":"m 21 701 l 160 701 l 160 0 l 354 0 l 354 243 l 525 408 l 840 0 l 1063 0 l 651 532 l 1049 917 l 810 917 l 354 475 l 354 701 l 493 701 l 493 806 l 354 806 l 354 917 l 160 917 l 160 806 l 21 806 z "},"ҟ":{"ha":861,"x_min":0,"x_max":0,"o":"m 21 507 l 118 507 l 118 0 l 299 0 l 299 153 l 426 276 l 643 0 l 840 0 l 539 386 l 826 667 l 608 667 l 299 365 l 299 507 l 396 507 l 396 597 l 299 597 l 299 667 l 118 667 l 118 597 l 21 597 z "},"Ҡ":{"ha":1292,"x_min":0,"x_max":0,"o":"m 35 799 l 368 799 l 368 0 l 563 0 l 563 243 l 733 408 l 1049 0 l 1271 0 l 860 532 l 1257 917 l 1018 917 l 563 475 l 563 917 l 35 917 z "},"ҡ":{"ha":1028,"x_min":0,"x_max":0,"o":"m 49 563 l 285 563 l 285 0 l 465 0 l 465 153 l 593 276 l 810 0 l 1007 0 l 706 386 l 993 667 l 775 667 l 465 365 l 465 667 l 49 667 z "},"Ң":{"ha":1194,"x_min":0,"x_max":0,"o":"m 104 0 l 299 0 l 299 431 l 826 431 l 826 0 l 979 0 l 979 -250 l 1160 -250 l 1160 118 l 1021 118 l 1021 917 l 826 917 l 826 549 l 299 549 l 299 917 l 104 917 z "},"ң":{"ha":986,"x_min":0,"x_max":0,"o":"m 90 0 l 271 0 l 271 299 l 646 299 l 646 0 l 785 0 l 785 -222 l 951 -222 l 951 104 l 826 104 l 826 667 l 646 667 l 646 403 l 271 403 l 271 667 l 90 667 z "},"Ҥ":{"ha":1444,"x_min":0,"x_max":0,"o":"m 104 0 l 299 0 l 299 431 l 826 431 l 826 0 l 1021 0 l 1021 799 l 1410 799 l 1410 917 l 826 917 l 826 549 l 299 549 l 299 917 l 104 917 z "},"ҥ":{"ha":1167,"x_min":0,"x_max":0,"o":"m 90 0 l 271 0 l 271 299 l 646 299 l 646 0 l 826 0 l 826 563 l 1118 563 l 1118 667 l 646 667 l 646 403 l 271 403 l 271 667 l 90 667 z "},"Ҧ":{"ha":1694,"x_min":0,"x_max":0,"o":"m 104 0 l 299 0 l 299 799 l 771 799 l 771 0 l 965 0 l 965 431 l 1354 431 b 1410 386 1392 431 1410 415 l 1410 -112 b 1333 -174 1410 -153 1385 -174 l 1146 -174 l 1146 -292 l 1396 -292 b 1604 -125 1535 -292 1604 -236 l 1604 382 b 1396 549 1604 493 1535 549 l 965 549 l 965 917 l 104 917 z "},"ҧ":{"ha":1403,"x_min":0,"x_max":0,"o":"m 90 0 l 271 0 l 271 563 l 632 563 l 632 0 l 813 0 l 813 299 l 1097 299 b 1146 260 1129 299 1146 286 l 1146 -137 b 1083 -187 1146 -171 1125 -187 l 958 -187 l 958 -292 l 1132 -292 b 1326 -136 1261 -292 1326 -240 l 1326 247 b 1132 403 1326 351 1261 403 l 813 403 l 813 667 l 90 667 z "},"Ҩ":{"ha":1250,"x_min":0,"x_max":0,"o":"m 104 167 b 313 0 104 56 174 0 l 951 0 b 1160 167 1090 0 1160 56 l 1160 444 b 951 611 1160 556 1090 611 l 743 611 b 535 444 604 611 535 556 l 535 118 l 354 118 b 299 163 317 118 299 133 l 299 754 b 354 799 299 783 317 799 l 729 799 l 729 917 l 313 917 b 104 750 174 917 104 861 z m 729 118 l 729 449 b 785 493 729 478 747 493 l 910 493 b 965 449 947 493 965 478 l 965 163 b 910 118 965 133 947 118 z "},"ҩ":{"ha":986,"x_min":0,"x_max":0,"o":"m 90 156 b 285 0 90 51 156 0 l 715 0 b 910 156 844 0 910 51 l 910 289 b 715 444 910 393 844 444 l 618 444 b 424 289 489 444 424 393 l 424 104 l 319 104 b 271 143 288 104 271 117 l 271 524 b 319 563 271 550 288 563 l 590 563 l 590 667 l 285 667 b 90 511 156 667 90 615 z m 590 104 l 590 301 b 639 340 590 328 607 340 l 694 340 b 743 301 726 340 743 328 l 743 143 b 694 104 743 117 726 104 z "},"Ҫ":{"ha":1028,"x_min":0,"x_max":0,"o":"m 104 167 b 313 0 104 56 174 0 l 604 0 l 604 -115 b 549 -160 604 -144 586 -160 l 424 -160 l 424 -243 l 611 -243 b 743 -137 699 -243 743 -208 l 743 0 l 951 0 l 951 118 l 354 118 b 299 163 317 118 299 133 l 299 754 b 354 799 299 783 317 799 l 951 799 l 951 917 l 313 917 b 104 750 174 917 104 861 z "},"ҫ":{"ha":819,"x_min":0,"x_max":0,"o":"m 90 156 b 285 0 90 51 156 0 l 479 0 l 479 -115 b 424 -160 479 -144 461 -160 l 299 -160 l 299 -243 l 486 -243 b 618 -137 574 -243 618 -208 l 618 0 l 757 0 l 757 104 l 319 104 b 271 143 288 104 271 117 l 271 524 b 319 563 271 550 288 563 l 757 563 l 757 667 l 285 667 b 90 511 156 667 90 615 z "},"Ҭ":{"ha":1042,"x_min":0,"x_max":0,"o":"m 35 799 l 424 799 l 424 0 l 576 0 l 576 -250 l 757 -250 l 757 118 l 618 118 l 618 799 l 1007 799 l 1007 917 l 35 917 z "},"ҭ":{"ha":861,"x_min":0,"x_max":0,"o":"m 49 563 l 340 563 l 340 0 l 479 0 l 479 -222 l 646 -222 l 646 104 l 521 104 l 521 563 l 813 563 l 813 667 l 49 667 z "},"Ү":{"ha":1083,"x_min":0,"x_max":0,"o":"m 14 917 l 444 347 l 444 0 l 639 0 l 639 347 l 1069 917 l 853 917 l 542 504 l 231 917 z "},"ү":{"ha":889,"x_min":0,"x_max":0,"o":"m 21 667 l 354 -14 l 354 -292 l 535 -292 l 535 -14 l 868 667 l 686 667 l 444 174 l 203 667 z "},"Ұ":{"ha":1083,"x_min":0,"x_max":0,"o":"m 14 917 l 413 389 l 222 389 l 222 285 l 444 285 l 444 0 l 639 0 l 639 285 l 861 285 l 861 389 l 671 389 l 1069 917 l 853 917 l 542 504 l 231 917 z "},"ұ":{"ha":889,"x_min":0,"x_max":0,"o":"m 21 667 l 347 0 l 160 0 l 160 -90 l 354 -90 l 354 -292 l 535 -292 l 535 -90 l 729 -90 l 729 0 l 542 0 l 868 667 l 686 667 l 444 174 l 203 667 z "},"Ҳ":{"ha":1111,"x_min":0,"x_max":0,"o":"m 21 0 l 244 0 l 535 338 l 825 0 l 896 0 l 896 -250 l 1076 -250 l 1076 118 l 947 118 l 647 467 l 1035 917 l 811 917 l 535 596 l 258 917 l 35 917 l 422 467 z "},"ҳ":{"ha":875,"x_min":0,"x_max":0,"o":"m 21 0 l 225 0 l 424 222 l 622 0 l 674 0 l 674 -222 l 840 -222 l 840 104 l 733 104 l 525 338 l 819 667 l 615 667 l 424 451 l 232 667 l 28 667 l 322 338 z "},"Ҵ":{"ha":1472,"x_min":0,"x_max":0,"o":"m 35 799 l 382 799 l 382 0 l 1257 0 l 1257 -250 l 1438 -250 l 1438 118 l 1299 118 l 1299 917 l 1104 917 l 1104 118 l 576 118 l 576 799 l 924 799 l 924 917 l 35 917 z "},"ҵ":{"ha":1194,"x_min":0,"x_max":0,"o":"m 49 563 l 299 563 l 299 0 l 993 0 l 993 -222 l 1160 -222 l 1160 104 l 1035 104 l 1035 667 l 854 667 l 854 104 l 479 104 l 479 563 l 729 563 l 729 667 l 49 667 z "},"Ҷ":{"ha":1125,"x_min":0,"x_max":0,"o":"m 76 528 b 285 361 76 417 146 361 l 757 361 l 757 0 l 910 0 l 910 -250 l 1090 -250 l 1090 118 l 951 118 l 951 917 l 757 917 l 757 479 l 326 479 b 271 524 289 479 271 494 l 271 917 l 76 917 z "},"ҷ":{"ha":944,"x_min":0,"x_max":0,"o":"m 76 413 b 271 257 76 308 142 257 l 604 257 l 604 0 l 743 0 l 743 -222 l 910 -222 l 910 104 l 785 104 l 785 667 l 604 667 l 604 361 l 306 361 b 257 400 274 361 257 374 l 257 667 l 76 667 z "},"Ҹ":{"ha":1056,"x_min":0,"x_max":0,"o":"m 76 528 b 285 361 76 417 146 361 l 451 361 l 451 167 l 569 167 l 569 361 l 757 361 l 757 0 l 951 0 l 951 917 l 757 917 l 757 479 l 569 479 l 569 674 l 451 674 l 451 479 l 326 479 b 271 524 289 479 271 494 l 271 917 l 76 917 z "},"ҹ":{"ha":875,"x_min":0,"x_max":0,"o":"m 76 413 b 271 257 76 308 142 257 l 375 257 l 375 118 l 479 118 l 479 257 l 604 257 l 604 0 l 785 0 l 785 667 l 604 667 l 604 361 l 479 361 l 479 500 l 375 500 l 375 361 l 306 361 b 257 400 274 361 257 374 l 257 667 l 76 667 z "},"Һ":{"ha":1069,"x_min":0,"x_max":0,"o":"m 104 0 l 299 0 l 299 431 l 729 431 b 785 386 767 431 785 415 l 785 0 l 979 0 l 979 382 b 771 549 979 493 910 549 l 299 549 l 299 917 l 104 917 z "},"һ":{"ha":875,"x_min":0,"x_max":0,"o":"m 90 0 l 271 0 l 271 299 l 569 299 b 618 260 601 299 618 286 l 618 0 l 799 0 l 799 247 b 604 403 799 351 733 403 l 271 403 l 271 667 l 90 667 z "},"Ҽ":{"ha":1278,"x_min":0,"x_max":0,"o":"m 35 431 l 271 431 l 271 167 b 479 0 271 56 340 0 l 1132 0 l 1132 118 l 521 118 b 465 163 483 118 465 133 l 465 431 l 1174 431 l 1174 750 b 965 917 1174 861 1104 917 l 479 917 b 271 750 340 917 271 861 l 271 549 l 35 549 z m 465 549 l 465 754 b 521 799 465 783 483 799 l 924 799 b 979 754 961 799 979 783 l 979 549 z "},"ҽ":{"ha":1042,"x_min":0,"x_max":0,"o":"m 49 299 l 243 299 l 243 156 b 438 0 243 51 308 0 l 924 0 l 924 104 l 472 104 b 424 143 440 104 424 117 l 424 299 l 951 299 l 951 511 b 757 667 951 615 886 667 l 438 667 b 243 511 308 667 243 615 l 243 403 l 49 403 z m 424 403 l 424 524 b 472 563 424 550 440 563 l 722 563 b 771 524 754 563 771 550 l 771 403 z "},"Ӏ":{"ha":403,"x_min":0,"x_max":0,"o":"m 104 0 l 299 0 l 299 917 l 104 917 z "},"Ӂ":{"ha":1542,"x_min":0,"x_max":0,"o":"m 21 0 l 243 0 l 558 408 l 674 297 l 674 0 l 868 0 l 868 297 l 983 408 l 1299 0 l 1521 0 l 1110 532 l 1507 917 l 1268 917 l 868 529 l 868 917 l 674 917 l 674 529 l 274 917 l 35 917 l 432 532 z m 569 1083 b 674 1000 569 1028 604 1000 l 868 1000 b 972 1083 938 1000 972 1028 l 972 1222 l 861 1222 l 861 1093 b 840 1076 861 1082 854 1076 l 701 1076 b 681 1093 688 1076 681 1082 l 681 1222 l 569 1222 z "},"ӂ":{"ha":1222,"x_min":0,"x_max":0,"o":"m 21 0 l 218 0 l 435 276 l 521 193 l 521 0 l 701 0 l 701 193 l 788 276 l 1004 0 l 1201 0 l 900 386 l 1188 667 l 969 667 l 701 406 l 701 667 l 521 667 l 521 406 l 253 667 l 35 667 l 322 386 z m 410 833 b 514 750 410 778 444 750 l 708 750 b 813 833 778 750 813 778 l 813 972 l 701 972 l 701 843 b 681 826 701 832 694 826 l 542 826 b 521 843 528 826 521 832 l 521 972 l 410 972 z "},"Ӌ":{"ha":1056,"x_min":0,"x_max":0,"o":"m 76 528 b 285 361 76 417 146 361 l 757 361 l 757 118 l 618 118 l 618 -250 l 799 -250 l 799 0 l 951 0 l 951 917 l 757 917 l 757 479 l 326 479 b 271 524 289 479 271 494 l 271 917 l 76 917 z "},"ӌ":{"ha":875,"x_min":0,"x_max":0,"o":"m 76 413 b 271 257 76 308 142 257 l 604 257 l 604 104 l 479 104 l 479 -222 l 646 -222 l 646 0 l 785 0 l 785 667 l 604 667 l 604 361 l 306 361 b 257 400 274 361 257 374 l 257 667 l 76 667 z "},"ӏ":{"ha":361,"x_min":0,"x_max":0,"o":"m 90 0 l 271 0 l 271 917 l 90 917 z "},"Ӑ":{"ha":1111,"x_min":0,"x_max":0,"o":"m 14 0 l 211 0 l 318 229 l 793 229 l 900 0 l 1097 0 l 667 917 l 444 917 z m 354 1083 b 458 1000 354 1028 389 1000 l 653 1000 b 757 1083 722 1000 757 1028 l 757 1222 l 646 1222 l 646 1093 b 625 1076 646 1082 639 1076 l 486 1076 b 465 1093 472 1076 465 1082 l 465 1222 l 354 1222 z m 374 347 l 556 736 l 738 347 z "},"ӑ":{"ha":875,"x_min":0,"x_max":0,"o":"m 76 156 b 271 0 76 51 142 0 l 785 0 l 785 511 b 590 667 785 615 719 667 l 132 667 l 132 563 l 556 563 b 604 524 588 563 604 550 l 604 403 l 271 403 b 76 247 142 403 76 351 z m 236 833 b 340 750 236 778 271 750 l 535 750 b 639 833 604 750 639 778 l 639 972 l 528 972 l 528 843 b 507 826 528 832 521 826 l 368 826 b 347 843 354 826 347 832 l 347 972 l 236 972 z m 257 143 l 257 260 b 306 299 257 286 274 299 l 604 299 l 604 104 l 306 104 b 257 143 274 104 257 117 z "},"Ӓ":{"ha":1111,"x_min":0,"x_max":0,"o":"m 14 0 l 211 0 l 318 229 l 793 229 l 900 0 l 1097 0 l 667 917 l 444 917 z m 326 1042 l 486 1042 l 486 1181 l 326 1181 z m 374 347 l 556 736 l 738 347 z m 625 1042 l 785 1042 l 785 1181 l 625 1181 z "},"ӓ":{"ha":875,"x_min":0,"x_max":0,"o":"m 76 156 b 271 0 76 51 142 0 l 785 0 l 785 511 b 590 667 785 615 719 667 l 132 667 l 132 563 l 556 563 b 604 524 588 563 604 550 l 604 403 l 271 403 b 76 247 142 403 76 351 z m 208 792 l 368 792 l 368 931 l 208 931 z m 257 143 l 257 260 b 306 299 257 286 274 299 l 604 299 l 604 104 l 306 104 b 257 143 274 104 257 117 z m 507 792 l 667 792 l 667 931 l 507 931 z "},"Ӕ":{"ha":1583,"x_min":0,"x_max":0,"o":"m 14 0 l 211 0 l 318 229 l 701 229 l 701 0 l 1507 0 l 1507 118 l 896 118 l 896 431 l 1438 431 l 1438 549 l 896 549 l 896 799 l 1507 799 l 1507 917 l 444 917 z m 374 347 l 585 799 l 701 799 l 701 347 z "},"ӕ":{"ha":1403,"x_min":0,"x_max":0,"o":"m 76 156 b 271 0 76 51 142 0 l 1285 0 l 1285 104 l 833 104 b 785 143 801 104 785 117 l 785 299 l 1313 299 l 1313 511 b 1118 667 1313 615 1247 667 l 132 667 l 132 563 l 556 563 b 604 524 588 563 604 550 l 604 403 l 271 403 b 76 247 142 403 76 351 z m 257 143 l 257 260 b 306 299 257 286 274 299 l 604 299 l 604 104 l 306 104 b 257 143 274 104 257 117 z m 785 403 l 785 524 b 833 563 785 550 801 563 l 1083 563 b 1132 524 1115 563 1132 550 l 1132 403 z "},"Ӗ":{"ha":1028,"x_min":0,"x_max":0,"o":"m 104 0 l 951 0 l 951 118 l 299 118 l 299 431 l 882 431 l 882 549 l 299 549 l 299 799 l 951 799 l 951 917 l 104 917 z m 326 1083 b 431 1000 326 1028 361 1000 l 625 1000 b 729 1083 694 1000 729 1028 l 729 1222 l 618 1222 l 618 1093 b 597 1076 618 1082 611 1076 l 458 1076 b 438 1093 444 1076 438 1082 l 438 1222 l 326 1222 z "},"ӗ":{"ha":889,"x_min":0,"x_max":0,"o":"m 90 156 b 285 0 90 51 156 0 l 771 0 l 771 104 l 319 104 b 271 143 288 104 271 117 l 271 299 l 799 299 l 799 511 b 604 667 799 615 733 667 l 285 667 b 90 511 156 667 90 615 z m 243 833 b 347 750 243 778 278 750 l 542 750 b 646 833 611 750 646 778 l 646 972 l 535 972 l 535 843 b 514 826 535 832 528 826 l 375 826 b 354 843 361 826 354 832 l 354 972 l 243 972 z m 271 403 l 271 524 b 319 563 271 550 288 563 l 569 563 b 618 524 601 563 618 550 l 618 403 z "},"Ә":{"ha":1111,"x_min":0,"x_max":0,"o":"m 104 167 b 313 0 104 56 174 0 l 799 0 b 1007 167 938 0 1007 56 l 1007 750 b 799 917 1007 861 938 917 l 146 917 l 146 799 l 757 799 b 813 754 794 799 813 783 l 813 486 l 104 486 z m 299 163 l 299 368 l 813 368 l 813 163 b 757 118 813 133 794 118 l 354 118 b 299 163 317 118 299 133 z "},"ә":{"ha":889,"x_min":0,"x_max":0,"o":"m 90 156 b 285 0 90 51 156 0 l 604 0 b 799 156 733 0 799 51 l 799 511 b 604 667 799 615 733 667 l 118 667 l 118 563 l 569 563 b 618 524 601 563 618 550 l 618 368 l 90 368 z m 271 143 l 271 264 l 618 264 l 618 143 b 569 104 618 117 601 104 l 319 104 b 271 143 288 104 271 117 z "},"Ӝ":{"ha":1542,"x_min":0,"x_max":0,"o":"m 21 0 l 243 0 l 558 408 l 674 297 l 674 0 l 868 0 l 868 297 l 983 408 l 1299 0 l 1521 0 l 1110 532 l 1507 917 l 1268 917 l 868 529 l 868 917 l 674 917 l 674 529 l 274 917 l 35 917 l 432 532 z m 542 1042 l 701 1042 l 701 1181 l 542 1181 z m 840 1042 l 1000 1042 l 1000 1181 l 840 1181 z "},"ӝ":{"ha":1222,"x_min":0,"x_max":0,"o":"m 21 0 l 218 0 l 435 276 l 521 193 l 521 0 l 701 0 l 701 193 l 788 276 l 1004 0 l 1201 0 l 900 386 l 1188 667 l 969 667 l 701 406 l 701 667 l 521 667 l 521 406 l 253 667 l 35 667 l 322 386 z m 382 792 l 542 792 l 542 931 l 382 931 z m 681 792 l 840 792 l 840 931 l 681 931 z "},"Ӟ":{"ha":1028,"x_min":0,"x_max":0,"o":"m 76 0 l 715 0 b 924 167 854 0 924 56 l 924 343 b 826 493 924 419 892 468 b 924 643 892 518 924 567 l 924 750 b 715 917 924 861 854 917 l 76 917 l 76 799 l 674 799 b 729 754 711 799 729 783 l 729 593 b 674 549 729 564 711 549 l 201 549 l 201 431 l 674 431 b 729 386 711 431 729 415 l 729 163 b 674 118 729 133 711 118 l 76 118 z m 271 1042 l 431 1042 l 431 1181 l 271 1181 z m 569 1042 l 729 1042 l 729 1181 l 569 1181 z "},"ӟ":{"ha":806,"x_min":0,"x_max":0,"o":"m 63 0 l 521 0 b 715 156 650 0 715 51 l 715 215 b 625 354 715 271 696 328 b 715 503 699 385 715 439 b 521 667 715 606 663 667 l 63 667 l 63 563 l 486 563 b 535 524 518 563 535 550 l 535 442 b 486 403 535 415 518 403 l 160 403 l 160 299 l 486 299 b 535 260 518 299 535 286 l 535 143 b 486 104 535 117 518 104 l 63 104 z m 160 792 l 319 792 l 319 931 l 160 931 z m 458 792 l 618 792 l 618 931 l 458 931 z "},"Ӡ":{"ha":1028,"x_min":0,"x_max":0,"o":"m 76 0 l 715 0 b 924 167 854 0 924 56 l 924 382 b 661 549 924 549 779 549 l 924 799 l 924 917 l 76 917 l 76 799 l 686 799 l 424 549 l 424 431 l 674 431 b 729 386 711 431 729 415 l 729 163 b 674 118 729 133 711 118 l 76 118 z "},"ӡ":{"ha":806,"x_min":0,"x_max":0,"o":"m 63 0 l 521 0 b 715 156 650 0 715 51 l 715 247 b 532 403 715 349 653 400 l 715 563 l 715 667 l 63 667 l 63 563 l 496 563 l 313 403 l 313 299 l 486 299 b 535 260 518 299 535 286 l 535 143 b 486 104 535 117 518 104 l 63 104 z "},"Ӣ":{"ha":1139,"x_min":0,"x_max":0,"o":"m 104 0 l 326 0 l 840 678 l 840 0 l 1035 0 l 1035 917 l 813 917 l 299 239 l 299 917 l 104 917 z m 340 1063 l 799 1063 l 799 1167 l 340 1167 z "},"ӣ":{"ha":931,"x_min":0,"x_max":0,"o":"m 90 0 l 299 0 l 660 456 l 660 0 l 840 0 l 840 667 l 632 667 l 271 211 l 271 667 l 90 667 z m 236 813 l 694 813 l 694 917 l 236 917 z "},"Ӥ":{"ha":1139,"x_min":0,"x_max":0,"o":"m 104 0 l 326 0 l 840 678 l 840 0 l 1035 0 l 1035 917 l 813 917 l 299 239 l 299 917 l 104 917 z m 340 1042 l 500 1042 l 500 1181 l 340 1181 z m 639 1042 l 799 1042 l 799 1181 l 639 1181 z "},"ӥ":{"ha":931,"x_min":0,"x_max":0,"o":"m 90 0 l 299 0 l 660 456 l 660 0 l 840 0 l 840 667 l 632 667 l 271 211 l 271 667 l 90 667 z m 236 792 l 396 792 l 396 931 l 236 931 z m 535 792 l 694 792 l 694 931 l 535 931 z "},"Ӧ":{"ha":1125,"x_min":0,"x_max":0,"o":"m 104 167 b 313 0 104 56 174 0 l 813 0 b 1021 167 951 0 1021 56 l 1021 750 b 813 917 1021 861 951 917 l 313 917 b 104 750 174 917 104 861 z m 299 163 l 299 754 b 354 799 299 783 317 799 l 771 799 b 826 754 808 799 826 783 l 826 163 b 771 118 826 133 808 118 l 354 118 b 299 163 317 118 299 133 z m 333 1042 l 493 1042 l 493 1181 l 333 1181 z m 632 1042 l 792 1042 l 792 1181 l 632 1181 z "},"ӧ":{"ha":917,"x_min":0,"x_max":0,"o":"m 90 156 b 285 0 90 51 156 0 l 632 0 b 826 156 761 0 826 51 l 826 511 b 632 667 826 615 761 667 l 285 667 b 90 511 156 667 90 615 z m 229 792 l 389 792 l 389 931 l 229 931 z m 271 143 l 271 524 b 319 563 271 550 288 563 l 597 563 b 646 524 629 563 646 550 l 646 143 b 597 104 646 117 629 104 l 319 104 b 271 143 288 104 271 117 z m 528 792 l 688 792 l 688 931 l 528 931 z "},"Ө":{"ha":1125,"x_min":0,"x_max":0,"o":"m 104 167 b 313 0 104 56 174 0 l 813 0 b 1021 167 951 0 1021 56 l 1021 750 b 813 917 1021 861 951 917 l 313 917 b 104 750 174 917 104 861 z m 299 163 l 299 438 l 826 438 l 826 163 b 771 118 826 133 808 118 l 354 118 b 299 163 317 118 299 133 z m 299 542 l 299 754 b 354 799 299 783 317 799 l 771 799 b 826 754 808 799 826 783 l 826 542 z "},"ө":{"ha":917,"x_min":0,"x_max":0,"o":"m 90 156 b 285 0 90 51 156 0 l 632 0 b 826 156 761 0 826 51 l 826 511 b 632 667 826 615 761 667 l 285 667 b 90 511 156 667 90 615 z m 271 143 l 271 306 l 646 306 l 646 143 b 597 104 646 117 629 104 l 319 104 b 271 143 288 104 271 117 z m 271 396 l 271 524 b 319 563 271 550 288 563 l 597 563 b 646 524 629 563 646 550 l 646 396 z "},"Ӯ":{"ha":1000,"x_min":0,"x_max":0,"o":"m 14 917 l 404 250 l 264 0 l 471 0 l 986 917 l 779 917 l 507 433 l 221 917 z m 271 1063 l 729 1063 l 729 1167 l 271 1167 z "},"ӯ":{"ha":889,"x_min":0,"x_max":0,"o":"m 21 667 l 353 -11 l 217 -292 l 399 -292 l 868 667 l 686 667 l 444 174 l 203 667 z m 215 813 l 674 813 l 674 917 l 215 917 z "},"Ӱ":{"ha":1000,"x_min":0,"x_max":0,"o":"m 14 917 l 404 250 l 264 0 l 471 0 l 986 917 l 779 917 l 507 433 l 221 917 z m 271 1042 l 431 1042 l 431 1181 l 271 1181 z m 569 1042 l 729 1042 l 729 1181 l 569 1181 z "},"ӱ":{"ha":889,"x_min":0,"x_max":0,"o":"m 21 667 l 353 -11 l 217 -292 l 399 -292 l 868 667 l 686 667 l 444 174 l 203 667 z m 215 792 l 375 792 l 375 931 l 215 931 z m 514 792 l 674 792 l 674 931 l 514 931 z "},"Ӳ":{"ha":1000,"x_min":0,"x_max":0,"o":"m 14 917 l 404 250 l 264 0 l 471 0 l 986 917 l 779 917 l 507 433 l 221 917 z m 278 1000 l 403 1000 l 583 1222 l 417 1222 z m 542 1000 l 667 1000 l 847 1222 l 681 1222 z "},"ӳ":{"ha":889,"x_min":0,"x_max":0,"o":"m 21 667 l 353 -11 l 217 -292 l 399 -292 l 868 667 l 686 667 l 444 174 l 203 667 z m 222 750 l 347 750 l 528 972 l 361 972 z m 486 750 l 611 750 l 792 972 l 625 972 z "},"Ӵ":{"ha":1056,"x_min":0,"x_max":0,"o":"m 76 528 b 285 361 76 417 146 361 l 757 361 l 757 0 l 951 0 l 951 917 l 757 917 l 757 479 l 326 479 b 271 524 289 479 271 494 l 271 917 l 76 917 z m 285 1042 l 444 1042 l 444 1181 l 285 1181 z m 583 1042 l 743 1042 l 743 1181 l 583 1181 z "},"ӵ":{"ha":875,"x_min":0,"x_max":0,"o":"m 76 413 b 271 257 76 308 142 257 l 604 257 l 604 0 l 785 0 l 785 667 l 604 667 l 604 361 l 306 361 b 257 400 274 361 257 374 l 257 667 l 76 667 z m 201 792 l 361 792 l 361 931 l 201 931 z m 500 792 l 660 792 l 660 931 l 500 931 z "},"Ӷ":{"ha":903,"x_min":0,"x_max":0,"o":"m 104 0 l 257 0 l 257 -250 l 438 -250 l 438 118 l 299 118 l 299 799 l 868 799 l 868 917 l 104 917 z "},"ӷ":{"ha":750,"x_min":0,"x_max":0,"o":"m 90 0 l 229 0 l 229 -222 l 396 -222 l 396 104 l 271 104 l 271 563 l 701 563 l 701 667 l 90 667 z "},"Ӹ":{"ha":1431,"x_min":0,"x_max":0,"o":"m 104 0 l 771 0 b 979 167 910 0 979 56 l 979 382 b 771 549 979 493 910 549 l 299 549 l 299 917 l 104 917 z m 299 118 l 299 431 l 729 431 b 785 386 767 431 785 415 l 785 163 b 729 118 785 133 767 118 z m 500 1042 l 660 1042 l 660 1181 l 500 1181 z m 799 1042 l 958 1042 l 958 1181 l 799 1181 z m 1132 0 l 1326 0 l 1326 917 l 1132 917 z "},"ӹ":{"ha":1208,"x_min":0,"x_max":0,"o":"m 90 0 l 604 0 b 799 156 733 0 799 51 l 799 247 b 604 403 799 351 733 403 l 271 403 l 271 667 l 90 667 z m 271 104 l 271 299 l 569 299 b 618 260 601 299 618 286 l 618 143 b 569 104 618 117 601 104 z m 375 792 l 535 792 l 535 931 l 375 931 z m 674 792 l 833 792 l 833 931 l 674 931 z m 938 0 l 1118 0 l 1118 667 l 938 667 z "},"Ԥ":{"ha":1194,"x_min":0,"x_max":0,"o":"m 104 0 l 299 0 l 299 799 l 826 799 l 826 0 l 979 0 l 979 -250 l 1160 -250 l 1160 118 l 1021 118 l 1021 917 l 104 917 z "},"ԥ":{"ha":986,"x_min":0,"x_max":0,"o":"m 90 0 l 271 0 l 271 563 l 646 563 l 646 0 l 785 0 l 785 -222 l 951 -222 l 951 104 l 826 104 l 826 667 l 90 667 z "},"Ḃ":{"ha":1083,"x_min":0,"x_max":0,"o":"m 104 0 l 785 0 b 993 167 924 0 993 56 l 993 340 b 889 493 993 419 958 469 b 979 640 949 518 979 567 l 979 750 b 771 917 979 861 910 917 l 104 917 z m 299 118 l 299 431 l 743 431 b 799 386 781 431 799 415 l 799 163 b 743 118 799 133 781 118 z m 299 549 l 299 799 l 729 799 b 785 754 767 799 785 783 l 785 593 b 729 549 785 564 767 549 z m 458 1042 l 639 1042 l 639 1181 l 458 1181 z "},"ḃ":{"ha":917,"x_min":0,"x_max":0,"o":"m 90 0 l 632 0 b 826 156 761 0 826 51 l 826 511 b 632 667 826 615 761 667 l 271 667 l 271 917 l 90 917 z m 271 104 l 271 563 l 597 563 b 646 524 629 563 646 550 l 646 143 b 597 104 646 117 629 104 z m 368 1042 l 549 1042 l 549 1181 l 368 1181 z "},"Ḋ":{"ha":1111,"x_min":0,"x_max":0,"o":"m 104 0 l 576 0 b 1021 356 872 0 1021 118 l 1021 561 b 576 917 1021 799 872 917 l 104 917 z m 299 118 l 299 799 l 549 799 b 826 576 733 799 826 725 l 826 340 b 549 118 826 192 733 118 z m 444 1042 l 625 1042 l 625 1181 l 444 1181 z "},"ḋ":{"ha":917,"x_min":0,"x_max":0,"o":"m 90 156 b 285 0 90 51 156 0 l 826 0 l 826 917 l 646 917 l 646 667 l 285 667 b 90 511 156 667 90 615 z m 271 143 l 271 524 b 319 563 271 550 288 563 l 646 563 l 646 104 l 319 104 b 271 143 288 104 271 117 z m 368 1042 l 549 1042 l 549 1181 l 368 1181 z "},"Ḟ":{"ha":986,"x_min":0,"x_max":0,"o":"m 104 0 l 299 0 l 299 417 l 868 417 l 868 535 l 299 535 l 299 799 l 938 799 l 938 917 l 104 917 z m 431 1042 l 611 1042 l 611 1181 l 431 1181 z "},"ḟ":{"ha":569,"x_min":0,"x_max":0,"o":"m 90 0 l 271 0 l 271 563 l 521 563 l 521 667 l 271 667 l 271 774 b 319 813 271 800 288 813 l 521 813 l 521 917 l 285 917 b 90 761 156 917 90 865 z m 215 1042 l 396 1042 l 396 1181 l 215 1181 z "},"Ṁ":{"ha":1403,"x_min":0,"x_max":0,"o":"m 104 0 l 299 0 l 299 640 l 604 0 l 799 0 l 1104 640 l 1104 0 l 1299 0 l 1299 917 l 1049 917 l 701 189 l 354 917 l 104 917 z m 611 1042 l 792 1042 l 792 1181 l 611 1181 z "},"ṁ":{"ha":1306,"x_min":0,"x_max":0,"o":"m 90 0 l 271 0 l 271 563 l 514 563 b 563 524 546 563 563 550 l 563 0 l 743 0 l 743 563 l 986 563 b 1035 524 1018 563 1035 550 l 1035 0 l 1215 0 l 1215 511 b 1021 667 1215 615 1150 667 l 90 667 z m 563 792 l 743 792 l 743 931 l 563 931 z "},"Ṗ":{"ha":1056,"x_min":0,"x_max":0,"o":"m 104 0 l 299 0 l 299 361 l 771 361 b 979 528 910 361 979 417 l 979 750 b 771 917 979 861 910 917 l 104 917 z m 299 479 l 299 799 l 729 799 b 785 754 767 799 785 783 l 785 524 b 729 479 785 494 767 479 z m 451 1042 l 632 1042 l 632 1181 l 451 1181 z "},"ṗ":{"ha":917,"x_min":0,"x_max":0,"o":"m 90 -292 l 271 -292 l 271 0 l 632 0 b 826 156 761 0 826 51 l 826 511 b 632 667 826 615 761 667 l 90 667 z m 271 104 l 271 563 l 597 563 b 646 524 629 563 646 550 l 646 143 b 597 104 646 117 629 104 z m 368 792 l 549 792 l 549 931 l 368 931 z "},"Ṡ":{"ha":1056,"x_min":0,"x_max":0,"o":"m 90 0 l 757 0 b 965 167 896 0 965 56 l 965 382 b 757 549 965 493 896 549 l 340 549 b 285 593 303 549 285 564 l 285 754 b 340 799 285 783 303 799 l 896 799 l 896 917 l 299 917 b 90 750 160 917 90 861 l 90 597 b 299 431 90 486 160 431 l 715 431 b 771 386 753 431 771 415 l 771 163 b 715 118 771 133 753 118 l 90 118 z m 438 1042 l 618 1042 l 618 1181 l 438 1181 z "},"ṡ":{"ha":819,"x_min":0,"x_max":0,"o":"m 76 0 l 549 0 b 743 156 678 0 743 51 l 743 247 b 549 403 743 351 678 403 l 306 403 b 257 442 274 403 257 415 l 257 524 b 306 563 257 550 274 563 l 688 563 l 688 667 l 271 667 b 76 511 142 667 76 615 l 76 454 b 271 299 76 350 142 299 l 514 299 b 563 260 546 299 563 286 l 563 143 b 514 104 563 117 546 104 l 76 104 z m 319 792 l 500 792 l 500 931 l 319 931 z "},"Ṫ":{"ha":1042,"x_min":0,"x_max":0,"o":"m 35 799 l 424 799 l 424 0 l 618 0 l 618 799 l 1007 799 l 1007 917 l 35 917 z m 431 1042 l 611 1042 l 611 1181 l 431 1181 z "},"ṫ":{"ha":583,"x_min":0,"x_max":0,"o":"m 90 156 b 285 0 90 51 156 0 l 521 0 l 521 104 l 319 104 b 271 143 288 104 271 117 l 271 563 l 521 563 l 521 667 l 271 667 l 271 917 l 90 917 z m 215 1042 l 396 1042 l 396 1181 l 215 1181 z "},"Ẁ":{"ha":1611,"x_min":0,"x_max":0,"o":"m 28 917 l 313 0 l 569 0 l 806 699 l 1042 0 l 1299 0 l 1583 917 l 1389 917 l 1163 189 l 917 917 l 694 917 l 449 189 l 222 917 z m 583 1222 l 778 1000 l 917 1000 l 764 1222 z "},"ẁ":{"ha":1236,"x_min":0,"x_max":0,"o":"m 21 667 l 250 0 l 451 0 l 618 485 l 785 0 l 986 0 l 1215 667 l 1042 667 l 875 181 l 708 667 l 528 667 l 361 181 l 194 667 z m 396 972 l 590 750 l 729 750 l 576 972 z "},"Ẃ":{"ha":1611,"x_min":0,"x_max":0,"o":"m 28 917 l 313 0 l 569 0 l 806 699 l 1042 0 l 1299 0 l 1583 917 l 1389 917 l 1163 189 l 917 917 l 694 917 l 449 189 l 222 917 z m 694 1000 l 833 1000 l 1028 1222 l 847 1222 z "},"ẃ":{"ha":1236,"x_min":0,"x_max":0,"o":"m 21 667 l 250 0 l 451 0 l 618 485 l 785 0 l 986 0 l 1215 667 l 1042 667 l 875 181 l 708 667 l 528 667 l 361 181 l 194 667 z m 507 750 l 646 750 l 840 972 l 660 972 z "},"Ẅ":{"ha":1611,"x_min":0,"x_max":0,"o":"m 28 917 l 313 0 l 569 0 l 806 699 l 1042 0 l 1299 0 l 1583 917 l 1389 917 l 1163 189 l 917 917 l 694 917 l 449 189 l 222 917 z m 576 1042 l 736 1042 l 736 1181 l 576 1181 z m 875 1042 l 1035 1042 l 1035 1181 l 875 1181 z "},"ẅ":{"ha":1236,"x_min":0,"x_max":0,"o":"m 21 667 l 250 0 l 451 0 l 618 485 l 785 0 l 986 0 l 1215 667 l 1042 667 l 875 181 l 708 667 l 528 667 l 361 181 l 194 667 z m 389 792 l 549 792 l 549 931 l 389 931 z m 688 792 l 847 792 l 847 931 l 688 931 z "},"ẞ":{"ha":1111,"x_min":0,"x_max":0,"o":"m 104 0 l 299 0 l 299 754 b 354 799 299 783 317 799 l 690 799 l 493 549 l 493 431 l 771 431 b 826 386 808 431 826 415 l 826 163 b 771 118 826 133 808 118 l 493 118 l 493 0 l 813 0 b 1021 167 951 0 1021 56 l 1021 382 b 813 549 1021 493 951 549 l 713 549 l 910 799 l 910 917 l 313 917 b 104 750 174 917 104 861 z "},"Ỳ":{"ha":1083,"x_min":0,"x_max":0,"o":"m 14 917 l 444 347 l 444 0 l 639 0 l 639 347 l 1069 917 l 853 917 l 542 504 l 231 917 z m 319 1222 l 514 1000 l 653 1000 l 500 1222 z "},"ỳ":{"ha":889,"x_min":0,"x_max":0,"o":"m 21 667 l 353 -11 l 217 -292 l 399 -292 l 868 667 l 686 667 l 444 174 l 203 667 z m 222 972 l 417 750 l 556 750 l 403 972 z "}," ":{"ha":986,"x_min":0,"x_max":0,"o":""}," ":{"ha":417,"x_min":0,"x_max":0,"o":""}," ":{"ha":278,"x_min":0,"x_max":0,"o":""}," ":{"ha":139,"x_min":0,"x_max":0,"o":""},"‒":{"ha":986,"x_min":0,"x_max":0,"o":"m 222 333 l 764 333 l 764 458 l 222 458 z "},"–":{"ha":861,"x_min":0,"x_max":0,"o":"m 63 333 l 799 333 l 799 458 l 63 458 z "},"—":{"ha":1389,"x_min":0,"x_max":0,"o":"m 63 333 l 1326 333 l 1326 458 l 63 458 z "},"―":{"ha":1389,"x_min":0,"x_max":0,"o":"m 0 333 l 1389 333 l 1389 458 l 0 458 z "},"‘":{"ha":417,"x_min":0,"x_max":0,"o":"m 63 569 l 250 569 l 340 917 l 201 917 z "},"’":{"ha":417,"x_min":0,"x_max":0,"o":"m 76 569 l 215 569 l 354 917 l 167 917 z "},"‚":{"ha":417,"x_min":0,"x_max":0,"o":"m 42 -181 l 181 -181 l 319 167 l 132 167 z "},"‛":{"ha":417,"x_min":0,"x_max":0,"o":"m 63 917 l 201 569 l 340 569 l 250 917 z "},"“":{"ha":736,"x_min":0,"x_max":0,"o":"m 63 569 l 250 569 l 340 917 l 201 917 z m 382 569 l 569 569 l 660 917 l 521 917 z "},"”":{"ha":736,"x_min":0,"x_max":0,"o":"m 76 569 l 215 569 l 354 917 l 167 917 z m 396 569 l 535 569 l 674 917 l 486 917 z "},"„":{"ha":736,"x_min":0,"x_max":0,"o":"m 42 -181 l 181 -181 l 319 167 l 132 167 z m 361 -181 l 500 -181 l 639 167 l 451 167 z "},"‟":{"ha":736,"x_min":0,"x_max":0,"o":"m 63 917 l 201 569 l 340 569 l 250 917 z m 382 917 l 521 569 l 660 569 l 569 917 z "},"†":{"ha":833,"x_min":0,"x_max":0,"o":"m 76 563 l 326 563 l 326 -146 l 507 -146 l 507 563 l 757 563 l 757 667 l 507 667 l 507 917 l 326 917 l 326 667 l 76 667 z "},"‡":{"ha":833,"x_min":0,"x_max":0,"o":"m 76 104 l 326 104 l 326 -146 l 507 -146 l 507 104 l 757 104 l 757 208 l 507 208 l 507 563 l 757 563 l 757 667 l 507 667 l 507 917 l 326 917 l 326 667 l 76 667 l 76 563 l 326 563 l 326 208 l 76 208 z "},"•":{"ha":556,"x_min":0,"x_max":0,"o":"m 111 292 l 444 292 l 444 597 l 111 597 z "},"…":{"ha":1250,"x_min":0,"x_max":0,"o":"m 111 0 l 306 0 l 306 167 l 111 167 z m 528 0 l 722 0 l 722 167 l 528 167 z m 944 0 l 1139 0 l 1139 167 l 944 167 z "}," ":{"ha":278,"x_min":0,"x_max":0,"o":""},"‰":{"ha":2083,"x_min":0,"x_max":0,"o":"m 56 494 b 188 389 56 424 100 389 l 424 389 b 556 494 511 389 556 424 l 556 811 b 424 917 556 882 511 917 l 188 917 b 56 811 100 917 56 882 z m 194 494 l 194 811 b 222 833 194 826 204 833 l 389 833 b 417 811 407 833 417 826 l 417 494 b 389 472 417 479 407 472 l 222 472 b 194 494 204 472 194 479 z m 389 0 l 556 0 l 1083 917 l 917 917 z m 917 106 b 1049 0 917 35 961 0 l 1285 0 b 1417 106 1372 0 1417 35 l 1417 422 b 1285 528 1417 493 1372 528 l 1049 528 b 917 422 961 528 917 493 z m 1056 106 l 1056 422 b 1083 444 1056 438 1065 444 l 1250 444 b 1278 422 1268 444 1278 438 l 1278 106 b 1250 83 1278 90 1268 83 l 1083 83 b 1056 106 1065 83 1056 90 z m 1528 106 b 1660 0 1528 35 1572 0 l 1896 0 b 2028 106 1983 0 2028 35 l 2028 422 b 1896 528 2028 493 1983 528 l 1660 528 b 1528 422 1572 528 1528 493 z m 1667 106 l 1667 422 b 1694 444 1667 438 1676 444 l 1861 444 b 1889 422 1879 444 1889 438 l 1889 106 b 1861 83 1889 90 1879 83 l 1694 83 b 1667 106 1676 83 1667 90 z "},"′":{"ha":375,"x_min":0,"x_max":0,"o":"m 104 569 l 271 569 l 271 917 l 104 917 z "},"″":{"ha":694,"x_min":0,"x_max":0,"o":"m 104 569 l 271 569 l 271 917 l 104 917 z m 424 569 l 590 569 l 590 917 l 424 917 z "},"‹":{"ha":556,"x_min":0,"x_max":0,"o":"m 49 361 l 306 83 l 493 83 l 250 361 l 493 639 l 306 639 z "},"›":{"ha":556,"x_min":0,"x_max":0,"o":"m 63 83 l 250 83 l 507 361 l 250 639 l 63 639 l 306 361 z "},"‽":{"ha":958,"x_min":0,"x_max":0,"o":"m 63 799 l 313 799 l 313 299 l 507 299 l 507 431 l 674 431 b 882 597 813 431 882 486 l 882 750 b 674 917 882 861 813 917 l 63 917 z m 313 0 l 507 0 l 507 167 l 313 167 z m 507 549 l 507 799 l 632 799 b 688 754 669 799 688 783 l 688 593 b 632 549 688 564 669 549 z "},"‾":{"ha":861,"x_min":0,"x_max":0,"o":"m 0 1056 l 861 1056 l 861 1160 l 0 1160 z "},"⁄":{"ha":250,"x_min":0,"x_max":0,"o":"m -222 0 l -56 0 l 472 917 l 306 917 z "},"⁰":{"ha":611,"x_min":0,"x_max":0,"o":"m 56 494 b 188 389 56 424 100 389 l 424 389 b 556 494 511 389 556 424 l 556 811 b 424 917 556 882 511 917 l 188 917 b 56 811 100 917 56 882 z m 194 494 l 194 811 b 222 833 194 826 204 833 l 389 833 b 417 811 407 833 417 826 l 417 494 b 389 472 417 479 407 472 l 222 472 b 194 494 204 472 194 479 z "},"⁴":{"ha":611,"x_min":0,"x_max":0,"o":"m 56 493 l 417 493 l 417 389 l 556 389 l 556 917 l 389 917 l 56 576 z m 219 576 l 417 779 l 417 576 z "},"⁵":{"ha":611,"x_min":0,"x_max":0,"o":"m 56 389 l 424 389 b 556 494 511 389 556 424 l 556 603 b 424 708 556 674 511 708 l 194 708 l 194 833 l 528 833 l 528 917 l 56 917 l 56 625 l 389 625 b 417 603 407 625 417 618 l 417 494 b 389 472 417 479 407 472 l 56 472 z "},"⁶":{"ha":611,"x_min":0,"x_max":0,"o":"m 56 494 b 188 389 56 424 100 389 l 424 389 b 556 494 511 389 556 424 l 556 603 b 424 708 556 674 511 708 l 194 708 l 194 789 b 250 833 194 818 213 833 l 514 833 l 514 917 l 215 917 b 56 789 108 917 56 874 z m 194 494 l 194 625 l 389 625 b 417 603 407 625 417 618 l 417 494 b 389 472 417 479 407 472 l 222 472 b 194 494 204 472 194 479 z "},"⁷":{"ha":611,"x_min":0,"x_max":0,"o":"m 56 833 l 397 833 l 154 389 l 313 389 l 556 833 l 556 917 l 56 917 z "},"⁸":{"ha":611,"x_min":0,"x_max":0,"o":"m 56 494 b 188 389 56 424 100 389 l 424 389 b 556 494 511 389 556 424 l 556 569 b 486 667 556 615 536 651 b 556 764 536 682 556 718 l 556 811 b 424 917 556 882 511 917 l 188 917 b 56 811 100 917 56 882 l 56 764 b 125 667 56 718 75 682 b 56 569 75 651 56 615 z m 194 494 l 194 603 b 222 625 194 618 204 625 l 389 625 b 417 603 407 625 417 618 l 417 494 b 389 472 417 479 407 472 l 222 472 b 194 494 204 472 194 479 z m 194 731 l 194 811 b 222 833 194 826 204 833 l 389 833 b 417 811 407 833 417 826 l 417 731 b 389 708 417 715 407 708 l 222 708 b 194 731 204 708 194 715 z "},"⁹":{"ha":611,"x_min":0,"x_max":0,"o":"m 56 731 b 188 625 56 660 100 625 l 417 625 l 417 517 b 361 472 417 488 399 472 l 83 472 l 83 389 l 396 389 b 556 517 503 389 556 432 l 556 811 b 424 917 556 882 511 917 l 188 917 b 56 811 100 917 56 882 z m 194 731 l 194 811 b 222 833 194 826 204 833 l 389 833 b 417 811 407 833 417 826 l 417 708 l 222 708 b 194 731 204 708 194 715 z "},"⁺":{"ha":611,"x_min":0,"x_max":0,"o":"m 83 569 l 243 569 l 243 417 l 368 417 l 368 569 l 528 569 l 528 667 l 368 667 l 368 819 l 243 819 l 243 667 l 83 667 z "},"⁻":{"ha":611,"x_min":0,"x_max":0,"o":"m 83 569 l 528 569 l 528 667 l 83 667 z "},"⁼":{"ha":611,"x_min":0,"x_max":0,"o":"m 83 472 l 528 472 l 528 569 l 83 569 z m 83 667 l 528 667 l 528 764 l 83 764 z "},"⁽":{"ha":361,"x_min":0,"x_max":0,"o":"m 76 583 b 194 250 76 458 118 340 l 313 250 b 201 583 243 340 201 465 b 313 917 201 701 243 826 l 194 917 b 76 583 118 826 76 708 z "},"⁾":{"ha":361,"x_min":0,"x_max":0,"o":"m 49 250 l 167 250 b 285 583 243 340 285 458 b 167 917 285 708 243 826 l 49 917 b 160 583 118 826 160 701 b 49 250 160 465 118 340 z "},"ⁿ":{"ha":611,"x_min":0,"x_max":0,"o":"m 56 474 l 194 474 l 194 833 l 389 833 b 417 811 407 833 417 826 l 417 474 l 556 474 l 556 811 b 424 917 556 882 511 917 l 56 917 z "},"₀":{"ha":611,"x_min":0,"x_max":0,"o":"m 56 106 b 188 0 56 35 100 0 l 424 0 b 556 106 511 0 556 35 l 556 422 b 424 528 556 493 511 528 l 188 528 b 56 422 100 528 56 493 z m 194 106 l 194 422 b 222 444 194 438 204 444 l 389 444 b 417 422 407 444 417 438 l 417 106 b 389 83 417 90 407 83 l 222 83 b 194 106 204 83 194 90 z "},"₁":{"ha":611,"x_min":0,"x_max":0,"o":"m 132 444 l 278 444 l 278 0 l 417 0 l 417 528 l 132 528 z "},"₂":{"ha":611,"x_min":0,"x_max":0,"o":"m 56 0 l 556 0 l 556 83 l 194 83 l 194 214 b 222 236 194 229 204 236 l 424 236 b 556 342 511 236 556 271 l 556 422 b 424 528 556 493 511 528 l 90 528 l 90 444 l 389 444 b 417 422 407 444 417 438 l 417 342 b 389 319 417 326 407 319 l 188 319 b 56 214 100 319 56 285 z "},"₃":{"ha":611,"x_min":0,"x_max":0,"o":"m 69 0 l 424 0 b 556 106 511 0 556 35 l 556 181 b 486 278 556 226 536 263 b 556 375 536 293 556 329 l 556 422 b 424 528 556 493 511 528 l 69 528 l 69 444 l 389 444 b 417 422 407 444 417 438 l 417 342 b 389 319 417 326 407 319 l 139 319 l 139 236 l 389 236 b 417 214 407 236 417 229 l 417 106 b 389 83 417 90 407 83 l 69 83 z "},"₄":{"ha":611,"x_min":0,"x_max":0,"o":"m 56 104 l 417 104 l 417 0 l 556 0 l 556 528 l 389 528 l 56 188 z m 219 188 l 417 390 l 417 188 z "},"₅":{"ha":611,"x_min":0,"x_max":0,"o":"m 56 0 l 424 0 b 556 106 511 0 556 35 l 556 214 b 424 319 556 285 511 319 l 194 319 l 194 444 l 528 444 l 528 528 l 56 528 l 56 236 l 389 236 b 417 214 407 236 417 229 l 417 106 b 389 83 417 90 407 83 l 56 83 z "},"₆":{"ha":611,"x_min":0,"x_max":0,"o":"m 56 106 b 188 0 56 35 100 0 l 424 0 b 556 106 511 0 556 35 l 556 214 b 424 319 556 285 511 319 l 194 319 l 194 400 b 250 444 194 429 213 444 l 514 444 l 514 528 l 215 528 b 56 400 108 528 56 485 z m 194 106 l 194 236 l 389 236 b 417 214 407 236 417 229 l 417 106 b 389 83 417 90 407 83 l 222 83 b 194 106 204 83 194 90 z "},"₇":{"ha":611,"x_min":0,"x_max":0,"o":"m 56 444 l 397 444 l 154 0 l 313 0 l 556 444 l 556 528 l 56 528 z "},"₈":{"ha":611,"x_min":0,"x_max":0,"o":"m 56 106 b 188 0 56 35 100 0 l 424 0 b 556 106 511 0 556 35 l 556 181 b 486 278 556 226 536 263 b 556 375 536 293 556 329 l 556 422 b 424 528 556 493 511 528 l 188 528 b 56 422 100 528 56 493 l 56 375 b 125 278 56 329 75 293 b 56 181 75 263 56 226 z m 194 106 l 194 214 b 222 236 194 229 204 236 l 389 236 b 417 214 407 236 417 229 l 417 106 b 389 83 417 90 407 83 l 222 83 b 194 106 204 83 194 90 z m 194 342 l 194 422 b 222 444 194 438 204 444 l 389 444 b 417 422 407 444 417 438 l 417 342 b 389 319 417 326 407 319 l 222 319 b 194 342 204 319 194 326 z "},"₉":{"ha":611,"x_min":0,"x_max":0,"o":"m 56 342 b 188 236 56 271 100 236 l 417 236 l 417 128 b 361 83 417 99 399 83 l 83 83 l 83 0 l 396 0 b 556 128 503 0 556 43 l 556 422 b 424 528 556 493 511 528 l 188 528 b 56 422 100 528 56 493 z m 194 342 l 194 422 b 222 444 194 438 204 444 l 389 444 b 417 422 407 444 417 438 l 417 319 l 222 319 b 194 342 204 319 194 326 z "},"₊":{"ha":611,"x_min":0,"x_max":0,"o":"m 83 181 l 243 181 l 243 28 l 368 28 l 368 181 l 528 181 l 528 278 l 368 278 l 368 431 l 243 431 l 243 278 l 83 278 z "},"₋":{"ha":611,"x_min":0,"x_max":0,"o":"m 83 181 l 528 181 l 528 278 l 83 278 z "},"₌":{"ha":611,"x_min":0,"x_max":0,"o":"m 83 83 l 528 83 l 528 181 l 83 181 z m 83 278 l 528 278 l 528 375 l 83 375 z "},"₍":{"ha":361,"x_min":0,"x_max":0,"o":"m 76 194 b 194 -139 76 69 118 -49 l 313 -139 b 201 194 243 -49 201 76 b 313 528 201 313 243 438 l 194 528 b 76 194 118 438 76 319 z "},"₎":{"ha":361,"x_min":0,"x_max":0,"o":"m 49 -139 l 167 -139 b 285 194 243 -49 285 69 b 167 528 285 319 243 438 l 49 528 b 160 194 118 438 160 313 b 49 -139 160 76 118 -49 z "},"₤":{"ha":986,"x_min":0,"x_max":0,"o":"m 42 0 l 917 0 l 917 118 l 389 118 l 389 306 l 722 306 l 722 410 l 389 410 l 389 507 l 722 507 l 722 611 l 389 611 l 389 754 b 444 799 389 783 407 799 l 861 799 l 861 917 l 403 917 b 194 750 264 917 194 861 l 194 611 l 42 611 l 42 507 l 194 507 l 194 410 l 42 410 l 42 306 l 194 306 l 194 118 l 42 118 z "},"₦":{"ha":1222,"x_min":0,"x_max":0,"o":"m 28 306 l 181 306 l 181 0 l 375 0 l 375 660 l 819 0 l 1042 0 l 1042 306 l 1194 306 l 1194 410 l 1042 410 l 1042 507 l 1194 507 l 1194 611 l 1042 611 l 1042 917 l 847 917 l 847 257 l 403 917 l 181 917 l 181 611 l 28 611 l 28 507 l 181 507 l 181 410 l 28 410 z "},"₩":{"ha":1611,"x_min":0,"x_max":0,"o":"m 28 306 l 260 306 l 347 0 l 590 0 l 806 669 l 1021 0 l 1264 0 l 1351 306 l 1583 306 l 1583 410 l 1382 410 l 1410 507 l 1583 507 l 1583 611 l 1440 611 l 1528 917 l 1335 917 l 1133 219 l 910 917 l 701 917 l 478 219 l 276 917 l 83 917 l 171 611 l 28 611 l 28 507 l 201 507 l 229 410 l 28 410 z "},"₫":{"ha":986,"x_min":0,"x_max":0,"o":"m 111 -90 l 111 -181 l 847 -181 l 847 -90 z m 111 156 b 306 0 111 51 176 0 l 847 0 l 847 750 l 944 750 l 944 840 l 847 840 l 847 917 l 667 917 l 667 840 l 417 840 l 417 750 l 667 750 l 667 667 l 306 667 b 111 511 176 667 111 615 z m 292 143 l 292 524 b 340 563 292 550 308 563 l 667 563 l 667 104 l 340 104 b 292 143 308 104 292 117 z "},"€":{"ha":986,"x_min":0,"x_max":0,"o":"m 28 306 l 167 306 l 167 167 b 375 0 167 56 236 0 l 931 0 l 931 118 l 417 118 b 361 163 379 118 361 133 l 361 306 l 736 306 l 736 410 l 361 410 l 361 507 l 736 507 l 736 611 l 361 611 l 361 754 b 417 799 361 783 379 799 l 931 799 l 931 917 l 375 917 b 167 750 236 917 167 861 l 167 611 l 28 611 l 28 507 l 167 507 l 167 410 l 28 410 z "},"₯":{"ha":1944,"x_min":0,"x_max":0,"o":"m 104 0 l 576 0 b 1021 356 872 0 1021 118 l 1021 561 b 576 917 1021 799 872 917 l 104 917 z m 299 118 l 299 799 l 549 799 b 826 576 733 799 826 725 l 826 340 b 549 118 826 192 733 118 z m 1118 -292 l 1299 -292 l 1299 0 l 1660 0 b 1854 156 1789 0 1854 51 l 1854 511 b 1660 667 1854 615 1789 667 l 1313 667 b 1118 511 1183 667 1118 615 z m 1299 104 l 1299 524 b 1347 563 1299 550 1315 563 l 1625 563 b 1674 524 1657 563 1674 550 l 1674 143 b 1625 104 1674 117 1657 104 z "},"₱":{"ha":1167,"x_min":0,"x_max":0,"o":"m 28 472 l 181 472 l 181 0 l 375 0 l 375 333 l 778 333 b 985 472 904 333 974 379 l 1139 472 l 1139 576 l 986 576 l 986 674 l 1139 674 l 1139 778 l 985 778 b 778 917 974 871 904 917 l 181 917 l 181 778 l 28 778 l 28 674 l 181 674 l 181 576 l 28 576 z m 375 451 l 375 799 l 736 799 b 792 754 774 799 792 783 l 792 496 b 736 451 792 467 774 451 z "},"₹":{"ha":986,"x_min":0,"x_max":0,"o":"m 56 382 l 354 382 l 606 0 l 819 0 l 568 382 b 778 549 704 383 778 435 l 778 597 l 931 597 l 931 701 l 778 701 b 768 813 778 771 776 785 l 931 813 l 931 917 l 56 917 l 56 799 l 528 799 b 583 754 565 799 583 783 l 583 701 l 56 701 l 56 597 l 583 597 l 583 544 b 528 500 583 515 565 500 l 56 500 z "},"₺":{"ha":986,"x_min":0,"x_max":0,"o":"m 28 278 l 167 314 l 167 0 l 681 0 b 931 200 847 0 931 67 l 931 368 l 736 368 l 736 207 b 625 118 736 147 699 118 l 361 118 l 361 367 l 653 444 l 653 556 l 361 478 l 361 575 l 653 653 l 653 764 l 361 686 l 361 917 l 167 917 l 167 633 l 28 596 l 28 486 l 167 522 l 167 425 l 28 388 z "},"₽":{"ha":1042,"x_min":0,"x_max":0,"o":"m 28 167 l 181 167 l 181 0 l 375 0 l 375 167 l 778 167 l 778 271 l 375 271 l 375 361 l 778 361 b 986 528 917 361 986 417 l 986 750 b 778 917 986 861 917 917 l 181 917 l 181 479 l 28 479 l 28 361 l 181 361 l 181 271 l 28 271 z m 375 479 l 375 799 l 736 799 b 792 754 774 799 792 783 l 792 524 b 736 479 792 494 774 479 z "},"₿":{"ha":986,"x_min":0,"x_max":0,"o":"m 69 0 l 264 0 l 264 -167 l 389 -167 l 389 0 l 500 0 l 500 -167 l 625 -167 l 625 0 l 708 0 b 917 167 847 0 917 56 l 917 340 b 813 493 917 419 882 469 b 903 640 872 518 903 567 l 903 750 b 694 917 903 861 833 917 l 625 917 l 625 1083 l 500 1083 l 500 917 l 389 917 l 389 1083 l 264 1083 l 264 917 l 69 917 z m 264 118 l 264 431 l 667 431 b 722 386 704 431 722 415 l 722 163 b 667 118 722 133 704 118 z m 264 549 l 264 799 l 653 799 b 708 754 690 799 708 783 l 708 593 b 653 549 708 564 690 549 z "},"℅":{"ha":1458,"x_min":0,"x_max":0,"o":"m 56 578 b 188 472 56 507 100 472 l 514 472 l 514 556 l 222 556 b 194 578 204 556 194 563 l 194 811 b 222 833 194 826 204 833 l 514 833 l 514 917 l 188 917 b 56 811 100 917 56 882 z m 375 0 l 542 0 l 1069 917 l 903 917 z m 903 106 b 1035 0 903 35 947 0 l 1271 0 b 1403 106 1358 0 1403 35 l 1403 339 b 1271 444 1403 410 1358 444 l 1035 444 b 903 339 947 444 903 410 z m 1042 106 l 1042 339 b 1069 361 1042 354 1051 361 l 1236 361 b 1264 339 1254 361 1264 354 l 1264 106 b 1236 83 1264 90 1254 83 l 1069 83 b 1042 106 1051 83 1042 90 z "},"ℓ":{"ha":458,"x_min":0,"x_max":0,"o":"m 90 156 b 285 0 90 51 156 0 l 410 0 l 410 104 l 333 104 b 271 154 292 104 271 121 l 271 917 l 90 917 z "},"№":{"ha":1736,"x_min":0,"x_max":0,"o":"m 104 0 l 299 0 l 299 678 l 813 0 l 1035 0 l 1035 917 l 840 917 l 840 239 l 326 917 l 104 917 z m 1139 578 b 1271 472 1139 507 1183 472 l 1507 472 b 1639 578 1594 472 1639 507 l 1639 811 b 1507 917 1639 882 1594 917 l 1271 917 b 1139 811 1183 917 1139 882 z m 1278 578 l 1278 811 b 1306 833 1278 826 1288 833 l 1472 833 b 1500 811 1490 833 1500 826 l 1500 578 b 1472 556 1500 563 1490 556 l 1306 556 b 1278 578 1288 556 1278 563 z "},"℗":{"ha":1264,"x_min":0,"x_max":0,"o":"m 90 106 b 222 0 90 35 135 0 l 1042 0 b 1174 106 1129 0 1174 35 l 1174 811 b 1042 917 1174 882 1129 917 l 222 917 b 90 811 135 917 90 882 z m 229 106 l 229 811 b 257 833 229 826 239 833 l 1007 833 b 1035 811 1025 833 1035 826 l 1035 106 b 1007 83 1035 90 1025 83 l 257 83 b 229 106 239 83 229 90 z m 368 194 l 507 194 l 507 389 l 764 389 b 896 494 851 389 896 424 l 896 617 b 764 722 896 688 851 722 l 368 722 z m 507 472 l 507 639 l 729 639 b 757 617 747 639 757 632 l 757 494 b 729 472 757 479 747 472 z "},"™":{"ha":1472,"x_min":0,"x_max":0,"o":"m 28 833 l 250 833 l 250 389 l 389 389 l 389 833 l 611 833 l 611 917 l 28 917 z m 694 389 l 833 389 l 833 714 l 989 389 l 1122 389 l 1278 714 l 1278 389 l 1417 389 l 1417 917 l 1243 917 l 1056 526 l 868 917 l 694 917 z "},"Ω":{"ha":1125,"x_min":0,"x_max":0,"o":"m 76 0 l 472 0 l 472 132 l 317 313 b 299 363 308 322 299 335 l 299 754 b 354 799 299 783 317 799 l 771 799 b 826 754 808 799 826 783 l 826 363 b 808 313 826 335 817 322 l 653 132 l 653 0 l 1049 0 l 1049 118 l 857 118 l 981 261 b 1021 378 1007 292 1021 317 l 1021 750 b 813 917 1021 861 951 917 l 313 917 b 104 750 174 917 104 861 l 104 378 b 144 261 104 317 118 292 l 268 118 l 76 118 z "},"℮":{"ha":1125,"x_min":0,"x_max":0,"o":"m 53 458 b 563 0 53 206 281 0 b 965 178 726 0 872 69 l 889 178 b 563 28 810 86 693 28 b 240 172 407 28 297 107 l 240 446 l 1072 446 b 563 917 1072 724 838 917 b 53 458 281 917 53 711 z m 240 471 l 240 744 b 563 889 297 810 407 889 b 885 744 718 889 828 810 l 885 471 z "},"⅛":{"ha":1333,"x_min":0,"x_max":0,"o":"m 56 833 l 201 833 l 201 389 l 340 389 l 340 917 l 56 917 z m 250 0 l 417 0 l 944 917 l 778 917 z m 778 106 b 910 0 778 35 822 0 l 1146 0 b 1278 106 1233 0 1278 35 l 1278 181 b 1208 278 1278 226 1258 263 b 1278 375 1258 293 1278 329 l 1278 422 b 1146 528 1278 493 1233 528 l 910 528 b 778 422 822 528 778 493 l 778 375 b 847 278 778 329 797 293 b 778 181 797 263 778 226 z m 917 106 l 917 214 b 944 236 917 229 926 236 l 1111 236 b 1139 214 1129 236 1139 229 l 1139 106 b 1111 83 1139 90 1129 83 l 944 83 b 917 106 926 83 917 90 z m 917 342 l 917 422 b 944 444 917 438 926 444 l 1111 444 b 1139 422 1129 444 1139 438 l 1139 342 b 1111 319 1139 326 1129 319 l 944 319 b 917 342 926 319 917 326 z "},"⅜":{"ha":1472,"x_min":0,"x_max":0,"o":"m 69 389 l 424 389 b 556 494 511 389 556 424 l 556 569 b 486 667 556 615 536 651 b 556 764 536 682 556 718 l 556 811 b 424 917 556 882 511 917 l 69 917 l 69 833 l 389 833 b 417 811 407 833 417 826 l 417 731 b 389 708 417 715 407 708 l 139 708 l 139 625 l 389 625 b 417 603 407 625 417 618 l 417 494 b 389 472 417 479 407 472 l 69 472 z m 389 0 l 556 0 l 1083 917 l 917 917 z m 917 106 b 1049 0 917 35 961 0 l 1285 0 b 1417 106 1372 0 1417 35 l 1417 181 b 1347 278 1417 226 1397 263 b 1417 375 1397 293 1417 329 l 1417 422 b 1285 528 1417 493 1372 528 l 1049 528 b 917 422 961 528 917 493 l 917 375 b 986 278 917 329 936 293 b 917 181 936 263 917 226 z m 1056 106 l 1056 214 b 1083 236 1056 229 1065 236 l 1250 236 b 1278 214 1268 236 1278 229 l 1278 106 b 1250 83 1278 90 1268 83 l 1083 83 b 1056 106 1065 83 1056 90 z m 1056 342 l 1056 422 b 1083 444 1056 438 1065 444 l 1250 444 b 1278 422 1268 444 1278 438 l 1278 342 b 1250 319 1278 326 1268 319 l 1083 319 b 1056 342 1065 319 1056 326 z "},"⅝":{"ha":1472,"x_min":0,"x_max":0,"o":"m 56 389 l 424 389 b 556 494 511 389 556 424 l 556 603 b 424 708 556 674 511 708 l 194 708 l 194 833 l 528 833 l 528 917 l 56 917 l 56 625 l 389 625 b 417 603 407 625 417 618 l 417 494 b 389 472 417 479 407 472 l 56 472 z m 389 0 l 556 0 l 1083 917 l 917 917 z m 917 106 b 1049 0 917 35 961 0 l 1285 0 b 1417 106 1372 0 1417 35 l 1417 181 b 1347 278 1417 226 1397 263 b 1417 375 1397 293 1417 329 l 1417 422 b 1285 528 1417 493 1372 528 l 1049 528 b 917 422 961 528 917 493 l 917 375 b 986 278 917 329 936 293 b 917 181 936 263 917 226 z m 1056 106 l 1056 214 b 1083 236 1056 229 1065 236 l 1250 236 b 1278 214 1268 236 1278 229 l 1278 106 b 1250 83 1278 90 1268 83 l 1083 83 b 1056 106 1065 83 1056 90 z m 1056 342 l 1056 422 b 1083 444 1056 438 1065 444 l 1250 444 b 1278 422 1268 444 1278 438 l 1278 342 b 1250 319 1278 326 1268 319 l 1083 319 b 1056 342 1065 319 1056 326 z "},"⅞":{"ha":1389,"x_min":0,"x_max":0,"o":"m 56 833 l 397 833 l 154 389 l 313 389 l 556 833 l 556 917 l 56 917 z m 306 0 l 472 0 l 1000 917 l 833 917 z m 833 106 b 965 0 833 35 878 0 l 1201 0 b 1333 106 1289 0 1333 35 l 1333 181 b 1264 278 1333 226 1314 263 b 1333 375 1314 293 1333 329 l 1333 422 b 1201 528 1333 493 1289 528 l 965 528 b 833 422 878 528 833 493 l 833 375 b 903 278 833 329 853 293 b 833 181 853 263 833 226 z m 972 106 l 972 214 b 1000 236 972 229 982 236 l 1167 236 b 1194 214 1185 236 1194 229 l 1194 106 b 1167 83 1194 90 1185 83 l 1000 83 b 972 106 982 83 972 90 z m 972 342 l 972 422 b 1000 444 972 438 982 444 l 1167 444 b 1194 422 1185 444 1194 438 l 1194 342 b 1167 319 1194 326 1185 319 l 1000 319 b 972 342 982 319 972 326 z "},"←":{"ha":1056,"x_min":0,"x_max":0,"o":"m 63 396 l 389 63 l 597 63 l 375 313 l 979 313 l 979 479 l 375 479 l 597 729 l 389 729 z "},"↑":{"ha":847,"x_min":0,"x_max":0,"o":"m 90 382 l 340 604 l 340 0 l 507 0 l 507 604 l 757 382 l 757 590 l 424 917 l 90 590 z "},"→":{"ha":1056,"x_min":0,"x_max":0,"o":"m 76 313 l 681 313 l 458 63 l 667 63 l 993 396 l 667 729 l 458 729 l 681 479 l 76 479 z "},"↓":{"ha":847,"x_min":0,"x_max":0,"o":"m 90 326 l 424 0 l 757 326 l 757 535 l 507 313 l 507 917 l 340 917 l 340 313 l 90 535 z "},"∂":{"ha":917,"x_min":0,"x_max":0,"o":"m 90 156 b 285 0 90 51 156 0 l 632 0 b 826 156 761 0 826 51 l 826 628 b 465 917 826 821 706 917 l 174 917 l 174 813 l 465 813 b 646 667 586 813 646 764 l 285 667 b 90 511 156 667 90 615 z m 271 143 l 271 524 b 319 563 271 550 288 563 l 646 563 l 646 143 b 597 104 646 117 629 104 l 319 104 b 271 143 288 104 271 117 z "},"∆":{"ha":1111,"x_min":0,"x_max":0,"o":"m 14 0 l 1097 0 l 667 917 l 444 917 z m 272 118 l 556 722 l 839 118 z "},"∏":{"ha":1125,"x_min":0,"x_max":0,"o":"m 104 -194 l 299 -194 l 299 799 l 826 799 l 826 -194 l 1021 -194 l 1021 917 l 104 917 z "},"∑":{"ha":1042,"x_min":0,"x_max":0,"o":"m 97 -76 l 97 -194 l 944 -194 l 944 -76 l 326 -76 l 701 361 l 326 799 l 944 799 l 944 917 l 97 917 l 97 799 l 472 361 z "},"−":{"ha":986,"x_min":0,"x_max":0,"o":"m 118 333 l 868 333 l 868 458 l 118 458 z "},"∕":{"ha":250,"x_min":0,"x_max":0,"o":"m -222 0 l -56 0 l 472 917 l 306 917 z "},"∙":{"ha":417,"x_min":0,"x_max":0,"o":"m 111 313 l 306 313 l 306 479 l 111 479 z "},"√":{"ha":986,"x_min":0,"x_max":0,"o":"m 90 458 l 271 458 l 424 0 l 618 0 l 965 1042 l 813 1042 l 528 188 l 403 563 l 90 563 z "},"∞":{"ha":1222,"x_min":0,"x_max":0,"o":"m 90 244 b 222 139 90 174 135 139 l 497 139 b 611 181 549 139 588 150 b 725 139 635 150 674 139 l 1000 139 b 1132 244 1088 139 1132 174 l 1132 561 b 1000 667 1132 632 1088 667 l 725 667 b 611 625 674 667 635 656 b 497 667 588 656 549 667 l 222 667 b 90 561 135 667 90 632 z m 243 258 l 243 547 b 271 569 243 563 253 569 l 493 569 b 521 547 511 569 521 563 l 521 258 b 493 236 521 243 511 236 l 271 236 b 243 258 253 236 243 243 z m 701 258 l 701 547 b 729 569 701 563 711 569 l 951 569 b 979 547 969 569 979 563 l 979 258 b 951 236 979 243 969 236 l 729 236 b 701 258 711 236 701 243 z "},"∟":{"ha":986,"x_min":0,"x_max":0,"o":"m 111 0 l 889 0 l 889 125 l 250 125 l 250 778 l 111 778 z "},"∫":{"ha":681,"x_min":0,"x_max":0,"o":"m 56 -187 l 56 -292 l 236 -292 b 431 -136 365 -292 431 -240 l 431 774 b 479 813 431 800 447 813 l 625 813 l 625 917 l 444 917 b 250 761 315 917 250 865 l 250 -149 b 201 -187 250 -175 233 -187 z "},"≈":{"ha":986,"x_min":0,"x_max":0,"o":"m 118 113 l 299 221 b 340 233 313 229 326 233 b 382 221 354 233 368 229 l 535 129 b 646 88 576 104 604 88 b 757 129 688 88 715 104 l 868 196 l 868 346 l 688 238 b 646 225 674 229 660 225 b 604 238 632 225 618 229 l 451 329 b 340 371 410 354 382 371 b 229 329 299 371 271 354 l 118 263 z m 118 446 l 299 554 b 340 567 313 563 326 567 b 382 554 354 567 368 563 l 535 463 b 646 421 576 438 604 421 b 757 463 688 421 715 438 l 868 529 l 868 679 l 688 571 b 646 558 674 563 660 558 b 604 571 632 558 618 563 l 451 663 b 340 704 410 688 382 704 b 229 663 299 704 271 688 l 118 596 z "},"≠":{"ha":986,"x_min":0,"x_max":0,"o":"m 118 167 l 313 167 l 257 56 l 368 0 l 451 167 l 868 167 l 868 292 l 514 292 l 618 500 l 868 500 l 868 625 l 681 625 l 736 736 l 625 792 l 542 625 l 118 625 l 118 500 l 479 500 l 375 292 l 118 292 z "},"≤":{"ha":986,"x_min":0,"x_max":0,"o":"m 132 0 l 854 0 l 854 125 l 132 125 z m 132 444 l 854 167 l 854 315 l 356 507 l 854 699 l 854 847 l 132 569 z "},"≥":{"ha":986,"x_min":0,"x_max":0,"o":"m 132 0 l 854 0 l 854 125 l 132 125 z m 132 167 l 854 444 l 854 569 l 132 847 l 132 699 l 631 507 l 132 315 z "},"◊":{"ha":931,"x_min":0,"x_max":0,"o":"m 63 458 l 465 -83 l 868 458 l 465 1000 z m 239 458 l 465 764 l 692 458 l 465 153 z "},"❰":{"ha":819,"x_min":0,"x_max":0,"o":"m 90 313 l 521 -292 l 757 -292 l 451 313 l 757 917 l 521 917 z "},"❱":{"ha":819,"x_min":0,"x_max":0,"o":"m 63 -292 l 299 -292 l 729 313 l 299 917 l 63 917 l 368 313 z "},"❲":{"ha":611,"x_min":0,"x_max":0,"o":"m 104 -90 l 486 -292 l 535 -208 l 285 -7 l 285 674 l 535 875 l 486 958 l 104 757 z "},"❳":{"ha":611,"x_min":0,"x_max":0,"o":"m 76 -208 l 125 -292 l 507 -90 l 507 757 l 125 958 l 76 875 l 326 674 l 326 -7 z "},"":{"ha":1597,"x_min":0,"x_max":0,"o":"m 83 188 l 708 188 l 708 0 l 903 0 l 903 917 l 660 917 l 83 306 z m 308 306 l 708 729 l 708 306 z m 1042 0 l 1236 0 l 1236 167 l 1042 167 z m 1118 833 l 1264 833 l 1264 389 l 1403 389 l 1403 917 l 1118 917 z "},"ﬀ":{"ha":1139,"x_min":0,"x_max":0,"o":"m 90 0 l 271 0 l 271 563 l 521 563 l 521 667 l 271 667 l 271 774 b 319 813 271 800 288 813 l 521 813 l 521 917 l 285 917 b 90 761 156 917 90 865 z m 660 0 l 840 0 l 840 563 l 1090 563 l 1090 667 l 840 667 l 840 774 b 889 813 840 800 857 813 l 1090 813 l 1090 917 l 854 917 b 660 761 725 917 660 865 z "},"ﬁ":{"ha":931,"x_min":0,"x_max":0,"o":"m 90 0 l 271 0 l 271 563 l 521 563 l 521 667 l 271 667 l 271 774 b 319 813 271 800 288 813 l 521 813 l 521 917 l 285 917 b 90 761 156 917 90 865 z m 660 0 l 840 0 l 840 667 l 660 667 z m 660 778 l 840 778 l 840 917 l 660 917 z "},"ﬂ":{"ha":931,"x_min":0,"x_max":0,"o":"m 90 0 l 271 0 l 271 563 l 521 563 l 521 667 l 271 667 l 271 774 b 319 813 271 800 288 813 l 521 813 l 521 917 l 285 917 b 90 761 156 917 90 865 z m 660 0 l 840 0 l 840 917 l 660 917 z "},"ﬃ":{"ha":1500,"x_min":0,"x_max":0,"o":"m 90 0 l 271 0 l 271 563 l 521 563 l 521 667 l 271 667 l 271 774 b 319 813 271 800 288 813 l 521 813 l 521 917 l 285 917 b 90 761 156 917 90 865 z m 660 0 l 840 0 l 840 563 l 1090 563 l 1090 667 l 840 667 l 840 774 b 889 813 840 800 857 813 l 1090 813 l 1090 917 l 854 917 b 660 761 725 917 660 865 z m 1229 0 l 1410 0 l 1410 667 l 1229 667 z m 1229 778 l 1410 778 l 1410 917 l 1229 917 z "},"ﬄ":{"ha":1500,"x_min":0,"x_max":0,"o":"m 90 0 l 271 0 l 271 563 l 521 563 l 521 667 l 271 667 l 271 774 b 319 813 271 800 288 813 l 521 813 l 521 917 l 285 917 b 90 761 156 917 90 865 z m 660 0 l 840 0 l 840 563 l 1090 563 l 1090 667 l 840 667 l 840 774 b 889 813 840 800 857 813 l 1090 813 l 1090 917 l 854 917 b 660 761 725 917 660 865 z m 1229 0 l 1410 0 l 1410 917 l 1229 917 z "},"⌖":{"ha":1264,"x_min":0,"x_max":0,"o":"m 76 389 l 424 389 l 424 528 l 76 528 z m 563 -83 l 701 -83 l 701 250 l 563 250 z m 563 389 l 701 389 l 701 528 l 563 528 z m 563 667 l 701 667 l 701 1000 l 563 1000 z m 840 389 l 1188 389 l 1188 528 l 840 528 z "},"■":{"ha":1125,"x_min":0,"x_max":0,"o":"m 104 0 l 1021 0 l 1021 917 l 104 917 z "},"▬":{"ha":1125,"x_min":0,"x_max":0,"o":"m 104 229 l 1021 229 l 1021 688 l 104 688 z "},"▮":{"ha":667,"x_min":0,"x_max":0,"o":"m 104 0 l 563 0 l 563 917 l 104 917 z "},"▰":{"ha":1000,"x_min":0,"x_max":0,"o":"m 0 83 l 500 83 l 1000 833 l 500 833 z "},"▲":{"ha":1125,"x_min":0,"x_max":0,"o":"m 63 0 l 1063 0 l 563 861 z "},"▶":{"ha":1028,"x_min":0,"x_max":0,"o":"m 104 -42 l 965 458 l 104 958 z "},"▼":{"ha":1125,"x_min":0,"x_max":0,"o":"m 63 917 l 563 56 l 1063 917 z "},"◀":{"ha":1028,"x_min":0,"x_max":0,"o":"m 63 458 l 924 -42 l 924 958 z "},"◆":{"ha":1125,"x_min":0,"x_max":0,"o":"m 63 458 l 563 -42 l 1063 458 l 563 958 z "},"●":{"ha":1097,"x_min":0,"x_max":0,"o":"m 90 458 b 549 0 90 206 296 0 b 1007 458 801 0 1007 206 b 549 917 1007 711 801 917 b 90 458 296 917 90 711 z "},"◢":{"ha":833,"x_min":0,"x_max":0,"o":"m 63 0 l 729 0 l 729 667 z "},"◣":{"ha":833,"x_min":0,"x_max":0,"o":"m 104 0 l 771 0 l 104 667 z "},"◤":{"ha":833,"x_min":0,"x_max":0,"o":"m 104 250 l 771 917 l 104 917 z "},"◥":{"ha":833,"x_min":0,"x_max":0,"o":"m 63 917 l 729 250 l 729 917 z "},"☄":{"ha":1139,"x_min":0,"x_max":0,"o":"m 63 1056 l 400 538 l 133 732 l 392 329 l 475 532 l 707 443 l 831 522 l 471 861 l 592 603 z m 431 204 l 669 -56 b 939 0 746 -14 824 0 b 1049 269 1007 75 1049 140 l 900 468 l 717 350 l 521 425 z "},"★":{"ha":1181,"x_min":0,"x_max":0,"o":"m 63 618 l 389 382 l 264 0 l 590 236 l 917 0 l 792 382 l 1118 618 l 715 618 l 590 1000 l 465 618 z "},"☠":{"ha":1347,"x_min":0,"x_max":0,"o":"m 76 306 b 375 257 215 306 250 306 l 264 410 b 176 547 210 436 192 461 b 85 500 126 547 85 525 b 115 407 85 451 115 464 b 76 306 115 358 76 371 z m 199 40 b 333 -83 318 14 279 -83 b 524 61 397 -83 389 7 l 485 90 l 465 160 b 251 99 392 118 311 99 b 199 40 224 99 199 75 z m 299 431 l 419 264 l 496 250 l 507 190 l 611 132 l 736 132 l 840 190 l 851 250 l 928 264 l 1049 431 l 1003 497 l 1035 757 b 674 1000 1035 882 826 1000 b 313 757 521 1000 313 882 l 344 497 z m 410 474 b 483 542 410 519 432 542 b 626 465 503 542 626 508 b 461 353 626 390 539 353 b 410 474 428 353 410 396 z m 507 165 l 521 115 l 549 94 l 549 142 z m 563 88 l 604 65 l 604 113 l 563 133 z m 611 268 l 674 379 l 736 268 l 708 247 l 674 268 l 639 247 z m 618 63 l 667 63 l 667 111 l 618 111 z m 681 63 l 729 63 l 729 111 l 681 111 z m 721 465 b 864 542 721 508 844 542 b 938 474 915 542 938 519 b 886 353 938 396 919 353 b 721 465 808 353 721 390 z m 743 65 l 785 88 l 785 133 l 743 113 z m 799 94 l 826 115 l 840 165 l 799 142 z m 824 61 b 1014 -83 958 7 950 -83 b 1149 40 1068 -83 1029 14 b 1096 99 1149 75 1124 99 b 882 160 1036 99 956 118 l 863 90 z m 972 257 b 1271 306 1097 306 1132 306 b 1232 407 1271 371 1232 358 b 1263 500 1232 464 1263 451 b 1171 547 1263 525 1221 547 b 1083 410 1156 461 1138 436 z "},"☢":{"ha":1264,"x_min":0,"x_max":0,"o":"m 90 458 l 465 458 b 549 603 465 519 499 574 l 361 928 b 90 458 199 835 90 658 z m 361 -11 b 632 -83 440 -57 533 -83 b 903 -11 731 -83 824 -57 l 715 314 b 632 292 690 300 663 292 b 549 314 601 292 574 300 z m 521 458 b 632 347 521 397 571 347 b 743 458 693 347 743 397 b 632 569 743 519 693 569 b 521 458 571 569 521 519 z m 715 603 b 799 458 765 574 799 519 l 1174 458 b 903 928 1174 658 1065 835 z "},"☣":{"ha":1278,"x_min":0,"x_max":0,"o":"m 90 340 b 119 211 90 292 103 244 b 115 261 117 224 115 242 b 350 500 115 394 221 500 b 579 271 476 500 579 397 b 347 42 579 144 475 42 b 183 103 279 42 224 68 b 438 -28 239 24 326 -28 b 639 35 518 -28 604 11 b 840 -28 674 11 760 -28 b 1094 103 951 -28 1039 24 b 931 42 1054 68 999 42 b 699 271 803 42 699 144 b 928 500 699 397 801 500 b 1163 261 1057 500 1163 394 b 1158 211 1163 242 1161 224 b 1188 340 1175 244 1188 292 b 990 639 1188 457 1118 572 b 701 1000 990 858 865 983 b 868 771 801 964 868 878 b 639 542 868 644 765 542 b 410 771 513 542 410 644 b 576 1000 410 878 476 964 b 288 639 413 983 288 858 b 90 340 160 572 90 457 z m 306 451 b 485 142 306 299 378 201 l 531 219 b 396 451 465 254 396 318 z m 460 719 l 504 640 b 639 681 543 665 589 681 b 774 640 689 681 735 665 l 818 719 b 639 771 767 753 704 771 b 460 719 574 771 511 753 z m 569 438 b 639 507 569 476 600 507 b 708 438 678 507 708 476 b 639 368 708 399 678 368 b 569 438 600 368 569 399 z m 747 219 l 793 142 b 972 451 900 201 972 299 l 882 451 b 747 219 882 318 813 254 z "},"⚙":{"ha":1153,"x_min":0,"x_max":0,"o":"m 76 403 l 214 364 l 253 268 l 183 144 l 263 65 l 386 135 l 482 96 l 521 -42 l 632 -42 l 671 96 l 767 135 l 890 65 l 969 144 l 900 268 l 939 364 l 1076 403 l 1076 514 l 939 553 l 900 649 l 969 772 l 890 851 l 767 782 l 671 821 l 632 958 l 521 958 l 482 821 l 386 782 l 263 851 l 183 772 l 253 649 l 214 553 l 76 514 z m 438 458 b 576 597 438 535 500 597 b 715 458 653 597 715 535 b 576 319 715 382 653 319 b 438 458 500 319 438 382 z "},"⚛":{"ha":1097,"x_min":0,"x_max":0,"o":"m 90 176 b 267 0 90 56 167 0 b 842 360 469 0 721 201 b 882 211 868 304 882 254 b 763 92 882 133 836 92 b 650 115 729 92 690 100 l 589 74 b 831 0 676 26 760 0 b 1007 176 931 0 1007 56 b 910 458 1007 257 972 356 b 1007 740 972 561 1007 660 b 831 917 1007 861 931 917 b 549 819 750 917 651 882 b 267 917 442 885 344 917 b 90 740 167 917 90 861 b 164 499 90 671 117 586 l 206 560 b 182 672 190 600 182 639 b 301 792 182 750 228 792 b 450 751 344 792 394 778 b 90 176 222 569 90 333 z m 182 244 b 506 721 182 388 331 594 b 783 458 606 660 707 567 b 301 125 667 289 451 125 b 182 244 228 125 182 167 z m 410 472 b 528 354 410 407 463 354 b 646 472 593 354 646 407 b 528 590 646 538 593 590 b 410 472 463 590 410 538 z m 606 782 b 763 825 663 810 718 825 b 882 706 836 825 882 783 b 842 557 882 663 868 613 b 606 782 778 642 678 732 z "},"⚠":{"ha":1222,"x_min":0,"x_max":0,"o":"m 76 83 l 125 0 l 1097 0 l 1146 83 l 660 917 l 563 917 z m 528 104 l 528 215 l 694 215 l 694 104 z m 528 313 l 528 632 l 694 632 l 694 313 z "},"⚡":{"ha":1111,"x_min":0,"x_max":0,"o":"m 76 257 l 625 375 l 438 -83 l 1035 646 l 465 528 l 736 917 l 451 917 z "},"⛔":{"ha":1181,"x_min":0,"x_max":0,"o":"m 104 257 l 389 -28 l 792 -28 l 1076 257 l 1076 660 l 792 944 l 389 944 l 104 660 z m 243 347 l 243 569 l 938 569 l 938 347 z "},"❇":{"ha":1333,"x_min":0,"x_max":0,"o":"m 90 642 b 189 583 90 608 126 583 b 267 618 240 583 267 599 b 161 688 267 649 207 688 b 90 642 121 688 90 676 z m 194 315 b 244 283 194 293 215 283 b 413 331 290 283 342 331 b 492 260 449 331 492 314 b 294 -25 492 113 294 117 b 353 -83 294 -62 318 -83 b 629 238 518 -83 447 238 b 799 -31 807 238 708 -31 b 858 21 831 -31 858 -14 b 806 151 858 63 806 75 b 896 276 806 208 819 276 b 1194 169 1106 276 1093 169 b 1243 224 1228 169 1243 194 b 954 444 1243 357 954 236 b 1161 643 954 619 1161 567 b 1093 706 1161 675 1142 706 b 944 594 1032 706 1003 594 b 786 750 842 594 786 625 b 828 929 786 833 828 836 b 765 1000 828 965 803 1000 b 706 933 725 1000 706 965 b 733 758 706 853 733 829 b 653 660 733 699 706 660 b 471 844 513 660 564 844 b 439 807 450 844 439 826 b 535 661 439 729 535 719 b 338 574 535 568 338 626 b 442 456 338 532 442 514 b 194 315 442 317 194 400 z m 951 -21 b 1014 -83 951 -56 979 -83 b 1076 -21 1049 -83 1076 -56 b 1014 42 1076 14 1049 42 b 951 -21 979 42 951 14 z "},"❈":{"ha":1347,"x_min":0,"x_max":0,"o":"m 90 678 b 481 426 90 507 481 642 b 461 294 481 375 461 340 b 524 232 461 250 494 232 b 694 278 582 232 610 278 b 989 -29 874 278 850 -29 b 1089 54 1046 -29 1089 6 b 847 311 1089 186 847 158 b 965 481 847 394 965 408 b 835 642 965 532 835 531 b 1001 914 835 785 1001 829 b 907 1000 1001 961 968 1000 b 751 649 763 1000 843 649 b 603 703 688 649 665 703 b 456 601 543 703 542 601 b 189 775 276 601 299 775 b 90 678 131 775 90 726 z m 110 304 b 186 240 110 265 147 240 b 308 332 244 240 308 297 b 211 379 308 367 256 379 b 110 304 156 379 110 350 z m 264 10 b 335 -83 264 -43 299 -83 b 464 147 417 -83 464 25 b 446 201 464 169 461 201 b 264 10 414 201 264 99 z m 493 928 b 572 821 493 886 533 821 b 628 921 600 821 628 867 b 556 1000 628 968 594 1000 b 493 928 521 1000 493 964 z m 1019 486 b 1179 433 1019 451 1115 433 b 1257 493 1218 433 1257 447 b 1169 556 1257 536 1215 556 b 1019 486 1110 556 1019 517 z "},"❌":{"ha":1069,"x_min":0,"x_max":0,"o":"m 76 201 l 278 0 l 535 257 l 792 0 l 993 201 l 736 458 l 993 715 l 792 917 l 535 660 l 278 917 l 76 715 l 333 458 z "},"❤":{"ha":1236,"x_min":0,"x_max":0,"o":"m 90 653 b 215 403 90 528 146 472 l 618 0 l 1021 403 b 1146 653 1090 472 1146 528 b 882 917 1146 799 1028 917 b 618 771 778 917 715 875 b 354 917 521 875 458 917 b 90 653 208 917 90 799 z "},"":{"ha":1389,"x_min":0,"x_max":0,"o":"m 69 0 l 347 0 l 347 278 l 625 278 l 625 833 l 69 833 z m 764 278 l 1042 278 l 1042 556 l 1319 556 l 1319 833 l 764 833 z m 1042 0 l 1319 0 l 1319 276 l 1042 276 z "}}}
